<svg xmlns="http://www.w3.org/2000/svg" xmlns:xlink="http://www.w3.org/1999/xlink"><defs><path id="SVGID_1_" d="M0 0h264.3v279.9H0z"/></defs><symbol id="icon-arrow" viewBox="0 0 264.3 279.9"><style>.st0{clip-path:url(#SVGID_2_)}</style><clipPath id="SVGID_2_"><use xlink:href="#SVGID_1_" overflow="visible"/></clipPath><path class="st0" d="M257.1 115.6L148.8 7.2c-1.2-1.2-2.4-1.8-3.6-3-.6-.6-1.2-.6-1.8-1.2-.6-.6-1.8-.6-2.4-1.2-.6-.6-1.8-.6-2.4-.6-.6 0-1.2-.6-2.4-.6s-3-.6-4.2-.6h-.6c-1.2 0-3 0-4.2.6-.6 0-1.2.6-1.8.6-.6 0-1.8.6-2.4.6-.6.6-1.8.6-2.4 1.2-.6.6-1.2.6-1.8 1.2-1.2.6-2.4 1.8-3.6 3h-.6L7.1 115.6c-9.5 9.5-9.5 24.4 0 33.9 4.8 4.8 10.7 7.1 16.7 7.1s11.9-2.4 16.7-7.1l67.9-67.9v174.5c0 13.1 10.7 23.8 23.8 23.8 13.1 0 23.8-10.7 23.8-23.8V81.6l67.9 67.9c4.8 4.8 10.7 7.1 16.7 7.1s11.9-2.4 16.7-7.1c9.3-9.5 9.3-24.4-.2-33.9"/></symbol><symbol id="icon-vintage-logo" viewBox="0 0 84.1 115.5"><style>.st0{fill:#000}</style><path d="M21.7 0H0l5.1 19.8h21.5z"/><path d="M63.2 0L33.7 115.5h21L84.1 0z"/></symbol></svg>