<svg xmlns="http://www.w3.org/2000/svg" xmlns:xlink="http://www.w3.org/1999/xlink"><defs><path id="SVGID_1_" d="M0 0h264.3v279.9H0z"/></defs><symbol id="icon-arrow" viewBox="0 0 264.3 279.9"><style>.st0{clip-path:url(#SVGID_2_);fill:#fff}</style><clipPath id="SVGID_2_"><use xlink:href="#SVGID_1_" overflow="visible"/></clipPath><path class="st0" d="M257.1 115.6L148.8 7.2c-1.2-1.2-2.4-1.8-3.6-3-.6-.6-1.2-.6-1.8-1.2-.6-.6-1.8-.6-2.4-1.2-.6-.6-1.8-.6-2.4-.6-.6 0-1.2-.6-2.4-.6s-3-.6-4.2-.6h-.6c-1.2 0-3 0-4.2.6-.6 0-1.2.6-1.8.6-.6 0-1.8.6-2.4.6-.6.6-1.8.6-2.4 1.2-.6.6-1.2.6-1.8 1.2-1.2.6-2.4 1.8-3.6 3h-.6L7.1 115.6c-9.5 9.5-9.5 24.4 0 33.9 4.8 4.8 10.7 7.1 16.7 7.1s11.9-2.4 16.7-7.1l67.9-67.9v174.5c0 13.1 10.7 23.8 23.8 23.8 13.1 0 23.8-10.7 23.8-23.8V81.6l67.9 67.9c4.8 4.8 10.7 7.1 16.7 7.1s11.9-2.4 16.7-7.1c9.3-9.5 9.3-24.4-.2-33.9"/></symbol><symbol id="icon-close" viewBox="0 0 15.6 15.6"><style>.st0{fill:#0a476c}</style><path transform="rotate(45.001 7.778 7.778)" class="st0" d="M-2.2 6.8h20v2h-20z"/><path transform="rotate(134.999 7.778 7.778)" class="st0" d="M-2.2 6.8h20v2h-20z"/></symbol><symbol id="icon-facebook" viewBox="0 0 13.4 25.7"><style>.st0{fill:#fff}</style><path id="f" class="st0" d="M8.7 25.7V14h3.9l.6-4.6H8.7V6.5c0-1.3.4-2.2 2.3-2.2h2.4V.2C12.9.1 11.5 0 9.8 0 6.3 0 3.9 2.1 3.9 6v3.4H0V14h3.9v11.7h4.8z"/></symbol><symbol id="icon-linkedin" viewBox="0 0 25.8 25.7"><style>.st0{fill:#fff}</style><path class="st0" d="M19.4 8.1c-2.6 0-4.3 1.4-5.1 2.8h-.1V8.5H9.1v17.2h5.3v-8.5c0-2.2.4-4.4 3.2-4.4 2.7 0 2.8 2.6 2.8 4.6v8.4h5.3v-9.4c.1-4.7-.9-8.3-6.3-8.3z"/><path class="st0" d="M.4 8.5h5.3v17.2H.4z"/><path class="st0" d="M3.1 0C1.4 0 0 1.4 0 3.1c0 1.7 1.4 3.1 3.1 3.1 1.7 0 3.1-1.4 3.1-3.1C6.2 1.4 4.8 0 3.1 0z"/></symbol><symbol id="icon-menu" viewBox="0 0 30 15"><style>.st0{fill:#0a476c}</style><path class="st0" d="M0 0h30v2H0z"/><path class="st0" d="M0 6.5h30v2H0z"/><path class="st0" d="M0 13h30v2H0z"/></symbol><symbol id="icon-nav" viewBox="0 0 33.5 680.1"><style>.st0,.st1{fill:none;stroke:url(#SVGID_1_);stroke-miterlimit:10}.st1{fill:#becad3;stroke:#fff}</style><linearGradient id="SVGID_1_" gradientUnits="userSpaceOnUse" x1="15" y1="680.11" x2="15"><stop offset="0" stop-color="#fff" stop-opacity="0"/><stop offset=".008" stop-color="#fafbfc" stop-opacity=".016"/><stop offset=".054" stop-color="#e4e9ed" stop-opacity=".109"/><stop offset=".109" stop-color="#d3dbe1" stop-opacity=".217"/><stop offset=".175" stop-color="#c7d1d9" stop-opacity=".35"/><stop offset=".267" stop-color="#c0ccd4" stop-opacity=".533"/><stop offset=".5" stop-color="#becad3"/><stop offset=".712" stop-color="#c0ccd4" stop-opacity=".577"/><stop offset=".808" stop-color="#c8d2d9" stop-opacity=".383"/><stop offset=".882" stop-color="#d4dce2" stop-opacity=".236"/><stop offset=".943" stop-color="#e6ebee" stop-opacity=".113"/><stop offset=".997" stop-color="#fefefe" stop-opacity=".005"/><stop offset="1" stop-color="#fff" stop-opacity="0"/></linearGradient><path class="st0" d="M8 .1C17.1 87 5 130.6.9 179.1c-4.1 48.8 30.3 114.2 28.5 157.5C26 417.9 9.8 421.8 15 498.1c2.9 43 4 104.5-5 182"/><circle class="st1" cx="11.5" cy="58.6" r="4.5"/><circle class="st1" cx="5" cy="148" r="4.5"/><circle class="st1" cx="8.5" cy="237.5" r="4.5"/><circle class="st1" cx="28.5" cy="326.9" r="4.5"/><circle class="st1" cx="19.5" cy="416.3" r="4.5"/><circle class="st1" cx="15.5" cy="505.7" r="4.5"/><circle class="st1" cx="16.5" cy="595.1" r="4.5"/></symbol><symbol id="icon-twitter" viewBox="0 0 16.8 13.6"><style>.st0{fill:#fff}</style><path class="st0" d="M5.3 13.6c6.3 0 9.8-5.2 9.8-9.8v-.4c.7-.5 1.3-1.1 1.7-1.8-.6.3-1.3.5-2 .5.7-.4 1.3-1.1 1.5-1.9-.7.4-1.4.7-2.2.8-.6-.6-1.5-1-2.5-1-1.9 0-3.4 1.5-3.4 3.4 0 .3 0 .5.1.8C5.4 4.1 2.9 2.7 1.2.6.9 1.1.7 1.7.7 2.4c0 1.2.6 2.2 1.5 2.9-.5-.1-1.1-.3-1.5-.5 0 1.7 1.2 3.1 2.8 3.4-.4.1-.7.1-1 .1-.2 0-.4 0-.6-.1.4 1.4 1.7 2.4 3.2 2.4-1.2.9-2.7 1.5-4.3 1.5H0c1.5.9 3.3 1.5 5.3 1.5"/></symbol><symbol id="icon-vintage-logo" viewBox="0 0 84.1 115.5"><style>.st0{fill:#000}</style><path d="M21.7 0H0l5.1 19.8h21.5z"/><path d="M63.2 0L33.7 115.5h21L84.1 0z"/></symbol></svg>