<?xml version="1.0" encoding="utf-8"?>
<!-- Generator: Adobe Illustrator 22.0.0, SVG Export Plug-In . SVG Version: 6.00 Build 0)  -->
<svg version="1.1" id="Layer_1" xmlns="http://www.w3.org/2000/svg" xmlns:xlink="http://www.w3.org/1999/xlink" x="0px" y="0px"
	 viewBox="0 0 16.8 13.6" style="enable-background:new 0 0 16.8 13.6;" xml:space="preserve">
<style type="text/css">
	.st0{fill:#FFFFFF;}
</style>
<g>
	<path class="st0" d="M5.3,13.6c6.3,0,9.8-5.2,9.8-9.8c0-0.1,0-0.3,0-0.4c0.7-0.5,1.3-1.1,1.7-1.8c-0.6,0.3-1.3,0.5-2,0.5
		c0.7-0.4,1.3-1.1,1.5-1.9c-0.7,0.4-1.4,0.7-2.2,0.8C13.5,0.4,12.6,0,11.6,0C9.7,0,8.2,1.5,8.2,3.4c0,0.3,0,0.5,0.1,0.8
		C5.4,4.1,2.9,2.7,1.2,0.6C0.9,1.1,0.7,1.7,0.7,2.4c0,1.2,0.6,2.2,1.5,2.9C1.7,5.2,1.1,5,0.7,4.8c0,0,0,0,0,0c0,1.7,1.2,3.1,2.8,3.4
		C3.1,8.3,2.8,8.3,2.5,8.3c-0.2,0-0.4,0-0.6-0.1c0.4,1.4,1.7,2.4,3.2,2.4c-1.2,0.9-2.7,1.5-4.3,1.5c-0.3,0-0.6,0-0.8,0
		C1.5,13,3.3,13.6,5.3,13.6"/>
</g>
</svg>
