<?xml version="1.0" encoding="utf-8"?>
<!-- Generator: Adobe Illustrator 19.2.0, SVG Export Plug-In . SVG Version: 6.00 Build 0)  -->
<svg version="1.1" id="arrowDown" xmlns="http://www.w3.org/2000/svg" xmlns:xlink="http://www.w3.org/1999/xlink" x="0px" y="0px"
	 viewBox="0 0 264.3 279.9" style="enable-background:new 0 0 264.3 279.9;" xml:space="preserve">
<style type="text/css">
	.esgaesge{clip-path:url(#SVGID_2_);}
</style>
<g>
	<defs>
		<rect id="SVGID_1_" width="264.3" height="279.9"/>
	</defs>
	<clipPath id="SVGID_2_">
		<use xlink:href="#SVGID_1_"  style="overflow:visible;"/>
	</clipPath>
	<path style="esgaesge" d="M257.1,115.6L148.8,7.2c-1.2-1.2-2.4-1.8-3.6-3c-0.6-0.6-1.2-0.6-1.8-1.2c-0.6-0.6-1.8-0.6-2.4-1.2
		c-0.6-0.6-1.8-0.6-2.4-0.6c-0.6,0-1.2-0.6-2.4-0.6c-1.2,0-3-0.6-4.2-0.6h-0.6c-1.2,0-3,0-4.2,0.6c-0.6,0-1.2,0.6-1.8,0.6
		c-0.6,0-1.8,0.6-2.4,0.6c-0.6,0.6-1.8,0.6-2.4,1.2c-0.6,0.6-1.2,0.6-1.8,1.2c-1.2,0.6-2.4,1.8-3.6,3h-0.6L7.1,115.6
		c-9.5,9.5-9.5,24.4,0,33.9c4.8,4.8,10.7,7.1,16.7,7.1s11.9-2.4,16.7-7.1l67.9-67.9v174.5c0,13.1,10.7,23.8,23.8,23.8
		c13.1,0,23.8-10.7,23.8-23.8V81.6l67.9,67.9c4.8,4.8,10.7,7.1,16.7,7.1s11.9-2.4,16.7-7.1C266.6,140,266.6,125.1,257.1,115.6"/>
</g>
</svg>
