<?xml version="1.0" encoding="utf-8"?>
<!-- Generator: Adobe Illustrator 19.2.0, SVG Export Plug-In . SVG Version: 6.00 Build 0)  -->
<svg version="1.1" id="Слой_1" xmlns="http://www.w3.org/2000/svg" xmlns:xlink="http://www.w3.org/1999/xlink" x="0px" y="0px"
	 viewBox="0 0 1182.8 436.7" style="enable-background:new 0 0 1182.8 436.7;" xml:space="preserve">
<style type="text/css">
	.st0{fill:#DFF2FD;}
	.st1{fill:#F6A31C;}
	.st2{fill:#6DB6E0;}
	.st3{fill:#0073AA;}
	.st4{fill:#9CD8F7;}
	.st5{fill:#278BC1;}
	.st6{fill:#114268;}
	.st7{fill:#0A7193;}
	.st8{fill:#1A8163;}
	.st9{fill:#1F9572;}
	.st10{fill:#127754;}
	.st11{fill:#00517C;}
	.st12{fill:#15324B;}
	.st13{fill:url(#SVGID_1_);}
	.st14{fill:url(#SVGID_2_);}
	.st15{fill:url(#SVGID_3_);}
	.st16{fill:url(#SVGID_4_);}
	.st17{fill:url(#SVGID_5_);}
	.st18{fill:none;stroke:#127754;stroke-miterlimit:10;}
	.st19{fill:#9F6C11;}
	.st20{fill:#BD8015;}
	.st21{fill:#FFFFFF;}
	.st22{fill:#E6F5FE;}
	.st23{fill:#D97F10;}
	.st24{opacity:0.29;fill:#272220;}
	.st25{fill:#C9DFEC;}
	.st26{fill:url(#SVGID_6_);}
	.st27{fill:url(#SVGID_7_);}
	.st28{fill:url(#SVGID_8_);}
</style>
<path class="st0" d="M1114.2,299.1L1114.2,299.1c-36.4-0.6-65.6-30.2-65.6-66.7v-16.3c0-17.5-6.9-34.3-19.2-46.8l-44.7-45.4
	C972,111.1,954.9,104,937.1,104h-50.2c-17.7,0-34.6-7-47.1-19.5l-64.9-64.9C762.3,7,745.3,0,727.6,0H431.2
	c-28.1,0-50.8,22.8-50.8,50.8v0c0,28.1-22.8,50.8-50.8,50.8H295h-63.3c-13.8,0-24.9,11.2-24.9,24.9s-11.2,24.9-24.9,24.9h-9.5h-9.5
	c-11.9,0-21.6,9.7-21.6,21.6v0c0,11.9-9.7,21.6-21.6,21.6H93c-17.4,0-31.5,14.1-31.5,31.5v0c0,17.4,14.1,31.5,31.5,31.5h3.5
	c12.3,0,22.2,10,22.2,22.2v0c0,9.7-6.2,17.9-14.8,21c-4.2,0.8-8.5,1.3-12.9,1.3h-3.7H63.8c-2,0-3.8,0.2-5.4,0.6
	C25.6,307,0,335.2,0,369.2v0c0,30.9,21.1,57,49.7,64.7c5.1,1.6,10.5,2.5,16.2,2.5h51.4l0.1,0.1h224l0.1-0.1l493.9,0v0.1h221.8h57
	c37.9,0,68.7-30.7,68.7-68.7v0C1182.8,329.8,1152.1,299.1,1114.2,299.1z"/>
<circle class="st1" cx="634.2" cy="168.2" r="42.7"/>
<g>
	<polygon class="st2" points="471.4,273.4 554,190.9 597.4,234.3 651.3,180.4 680.7,209.8 705,185.5 741.5,222 768.9,194.7 
		811.8,237.6 829.8,226.5 847.2,237.6 867.8,241.6 902.7,206.6 917,220.9 929.9,208 957.4,235.6 999.5,298 592.8,315.6 484.8,315.6 
			"/>
	<path class="st3" d="M973,436.2H154.3V292.6H973l9.9,0c15.9,0,30,10.4,34.5,25.7l1.3,26.2l-13.2,91.7H973z"/>
	<polygon class="st4" points="514.8,230 536.8,223.6 553.1,214.1 564.3,224.1 579.7,216.6 554,190.9 	"/>
	<polygon class="st4" points="597.4,234.3 616.7,236.4 641.4,231.4 661.4,197.1 674.5,203.6 651.3,178.8 	"/>
	<polygon class="st4" points="680.7,209.8 695.9,206.6 703.4,210.9 712.7,201.1 721.8,202.3 705,185.5 	"/>
	<polygon class="st4" points="745.2,218.4 758.4,215.6 766.2,208.4 772.7,215.6 786.2,215.9 789.1,214.9 768.9,194.7 	"/>
	<polygon class="st4" points="867.8,241.6 889.8,238.5 901.3,227.3 914,230.8 924,224.8 942.8,238.5 957.4,235.6 929.9,208 
		917,220.9 902.7,206.6 	"/>
	<polygon class="st2" points="496.1,265.8 448,217.8 406.2,259.6 388.1,241.5 376,253.6 338,267.6 300.7,238.7 275.2,253.1 
		251.2,232.7 221.4,267.6 195.1,264 184.1,292.7 499.1,292.7 	"/>
	<polygon class="st4" points="424,241.8 442.4,247.3 454.3,239.6 476.9,247.3 448,217.8 	"/>
	<polygon class="st4" points="388.1,241.5 398.1,251.5 394.8,257.7 384.9,251.8 381.9,255.8 376,253.6 	"/>
	<polygon class="st4" points="300.7,238.7 320.3,253.9 312.2,257.7 310.5,249.6 302.8,251.5 288.8,249.6 275.2,253.1 	"/>
	<path class="st4" d="M251.2,232.7c0,0-14.7,17.3-14.4,16.9c0.2-0.4,8.2,0,8.2,0l5.1-3.3h7.3l6.3-2.9L251.2,232.7z"/>
	<polygon class="st4" points="195.1,264 208.4,265.8 210.5,273.4 202.8,271.8 196.8,277.1 189.7,277.1 	"/>
	<polygon class="st5" points="460.7,279.7 550.5,272.9 585.6,263.1 607.8,253.7 688.7,292.7 433.7,292.3 	"/>
	<polygon class="st3" points="234.6,292.7 272.7,276.2 296.3,285.6 305.5,271.1 325.8,274.9 352.6,263.6 375.7,285.6 395.6,285.6 
		416.9,274.4 438.3,284.5 451.4,271.1 472.3,285.6 526.4,265.4 562.9,282.1 582.5,265.4 606.3,277.1 619.5,265.4 666.3,292.7 	"/>
	<path class="st5" d="M270.6,292.7h379v0c-0.6,29.9-25.1,53.8-55,53.8H339.2c-20.2,0-39.1-10-50.4-26.8L270.6,292.7z"/>
	<g>
		<g>
			<polygon class="st3" points="562.2,309.7 568.5,322 571.9,322 571.9,320.9 569.5,320.7 568.9,320.7 563.7,311 			"/>
			<g>
				<path class="st3" d="M562.3,308.1l-0.1,4.6v7.6h0.2c0.9,0,1.6,0.7,1.6,1.6v0.2h-4.3V314l-0.8-1.5l-1.6,4.2h-4.7v0.4
					c0,0.9-0.7,1.6-1.6,1.6l0,0v-4h4.4l1.1-3.2l-0.8-0.6l0.6-1.8l-0.8-0.4l1.6-4.8l6.3,0.8l2.5,9.1l-1.5,0.3l-2.4-4.7L562.3,308.1z"
					/>
				<polygon class="st3" points="562.9,302.6 562.6,304.8 559.2,304.8 560.3,302.1 561.9,301.4 				"/>
			</g>
		</g>
		<path class="st3" d="M610.1,322H622l0,0c0-5.2-4.2-9.4-9.4-9.4h-2.5V322z"/>
		<path class="st3" d="M596.1,305.1l0.5,3.2l1.8,0.5l0.9,1.7l-2.1,2.8l-0.8,1l1.7,1.5l2.7-2.5l-0.5,2.4l0.1,4.2h-1
			c-1,0-1.8,0.8-1.8,1.8l0,0l5,0l0.3-3.8l2.6-3.7l-3.1-7.9l-2.4-0.1l-0.1-2.2L596.1,305.1z"/>
		<polygon class="st3" points="601.9,307.3 594.4,322 590.3,322 590.3,320.6 593.2,320.4 593.9,320.4 600,308.9 		"/>
		<path class="st3" d="M605.4,314.2l2.5,7.5h-4.3v-0.5c0-0.7,0.5-1.2,1.2-1.2l0.2-0.1l-2-4.3L605.4,314.2z"/>
	</g>
	<polygon class="st6" points="354.5,403.6 380.2,403.6 365.2,367.3 380.2,367.3 347.8,284 315.4,367.3 330.4,367.3 315.4,403.6 
		341.1,403.6 344.6,410.6 351.1,410.6 	"/>
	<polygon class="st6" points="395,417.3 420.7,417.3 405.7,381 420.7,381 388.3,297.7 355.9,381 370.9,381 355.9,417.3 381.6,417.3 
		385.1,424.3 391.6,424.3 	"/>
	<polygon class="st6" points="434.8,417.3 460.5,417.3 445.5,381 460.5,381 428.1,297.7 395.7,381 410.7,381 395.7,417.3 
		421.4,417.3 424.9,424.3 431.4,424.3 	"/>
	<polygon class="st6" points="505.5,417.3 535.5,417.3 518,381 535.5,381 497.7,297.7 459.8,381 477.4,381 459.8,417.3 489.9,417.3 
		493.9,424.3 501.5,424.3 	"/>
	<polygon class="st6" points="535.8,421 565.8,421 548.3,406.5 565.8,406.5 528,323.1 490.1,406.5 507.6,406.5 490.1,421 520.1,421 
		524.2,428 531.8,428 	"/>
	<polygon class="st6" points="567.6,421.6 595,421.6 579,408.4 595,408.4 560.5,332.3 526,408.4 542,408.4 526,421.6 553.4,421.6 
		557.1,428 564,428 	"/>
	<polygon class="st6" points="373.9,390.6 395.4,390.6 382.8,360.3 403.8,361.9 376.8,292.5 341.3,360.3 353.8,360.3 341.3,390.6 
		362.8,390.6 365.7,396.4 371.1,396.4 	"/>
	<polygon class="st6" points="415.3,396.1 436.7,396.1 424.2,365.9 436.7,365.9 409.7,296.5 382.7,365.9 395.2,365.9 382.7,396.1 
		404.1,396.1 407,402 412.5,402 	"/>
	<polygon class="st6" points="113.6,408.8 106.1,417.2 396.5,417.2 368.3,387.5 286,389.7 	"/>
	<polygon class="st6" points="537.7,345.8 541.8,336.8 548.6,368.6 539.8,378.8 	"/>
	<polygon class="st6" points="503.8,321.7 511,310 518.9,344.1 503.8,343 	"/>
	<polygon class="st6" points="187.4,410 213.6,410 198.3,373.2 213.6,373.2 180.6,288.7 147.7,373.2 163,373.2 147.7,410 173.8,410 
		177.4,417.2 184,417.2 	"/>
	<polygon class="st6" points="210.8,409.1 240.4,409.1 223.1,367.4 240.4,367.4 203.1,271.8 165.9,367.4 183.2,367.4 165.9,409.1 
		195.4,409.1 199.5,417.2 206.9,417.2 	"/>
	<polygon class="st6" points="307,407.4 342.7,407.4 321.9,357.1 342.7,357.1 297.7,241.5 252.7,357.1 273.6,357.1 252.7,407.4 
		288.4,407.4 293.3,417.2 302.3,417.2 	"/>
	<polygon class="st6" points="230.1,408.8 260.9,408.8 242.9,365.4 260.9,365.4 222.1,265.8 183.4,365.4 201.3,365.4 183.4,408.8 
		214.1,408.8 218.3,417.2 226.1,417.2 	"/>
	<polygon class="st6" points="263.3,409.8 290.1,409.8 274.5,372 290.1,372 256.3,285.1 222.5,372 238.2,372 222.5,409.8 
		249.3,409.8 253,417.2 259.8,417.2 	"/>
	<polygon class="st6" points="250.1,411.3 271.5,411.3 259,381.1 271.5,381.1 244.5,311.7 217.5,381.1 230,381.1 217.5,411.3 
		238.9,411.3 241.8,417.2 247.2,417.2 	"/>
	<polygon class="st6" points="264.5,411.3 286,411.3 273.5,381.1 286,381.1 259,311.7 231.9,381.1 244.5,381.1 231.9,411.3 
		253.4,411.3 256.3,417.2 261.7,417.2 	"/>
	<polygon class="st6" points="303,411.3 324.4,411.3 311.9,381.1 324.4,381.1 297.4,311.7 270.4,381.1 282.9,381.1 270.4,411.3 
		291.8,411.3 294.7,417.2 300.1,417.2 	"/>
	<polygon class="st6" points="325.9,371.5 347.3,371.5 334.8,341.3 347.3,341.3 320.3,271.9 293.3,341.3 305.8,341.3 293.3,371.5 
		314.7,371.5 317.6,377.4 323.1,377.4 	"/>
	<polygon class="st6" points="282.9,371.5 304.3,371.5 291.8,341.3 304.3,341.3 277.3,271.9 250.3,341.3 262.8,341.3 250.3,371.5 
		271.7,371.5 274.6,377.4 280.1,377.4 	"/>
	<polygon class="st6" points="368.3,387.5 286,389.7 187.7,400.6 173.2,365.4 191.1,365.4 152.4,265.8 113.6,365.4 131.6,365.4 
		113.6,408.8 105.8,417.6 148.5,417.2 156.3,417.2 396.5,417.2 	"/>
</g>
<g>
	<g>
		<polygon class="st5" points="790.7,297.3 782.8,297.3 786.8,168.2 		"/>
		<rect x="779" y="205.5" class="st5" width="15.4" height="15.8"/>
		<rect x="777.3" y="209.7" class="st5" width="18.8" height="7.4"/>
	</g>
	<path class="st5" d="M761.9,273.7h41l22.7-17.7l44.2,3.2l9.2,15.6l27.1-15.6l18.3,4.8l22.9,12.6l14.1-8.4c0,0,6.2,5.9,9.6,7.2
		c3.4,1.3,19.2,21.8,19.2,21.8l-189.7-5.7l-38.3-14.4L761.9,273.7z"/>
	<polygon class="st5" points="708.1,292.7 712.4,287.7 712.2,277.3 724.3,277.3 724.3,260.8 730.4,260.8 730.4,267.8 740.1,267.8 
		740.1,252.3 755.1,252.3 755.1,267.1 755.1,274.9 764.1,274.9 764.1,267.1 772.7,267.1 772.7,274.6 796.1,274.6 796.1,264.2 
		808.7,264.2 808.7,272 819.6,272 819.6,259.7 819.6,244.6 828.7,244.6 828.7,252.3 833.3,252.3 838.1,247.5 845.7,255.1 
		845.7,268.6 855.1,278 861.8,271.3 871.1,280.6 886.4,297.3 	"/>
	<polygon class="st3" points="869.5,284.4 879.1,274.9 879.1,264.1 893.1,264.1 893.1,280.6 908.8,280.6 914.1,275.3 922.2,283.3 
		932.6,283.3 932.6,274.2 940.6,274.2 940.6,280.6 949.9,280.6 956.6,287.3 982.9,287.3 986.5,287.9 990.6,285 990.6,297.3 
		854.1,297.3 869.1,280.8 	"/>
	<polygon class="st3" points="704,297.3 717.7,290.1 720.3,285.6 728.7,286.2 737.2,286.2 737.2,278.5 748.3,278.5 751.2,285.3 
		760.4,285.6 760.4,292.6 766.9,292.6 766.9,280 771.1,280 771.1,293.3 777.3,293.3 777.3,286.2 782.8,286.2 782.8,290.8 
		800.6,290.8 808.8,282.6 813.6,287.5 836.7,287.5 836.7,291.6 845.5,291.6 845.5,285.6 855.2,285.6 866.7,297.3 	"/>
</g>
<g>
	<polygon class="st6" points="861.1,375.8 885.2,375.8 871.2,341.9 885.2,341.9 854.9,263.9 824.5,341.9 838.6,341.9 824.5,375.8 
		848.6,375.8 851.9,382.4 858,382.4 	"/>
	<polygon class="st6" points="847.7,436.3 984.5,436.3 962.4,327.1 841.1,325 810.8,403 824.8,403 811.1,436.3 835.2,436.3 	"/>
	<polygon class="st6" points="1048.7,436.3 920.7,436.3 942.9,327.1 1045.7,292.7 1085.7,403 1071.6,403 1085.4,436.3 1061.3,436.3 
			"/>
	<polygon class="st6" points="932.7,375.8 956.8,375.8 942.7,341.9 956.8,341.9 926.4,263.9 896.1,341.9 910.1,341.9 896.1,375.8 
		920.2,375.8 923.4,382.4 929.5,382.4 	"/>
	<polygon class="st6" points="853.1,376.4 869.6,376.4 859.9,353.2 869.6,353.2 848.8,299.8 828,353.2 837.6,353.2 828,376.4 
		844.5,376.4 846.7,380.9 850.9,380.9 	"/>
	<polygon class="st6" points="882.4,374.9 904.3,374.9 891.5,344.1 904.3,344.1 876.7,273.3 849.1,344.1 861.9,344.1 849.1,374.9 
		871,374.9 874,380.9 879.5,380.9 	"/>
	<polygon class="st6" points="947.3,374.4 971.1,374.4 957.2,340.9 971.1,340.9 941.1,263.9 911.2,340.9 925.1,340.9 911.2,374.4 
		934.9,374.4 938.2,380.9 944.2,380.9 	"/>
	<polygon class="st6" points="995.9,357.3 1019.7,357.3 1005.8,334 1019.7,334 989.7,261.3 959.8,334 973.6,334 959.8,357.3 
		983.5,357.3 986.8,361.8 992.8,361.8 	"/>
	<polygon class="st6" points="1024.7,357.3 1048.5,357.3 1034.6,334 1048.5,334 1018.5,261.3 988.6,334 1002.4,334 988.6,357.3 
		1012.3,357.3 1015.6,361.8 1021.6,361.8 	"/>
	<polygon class="st6" points="904.1,376 922.2,376 911.6,350.6 922.2,350.6 899.4,292.2 876.7,350.6 887.2,350.6 876.7,376 
		894.7,376 897.2,380.9 901.7,380.9 	"/>
	<polygon class="st6" points="969.7,330.4 987.7,330.4 977.2,305 987.7,305 965,246.6 942.3,305 952.8,305 942.3,330.4 960.3,330.4 
		962.8,335.3 967.3,335.3 	"/>
	<g>
		<path class="st7" d="M1032.2,368.6l-19,15.8l-1.8-33.1l-2.7,0l-1.8,32.9l-18.7-15.6l14.5,17.5c2.3,2.8,3.4,6.4,3.1,10l-1.1,40.4
			h10.7l-1.1-40c-0.3-3.6,0.8-7.2,3.1-10L1032.2,368.6z"/>
		<polygon class="st7" points="1009.9,327.5 1007,331.4 1004.3,331.3 1006,341.7 1000.7,335.6 998.6,338.9 993.8,338.3 995.5,342.6 
			994.4,345.3 1003.6,349.3 1003,353.1 1008.4,351.2 1011.5,351.3 1016.8,353.4 1016.3,349.6 1025.7,346 1024.7,343.3 1026.6,339.1 
			1021.8,339.4 1019.8,336 1014.2,341.9 1016.4,331.6 1013.7,331.5 1011,327.5 		"/>
		<g>
			<polygon class="st7" points="988.6,307.3 992.6,308.8 994.6,307.5 998.3,316.1 999.3,308.9 1002.5,310.3 1005.8,307.7 
				1006.6,311.7 1008.8,313.2 1003.8,320.6 1006.1,323.1 1001.2,324.4 998.9,325.9 995.9,330 994.4,327 985.6,328.9 985.1,326.3 
				981.6,324.1 985.3,322 985.2,318.5 992.2,320.2 985.6,313.5 987.6,312.2 987.7,307.9 			"/>
			<polygon class="st7" points="1031.8,307.3 1027.8,308.8 1025.9,307.5 1022.1,316.1 1021.1,308.9 1017.9,310.3 1014.6,307.7 
				1013.8,311.7 1011.6,313.2 1016.6,320.6 1014.3,323.1 1019.2,324.4 1021.5,325.9 1024.5,330 1026,327 1034.8,328.9 1035.3,326.3 
				1038.8,324.1 1035.1,322 1035.2,318.5 1028.2,320.2 1034.8,313.5 1032.8,312.2 1032.7,307.9 			"/>
		</g>
		<g>
			<polygon class="st7" points="1050.3,335.2 1046,335.6 1044.5,333.8 1038.6,341.1 1039.5,333.9 1036,334.5 1033.5,331 
				1031.7,334.7 1029.2,335.5 1032.1,344.1 1029.2,345.9 1033.6,348.3 1035.5,350.5 1037.2,355.2 1039.5,352.6 1047.5,356.8 
				1048.7,354.4 1052.6,353.2 1049.5,350.2 1050.6,346.8 1043.4,346.6 1051.5,342 1050,340.2 1051,336 			"/>
			<polygon class="st7" points="970.1,335.2 974.4,335.6 975.9,333.8 981.8,341.1 980.9,333.9 984.4,334.5 986.9,331 988.7,334.7 
				991.2,335.5 988.3,344.1 991.2,345.9 986.8,348.3 984.9,350.5 983.2,355.2 980.9,352.6 972.9,356.8 971.7,354.4 967.8,353.2 
				970.9,350.2 969.8,346.8 977,346.6 968.9,342 970.4,340.2 969.4,336 			"/>
		</g>
		<g>
			<polygon class="st7" points="1041.7,359.2 1037.5,359.6 1035.9,357.8 1030,365.1 1030.9,358 1027.5,358.5 1025,355 1023.2,358.7 
				1020.7,359.6 1023.5,368.1 1020.7,369.9 1025.1,372.4 1026.9,374.5 1028.7,379.2 1030.9,376.7 1038.9,380.8 1040.1,378.4 
				1044,377.2 1041,374.2 1042,370.9 1034.8,370.7 1042.9,366 1041.4,364.2 1042.4,360 			"/>
			<polygon class="st7" points="978.7,359.2 983,359.6 984.5,357.8 990.4,365.1 989.5,358 992.9,358.5 995.4,355 997.2,358.7 
				999.8,359.6 996.9,368.1 999.7,369.9 995.3,372.4 993.5,374.5 991.7,379.2 989.5,376.7 981.5,380.8 980.3,378.4 976.4,377.2 
				979.4,374.2 978.4,370.9 985.6,370.7 977.5,366 979,364.2 978,360 			"/>
		</g>
	</g>
	<g>
		<path class="st8" d="M976.8,352l-18.5,15.4l-1.7-32.2l-2.6,0l-1.8,32L934,352l14.1,17c2.3,2.7,3.4,6.2,3,9.8L950,418h10.4
			l-1.1-38.9c-0.3-3.5,0.8-7,3-9.8L976.8,352z"/>
		<polygon class="st8" points="955.1,312.1 952.3,315.8 949.7,315.8 951.4,325.9 946.2,319.9 944.1,323.1 939.5,322.6 941.1,326.8 
			940,329.4 949,333.3 948.4,337 953.6,335.2 956.7,335.2 961.8,337.3 961.3,333.6 970.5,330.1 969.5,327.4 971.3,323.3 
			966.7,323.6 964.7,320.3 959.3,326 961.4,316 958.9,316 956.2,312.1 		"/>
		<g>
			<polygon class="st8" points="934.3,292.4 938.3,293.9 940.2,292.6 943.8,301 944.8,294 947.9,295.4 951.1,292.8 951.9,296.7 
				954,298.1 949.2,305.4 951.4,307.8 946.6,309 944.4,310.5 941.5,314.5 940.1,311.6 931.5,313.4 931,310.9 927.6,308.7 
				931.2,306.7 931.1,303.3 937.9,304.9 931.5,298.5 933.4,297.2 933.5,293 			"/>
			<polygon class="st8" points="976.5,292.4 972.5,293.9 970.6,292.6 967,301 966,294 962.9,295.4 959.7,292.8 958.9,296.7 
				956.8,298.1 961.7,305.4 959.4,307.8 964.2,309 966.4,310.5 969.3,314.5 970.7,311.6 979.3,313.4 979.8,310.9 983.2,308.7 
				979.6,306.7 979.7,303.3 972.9,304.9 979.3,298.5 977.4,297.2 977.3,293 			"/>
		</g>
		<g>
			<polygon class="st8" points="994.4,319.6 990.3,319.9 988.8,318.2 983,325.3 983.9,318.3 980.5,318.8 978.1,315.5 976.4,319.1 
				973.9,319.9 976.7,328.2 973.9,330 978.2,332.3 980,334.4 981.7,339 983.9,336.5 991.7,340.6 992.8,338.3 996.7,337.1 
				993.7,334.2 994.7,330.9 987.7,330.7 995.6,326.1 994.1,324.4 995.1,320.3 			"/>
			<polygon class="st8" points="916.4,319.6 920.5,319.9 922.1,318.2 927.8,325.3 926.9,318.3 930.3,318.8 932.7,315.5 934.5,319.1 
				936.9,319.9 934.1,328.2 936.9,330 932.6,332.3 930.8,334.4 929.1,339 926.9,336.5 919.2,340.6 918,338.3 914.2,337.1 
				917.1,334.2 916.1,330.9 923.1,330.7 915.2,326.1 916.7,324.4 915.7,320.3 			"/>
		</g>
		<g>
			<polygon class="st8" points="986.1,342.9 981.9,343.3 980.4,341.6 974.7,348.7 975.6,341.7 972.2,342.2 969.8,338.8 968,342.4 
				965.6,343.3 968.4,351.6 965.6,353.3 969.9,355.7 971.7,357.8 973.4,362.4 975.5,359.9 983.3,363.9 984.5,361.6 988.3,360.4 
				985.4,357.5 986.4,354.3 979.3,354.1 987.3,349.5 985.8,347.8 986.8,343.7 			"/>
			<polygon class="st8" points="924.7,342.9 928.9,343.3 930.4,341.6 936.1,348.7 935.2,341.7 938.6,342.2 941,338.8 942.8,342.4 
				945.2,343.3 942.4,351.6 945.2,353.3 940.9,355.7 939.2,357.8 937.4,362.4 935.3,359.9 927.5,363.9 926.3,361.6 922.5,360.4 
				925.5,357.5 924.4,354.3 931.5,354.1 923.6,349.5 925.1,347.8 924.1,343.7 			"/>
		</g>
	</g>
	<g>
		<path class="st9" d="M939.6,365.5l-14.7,12.2l-1.4-25.6l-2.1,0l-1.4,25.5l-14.5-12.1l11.3,13.5c1.8,2.2,2.7,5,2.4,7.8l-0.9,31.3
			h8.3l-0.8-31c-0.3-2.8,0.6-5.6,2.4-7.8L939.6,365.5z"/>
		<polygon class="st9" points="922.2,333.7 920,336.7 917.9,336.6 919.3,344.7 915.2,339.9 913.5,342.5 909.8,342.1 911.1,345.4 
			910.2,347.5 917.4,350.6 916.9,353.5 921.1,352.1 923.5,352.1 927.6,353.7 927.2,350.8 934.5,348 933.7,345.9 935.2,342.6 
			931.5,342.9 929.9,340.2 925.6,344.8 927.3,336.8 925.2,336.8 923.1,333.7 		"/>
		<g>
			<polygon class="st9" points="905.7,318 908.8,319.2 910.4,318.1 913.3,324.8 914,319.3 916.5,320.4 919.1,318.3 919.7,321.4 
				921.4,322.6 917.5,328.3 919.3,330.3 915.5,331.2 913.7,332.5 911.4,335.6 910.3,333.3 903.5,334.7 903,332.7 900.3,331 
				903.2,329.4 903.1,326.7 908.6,328 903.4,322.8 905,321.8 905,318.5 			"/>
			<polygon class="st9" points="939.3,318 936.1,319.2 934.6,318.1 931.7,324.8 930.9,319.3 928.4,320.4 925.9,318.3 925.3,321.4 
				923.6,322.6 927.5,328.3 925.7,330.3 929.5,331.2 931.3,332.5 933.6,335.6 934.7,333.3 941.5,334.7 941.9,332.7 944.6,331 
				941.8,329.4 941.9,326.7 936.4,328 941.5,322.8 940,321.8 939.9,318.5 			"/>
		</g>
		<g>
			<polygon class="st9" points="953.6,339.6 950.2,339.9 949,338.5 944.5,344.2 945.2,338.6 942.5,339.1 940.6,336.4 939.2,339.2 
				937.2,339.9 939.5,346.5 937.2,347.9 940.6,349.8 942.1,351.5 943.4,355.1 945.2,353.1 951.4,356.3 952.3,354.5 955.3,353.6 
				953,351.3 953.8,348.7 948.2,348.5 954.5,344.9 953.3,343.5 954.1,340.2 			"/>
			<polygon class="st9" points="891.4,339.6 894.7,339.9 895.9,338.5 900.5,344.2 899.8,338.6 902.5,339.1 904.4,336.4 905.8,339.2 
				907.8,339.9 905.5,346.5 907.7,347.9 904.3,349.8 902.9,351.5 901.5,355.1 899.8,353.1 893.6,356.3 892.7,354.5 889.6,353.6 
				892,351.3 891.2,348.7 896.8,348.5 890.5,344.9 891.7,343.5 890.9,340.2 			"/>
		</g>
		<g>
			<polygon class="st9" points="946.9,358.2 943.6,358.5 942.4,357.1 937.9,362.8 938.6,357.3 935.9,357.7 933.9,355 932.5,357.8 
				930.6,358.5 932.8,365.1 930.6,366.5 934,368.4 935.4,370.1 936.8,373.7 938.5,371.7 944.7,375 945.7,373.1 948.7,372.2 
				946.3,369.9 947.2,367.3 941.5,367.1 947.9,363.5 946.7,362.1 947.5,358.9 			"/>
			<polygon class="st9" points="898.1,358.2 901.4,358.5 902.6,357.1 907.1,362.8 906.4,357.3 909.1,357.7 911,355 912.4,357.8 
				914.4,358.5 912.2,365.1 914.4,366.5 911,368.4 909.6,370.1 908.2,373.7 906.5,371.7 900.3,375 899.3,373.1 896.3,372.2 
				898.6,369.9 897.8,367.3 903.4,367.1 897.1,363.5 898.3,362.1 897.5,358.9 			"/>
		</g>
	</g>
</g>
<g>
	<g>
		<path class="st9" d="M572.8,376.7l-11.6,9.6l-1.1-20.1l-1.6,0l-1.1,20l-11.4-9.5l8.8,10.6c1.4,1.7,2.1,3.9,1.9,6.1L556,418h6.5
			l-0.7-24.4c-0.2-2.2,0.5-4.4,1.9-6.1L572.8,376.7z"/>
		<polygon class="st9" points="559.1,351.7 557.4,354.1 555.8,354.1 556.8,360.4 553.6,356.6 552.3,358.7 549.4,358.3 550.4,360.9 
			549.7,362.6 555.4,365 555,367.3 558.2,366.2 560.1,366.2 563.4,367.5 563.1,365.2 568.8,363 568.2,361.3 569.3,358.8 566.4,359 
			565.2,356.9 561.8,360.5 563.1,354.2 561.5,354.2 559.9,351.8 		"/>
		<g>
			<polygon class="st9" points="546.2,339.4 548.6,340.3 549.8,339.5 552.1,344.8 552.7,340.4 554.7,341.3 556.7,339.7 557.2,342.1 
				558.5,343 555.4,347.6 556.8,349.1 553.9,349.8 552.5,350.8 550.7,353.3 549.8,351.4 544.4,352.6 544.1,351 542,349.6 
				544.2,348.4 544.1,346.2 548.4,347.3 544.4,343.2 545.6,342.4 545.6,339.8 			"/>
			<polygon class="st9" points="572.5,339.4 570.1,340.3 568.9,339.5 566.6,344.8 566,340.4 564,341.3 562,339.7 561.5,342.1 
				560.2,343 563.3,347.6 561.9,349.1 564.8,349.8 566.3,350.8 568.1,353.3 569,351.4 574.3,352.6 574.6,351 576.8,349.6 
				574.5,348.4 574.6,346.2 570.3,347.3 574.3,343.2 573.1,342.4 573.1,339.8 			"/>
		</g>
		<g>
			<polygon class="st9" points="583.8,356.4 581.2,356.7 580.2,355.6 576.7,360 577.2,355.6 575.1,356 573.6,353.9 572.5,356.1 
				570.9,356.6 572.7,361.8 570.9,362.9 573.6,364.4 574.7,365.7 575.8,368.6 577.2,367 582,369.6 582.8,368.1 585.2,367.4 
				583.3,365.6 584,363.5 579.5,363.4 584.5,360.5 583.6,359.4 584.2,356.9 			"/>
			<polygon class="st9" points="534.9,356.4 537.5,356.7 538.5,355.6 542.1,360 541.5,355.6 543.6,356 545.1,353.9 546.2,356.1 
				547.8,356.6 546,361.8 547.8,362.9 545.1,364.4 544,365.7 542.9,368.6 541.5,367 536.7,369.6 535.9,368.1 533.5,367.4 
				535.4,365.6 534.8,363.5 539.2,363.4 534.2,360.5 535.1,359.4 534.5,356.9 			"/>
		</g>
		<g>
			<polygon class="st9" points="578.6,371 575.9,371.3 575,370.2 571.4,374.6 572,370.3 569.9,370.6 568.4,368.5 567.2,370.7 
				565.7,371.3 567.5,376.4 565.7,377.6 568.4,379 569.5,380.3 570.6,383.2 572,381.7 576.8,384.2 577.6,382.8 580,382 578.1,380.2 
				578.7,378.1 574.3,378 579.3,375.2 578.3,374.1 579,371.5 			"/>
			<polygon class="st9" points="540.2,371 542.8,371.3 543.7,370.2 547.3,374.6 546.7,370.3 548.9,370.6 550.4,368.5 551.5,370.7 
				553,371.3 551.2,376.4 553,377.6 550.3,379 549.2,380.3 548.1,383.2 546.8,381.7 541.9,384.2 541.2,382.8 538.8,382 540.6,380.2 
				540,378.1 544.4,378 539.4,375.2 540.4,374.1 539.7,371.5 			"/>
		</g>
	</g>
	<g>
		<path class="st8" d="M390,337L374.4,350l-1.4-27.1l-2.2,0l-1.5,26.9L353.9,337l11.9,14.3c1.9,2.3,2.8,5.2,2.5,8.2l-0.9,33h8.7
			l-0.9-32.8c-0.3-3,0.6-5.9,2.5-8.2L390,337z"/>
		<polygon class="st8" points="371.6,303.4 369.3,306.6 367.1,306.5 368.5,315 364.2,310 362.4,312.7 358.5,312.3 359.9,315.8 
			359,318 366.6,321.3 366,324.4 370.4,322.9 373,322.9 377.3,324.6 376.9,321.5 384.6,318.6 383.8,316.3 385.3,312.9 381.4,313.1 
			379.8,310.4 375.2,315.2 377,306.8 374.8,306.7 372.6,303.5 		"/>
		<g>
			<polygon class="st8" points="354.2,286.9 357.5,288.1 359.1,287 362.2,294.1 363,288.2 365.7,289.4 368.4,287.2 369,290.5 
				370.8,291.7 366.7,297.8 368.6,299.9 364.5,300.9 362.6,302.2 360.2,305.5 359,303 351.8,304.6 351.4,302.4 348.5,300.6 
				351.6,298.9 351.5,296 357.2,297.4 351.8,292 353.4,290.9 353.5,287.4 			"/>
			<polygon class="st8" points="389.6,286.9 386.3,288.1 384.7,287 381.7,294.1 380.9,288.2 378.2,289.4 375.5,287.2 374.9,290.5 
				373.1,291.7 377.2,297.8 375.3,299.9 379.3,300.9 381.2,302.2 383.6,305.5 384.8,303 392,304.6 392.5,302.4 395.3,300.6 
				392.3,298.9 392.4,296 386.6,297.4 392.1,292 390.4,290.9 390.4,287.4 			"/>
		</g>
		<g>
			<polygon class="st8" points="404.7,309.7 401.3,310 400,308.6 395.2,314.6 395.9,308.7 393.1,309.1 391,306.3 389.6,309.3 
				387.5,310 389.9,317 387.5,318.5 391.1,320.5 392.6,322.2 394.1,326.1 395.9,324 402.4,327.4 403.4,325.5 406.6,324.5 404.1,322 
				405,319.3 399.1,319.1 405.7,315.3 404.5,313.8 405.3,310.4 			"/>
			<polygon class="st8" points="339.1,309.7 342.6,310 343.9,308.6 348.7,314.6 347.9,308.7 350.8,309.1 352.8,306.3 354.3,309.3 
				356.4,310 354,317 356.4,318.5 352.7,320.5 351.3,322.2 349.8,326.1 348,324 341.4,327.4 340.4,325.5 337.2,324.5 339.7,322 
				338.9,319.3 344.8,319.1 338.1,315.3 339.4,313.8 338.6,310.4 			"/>
		</g>
		<g>
			<polygon class="st8" points="397.7,329.4 394.2,329.7 393,328.2 388.2,334.2 388.9,328.4 386.1,328.8 384,326 382.5,329 
				380.5,329.7 382.9,336.7 380.5,338.1 384.1,340.2 385.6,341.9 387,345.8 388.9,343.7 395.4,347.1 396.4,345.1 399.6,344.1 
				397.1,341.7 398,338.9 392.1,338.8 398.7,334.9 397.5,333.5 398.3,330.1 			"/>
			<polygon class="st8" points="346.1,329.4 349.6,329.7 350.9,328.2 355.7,334.2 355,328.4 357.8,328.8 359.8,326 361.3,329 
				363.4,329.7 361,336.7 363.4,338.1 359.8,340.2 358.3,341.9 356.8,345.8 355,343.7 348.5,347.1 347.5,345.1 344.2,344.1 
				346.7,341.7 345.9,338.9 351.8,338.8 345.1,334.9 346.4,333.5 345.6,330.1 			"/>
		</g>
	</g>
	<g>
		<path class="st6" d="M640.7,376.7l-11.6,9.6l-1.1-20.1l-1.6,0l-1.1,20l-11.4-9.5l8.8,10.6c1.4,1.7,2.1,3.9,1.9,6.1L624,418h6.5
			l-0.7-24.4c-0.2-2.2,0.5-4.4,1.9-6.1L640.7,376.7z"/>
		<polygon class="st6" points="627.1,351.7 625.4,354.1 623.7,354.1 624.8,360.4 621.6,356.6 620.2,358.7 617.4,358.3 618.4,360.9 
			617.7,362.6 623.3,365 623,367.3 626.2,366.2 628.1,366.2 631.3,367.5 631,365.2 636.8,363 636.1,361.3 637.3,358.8 634.4,359 
			633.2,356.9 629.8,360.5 631.1,354.2 629.5,354.2 627.8,351.8 		"/>
		<g>
			<polygon class="st6" points="614.2,339.4 616.6,340.3 617.8,339.5 620.1,344.8 620.7,340.4 622.7,341.3 624.7,339.7 625.1,342.1 
				626.5,343 623.4,347.6 624.8,349.1 621.8,349.8 620.4,350.8 618.6,353.3 617.7,351.4 612.4,352.6 612,351 609.9,349.6 
				612.2,348.4 612.1,346.2 616.4,347.3 612.4,343.2 613.6,342.4 613.6,339.8 			"/>
			<polygon class="st6" points="640.5,339.4 638.1,340.3 636.9,339.5 634.6,344.8 634,340.4 632,341.3 630,339.7 629.5,342.1 
				628.2,343 631.2,347.6 629.8,349.1 632.8,349.8 634.2,350.8 636,353.3 636.9,351.4 642.3,352.6 642.6,351 644.7,349.6 
				642.5,348.4 642.5,346.2 638.3,347.3 642.3,343.2 641.1,342.4 641,339.8 			"/>
		</g>
		<g>
			<polygon class="st6" points="651.7,356.4 649.1,356.7 648.2,355.6 644.6,360 645.2,355.6 643.1,356 641.5,353.9 640.4,356.1 
				638.9,356.6 640.7,361.8 638.9,362.9 641.6,364.4 642.7,365.7 643.8,368.6 645.1,367 650,369.6 650.8,368.1 653.1,367.4 
				651.3,365.6 651.9,363.5 647.5,363.4 652.5,360.5 651.5,359.4 652.2,356.9 			"/>
			<polygon class="st6" points="602.9,356.4 605.5,356.7 606.5,355.6 610,360 609.5,355.6 611.6,356 613.1,353.9 614.2,356.1 
				615.8,356.6 614,361.8 615.7,362.9 613.1,364.4 611.9,365.7 610.9,368.6 609.5,367 604.6,369.6 603.9,368.1 601.5,367.4 
				603.4,365.6 602.7,363.5 607.1,363.4 602.2,360.5 603.1,359.4 602.5,356.9 			"/>
		</g>
		<g>
			<polygon class="st6" points="646.5,371 643.9,371.3 643,370.2 639.4,374.6 640,370.3 637.8,370.6 636.3,368.5 635.2,370.7 
				633.7,371.3 635.5,376.4 633.7,377.6 636.4,379 637.5,380.3 638.6,383.2 639.9,381.7 644.8,384.2 645.5,382.8 647.9,382 
				646.1,380.2 646.7,378.1 642.3,378 647.3,375.2 646.3,374.1 646.9,371.5 			"/>
			<polygon class="st6" points="608.1,371 610.7,371.3 611.7,370.2 615.3,374.6 614.7,370.3 616.8,370.6 618.3,368.5 619.4,370.7 
				621,371.3 619.2,376.4 621,377.6 618.3,379 617.2,380.3 616.1,383.2 614.7,381.7 609.9,384.2 609.1,382.8 606.7,382 608.6,380.2 
				608,378.1 612.4,378 607.4,375.2 608.3,374.1 607.7,371.5 			"/>
		</g>
	</g>
	<g>
		<path class="st9" d="M362.2,418.9l-5.3-6.6c-7-7-4.6-18.8,4.5-22.6l5.4-2.2c4.5-1.9,8-5.4,9.9-9.9v0c4.5-10.6,17.4-14.5,27.1-8.3
			l20.5,13.3c7,4.5,16.2,3.8,22.4-1.8c0.1,0,0.1-0.1,0.2-0.1c6.7-6,16.8-6.1,23.6-0.3l2.5,2.1c10.5,8.9,14.4,23.4,9.8,36.4l0,0
			H366.1H362.2z"/>
		<g>
			<polygon class="st10" points="377.9,419 376.9,419 376.9,403.7 368.8,395.6 369.5,394.9 377.9,403.3 			"/>
		</g>
		<g>
			<polygon class="st10" points="377.7,411.5 377,410.8 395,392.8 395,377.6 396,377.6 396,393.2 			"/>
		</g>
		<g>
			
				<rect x="391.3" y="378.5" transform="matrix(0.7071 -0.7071 0.7071 0.7071 -156.5617 389.4651)" class="st10" width="1" height="10.5"/>
		</g>
		<g>
			<polygon class="st10" points="396,418.9 395,418.9 395,404.5 405.7,393.8 405.7,379.5 406.7,379.5 406.7,394.2 396,404.9 			"/>
		</g>
		<g>
			
				<rect x="405.3" y="384.2" transform="matrix(0.7071 -0.7071 0.7071 0.7071 -152.0132 402.3662)" class="st10" width="8.8" height="1"/>
		</g>
		<g>
			<polygon class="st10" points="461.4,418.9 460.4,418.9 460.4,391.1 465.3,386.2 466,386.9 461.4,391.5 			"/>
		</g>
		<g>
			<polygon class="st10" points="460.5,410.4 450.8,400.6 450.8,392.6 451.8,392.6 451.8,400.2 461.2,409.7 			"/>
		</g>
		<g>
			<polygon class="st10" points="461.2,416.1 460.5,415.4 470.7,405.3 470.7,397.4 471.7,397.4 471.7,405.7 			"/>
		</g>
		<g>
			<polygon class="st10" points="439.3,418.9 438.3,418.9 438.3,401.5 428,391.2 428.7,390.5 439.3,401.1 			"/>
		</g>
		<g>
			<polygon class="st10" points="438.4,416.1 430.8,408.5 430.8,404.5 418.3,404.5 418.3,394.6 415.4,391.7 416.1,391 419.3,394.2 
				419.3,403.5 431.8,403.5 431.8,408.1 439.1,415.4 			"/>
		</g>
		<g>
			
				<rect x="418.1" y="399.2" transform="matrix(0.7071 -0.7071 0.7071 0.7071 -159.4958 414.3356)" class="st10" width="4.5" height="1"/>
		</g>
		<g>
			<path class="st9" d="M484.8,418.9c-13.5-0.7-22.9-8.7-23.2-15.9c-0.3-8.4,11.4-16.2,21.5-16.5c14-0.4,16.9,14.2,34,17.5
				c14.4,2.9,16.5-6.7,34.9-6.5c21.5,0.2,23.9,13.3,44.1,12.5c15.8-0.7,20.3-8.9,33.3-6.3c10.3,2.1,17.7,9.3,22.5,15.3L484.8,418.9z
				"/>
			<g>
				<polygon class="st10" points="489.8,418.9 488.8,418.9 488.8,410.2 481.9,403.3 481.9,394.9 482.9,394.9 482.9,402.9 
					489.8,409.8 				"/>
			</g>
			<g>
				<polygon class="st10" points="628,418.9 627,418.9 627,410.1 625.3,406.9 626.1,406.4 628,409.9 				"/>
			</g>
			<g>
				
					<rect x="626.6" y="413.1" transform="matrix(0.7071 -0.7071 0.7071 0.7071 -108.0377 566.4191)" class="st10" width="6.1" height="1"/>
			</g>
			<g>
				<polygon class="st10" points="598.1,419.2 597.4,418.5 600.3,415.6 608.9,415.6 614.3,410.2 615,410.9 609.3,416.6 600.7,416.6 
									"/>
			</g>
			<g>
				<rect x="552.4" y="404.9" class="st10" width="1" height="14"/>
			</g>
			<g>
				<polygon class="st10" points="561.8,413.2 552.9,413.2 552.9,412.2 561.4,412.2 566.5,407.1 567.2,407.8 				"/>
			</g>
			<g>
				
					<rect x="549.7" y="402.6" transform="matrix(0.7071 -0.7071 0.7071 0.7071 -126.1735 508.103)" class="st10" width="1" height="7.4"/>
			</g>
			<g>
				<polygon class="st10" points="524.9,418.9 523.9,418.9 523.9,414.5 530,408.4 530.7,409.1 524.9,414.9 				"/>
			</g>
			<g>
				
					<rect x="524.1" y="408.5" transform="matrix(0.7071 -0.7072 0.7072 0.7071 -136.9534 491.336)" class="st10" width="1" height="5"/>
			</g>
			<g>
				
					<rect x="481.4" y="398.4" transform="matrix(0.7071 -0.7071 0.7071 0.7071 -140.1083 459.5806)" class="st10" width="6.5" height="1"/>
			</g>
		</g>
	</g>
	<g>
		<path class="st7" d="M299.7,359.8l-16.3,13.6l-1.5-28.4l-2.3,0l-1.6,28.2l-16.1-13.3l12.5,15c2,2.4,3,5.5,2.7,8.6l-1,34.6h9.2
			l-0.9-34.3c-0.3-3.1,0.7-6.2,2.7-8.6L299.7,359.8z"/>
		<polygon class="st7" points="280.5,324.6 278.1,327.9 275.8,327.9 277.3,336.8 272.7,331.5 270.8,334.4 266.8,333.9 268.3,337.6 
			267.2,339.9 275.2,343.3 274.7,346.6 279.2,345 281.9,345.1 286.5,346.8 286,343.6 294.1,340.5 293.2,338.1 294.9,334.5 
			290.8,334.8 289.1,331.9 284.3,336.9 286.1,328.1 283.9,328.1 281.5,324.7 		"/>
		<g>
			<polygon class="st7" points="262.3,307.3 265.7,308.6 267.4,307.4 270.6,314.8 271.5,308.7 274.2,309.9 277.1,307.6 277.7,311.1 
				279.6,312.3 275.3,318.7 277.3,320.9 273.1,321.9 271.1,323.3 268.6,326.8 267.3,324.2 259.8,325.8 259.3,323.6 256.3,321.7 
				259.5,319.9 259.4,316.9 265.4,318.3 259.7,312.6 261.4,311.5 261.5,307.8 			"/>
			<polygon class="st7" points="299.4,307.3 295.9,308.6 294.2,307.4 291,314.8 290.2,308.7 287.4,309.9 284.6,307.6 283.9,311.1 
				282,312.3 286.3,318.7 284.4,320.9 288.6,321.9 290.6,323.3 293.1,326.8 294.3,324.2 301.9,325.8 302.4,323.6 305.3,321.7 
				302.1,319.9 302.3,316.9 296.2,318.3 301.9,312.6 300.2,311.5 300.1,307.8 			"/>
		</g>
		<g>
			<polygon class="st7" points="315.2,331.2 311.5,331.6 310.2,330 305.2,336.3 306,330.1 303,330.6 300.8,327.6 299.3,330.8 
				297.1,331.5 299.6,338.8 297.1,340.4 300.9,342.5 302.5,344.3 304,348.4 305.9,346.2 312.8,349.7 313.8,347.7 317.2,346.7 
				314.6,344.1 315.5,341.2 309.3,341.1 316.2,337 314.9,335.5 315.8,331.9 			"/>
			<polygon class="st7" points="246.4,331.2 250.1,331.6 251.4,330 256.5,336.3 255.7,330.1 258.7,330.6 260.8,327.6 262.4,330.8 
				264.5,331.5 262,338.8 264.5,340.4 260.7,342.5 259.2,344.3 257.6,348.4 255.7,346.2 248.9,349.7 247.8,347.7 244.5,346.7 
				247.1,344.1 246.2,341.2 252.4,341.1 245.4,337 246.7,335.5 245.8,331.9 			"/>
		</g>
		<g>
			<polygon class="st7" points="307.9,351.8 304.2,352.2 302.9,350.6 297.8,356.9 298.6,350.7 295.6,351.2 293.5,348.2 291.9,351.4 
				289.8,352.1 292.3,359.4 289.8,361 293.6,363.1 295.1,364.9 296.7,369 298.6,366.8 305.4,370.3 306.5,368.3 309.8,367.3 
				307.2,364.7 308.1,361.8 301.9,361.7 308.9,357.6 307.6,356.1 308.5,352.5 			"/>
			<polygon class="st7" points="253.8,351.8 257.4,352.2 258.8,350.6 263.8,356.9 263,350.7 266,351.2 268.1,348.2 269.7,351.4 
				271.9,352.1 269.4,359.4 271.9,361 268.1,363.1 266.5,364.9 265,369 263.1,366.8 256.2,370.3 255.2,368.3 251.8,367.3 
				254.4,364.7 253.5,361.8 259.7,361.7 252.7,357.6 254.1,356.1 253.2,352.5 			"/>
		</g>
	</g>
	<g>
		<path class="st9" d="M160.5,352L142,367.4l-1.7-32.2l-2.6,0l-1.8,32L117.6,352l14.1,17c2.3,2.7,3.4,6.2,3,9.8l-1.1,39.3h10.4
			l-1.1-38.9c-0.3-3.5,0.8-7,3-9.8L160.5,352z"/>
		<polygon class="st8" points="138.7,312.1 135.9,315.8 133.3,315.8 135,325.9 129.8,319.9 127.7,323.1 123.1,322.6 124.8,326.8 
			123.6,329.4 132.7,333.3 132,337 137.3,335.2 140.3,335.2 145.4,337.3 145,333.6 154.2,330.1 153.1,327.4 155,323.3 150.4,323.6 
			148.4,320.3 143,326 145.1,316 142.5,316 139.9,312.1 		"/>
		<g>
			<polygon class="st8" points="118,292.4 121.9,293.9 123.8,292.6 127.4,301 128.4,294 131.6,295.4 134.8,292.8 135.5,296.7 
				137.7,298.1 132.8,305.4 135,307.8 130.3,309 128,310.5 125.1,314.5 123.7,311.6 115.1,313.4 114.6,310.9 111.2,308.7 
				114.9,306.7 114.7,303.3 121.6,304.9 115.1,298.5 117,297.2 117.1,293 			"/>
			<polygon class="st8" points="160.1,292.4 156.2,293.9 154.3,292.6 150.6,301 149.7,294 146.5,295.4 143.3,292.8 142.5,296.7 
				140.4,298.1 145.3,305.4 143.1,307.8 147.8,309 150.1,310.5 152.9,314.5 154.4,311.6 163,313.4 163.5,310.9 166.9,308.7 
				163.2,306.7 163.4,303.3 156.5,304.9 163,298.5 161.1,297.2 161,293 			"/>
		</g>
		<g>
			<polygon class="st8" points="178.1,319.6 173.9,319.9 172.4,318.2 166.7,325.3 167.6,318.3 164.2,318.8 161.8,315.5 160,319.1 
				157.6,319.9 160.4,328.2 157.6,330 161.9,332.3 163.6,334.4 165.3,339 167.5,336.5 175.3,340.6 176.5,338.3 180.3,337.1 
				177.3,334.2 178.4,330.9 171.3,330.7 179.2,326.1 177.7,324.4 178.7,320.3 			"/>
			<polygon class="st8" points="100,319.6 104.2,319.9 105.7,318.2 111.4,325.3 110.5,318.3 113.9,318.8 116.3,315.5 118.1,319.1 
				120.5,319.9 117.7,328.2 120.5,330 116.2,332.3 114.5,334.4 112.7,339 110.6,336.5 102.8,340.6 101.6,338.3 97.8,337.1 
				100.8,334.2 99.7,330.9 106.8,330.7 98.9,326.1 100.4,324.4 99.4,320.3 			"/>
		</g>
		<g>
			<polygon class="st8" points="169.7,342.9 165.6,343.3 164.1,341.6 158.4,348.7 159.2,341.7 155.8,342.2 153.4,338.8 151.7,342.4 
				149.2,343.3 152,351.6 149.2,353.3 153.5,355.7 155.3,357.8 157,362.4 159.2,359.9 167,363.9 168.1,361.6 172,360.4 169,357.5 
				170,354.3 163,354.1 170.9,349.5 169.4,347.8 170.4,343.7 			"/>
			<polygon class="st8" points="108.4,342.9 112.5,343.3 114,341.6 119.7,348.7 118.9,341.7 122.3,342.2 124.7,338.8 126.4,342.4 
				128.9,343.3 126.1,351.6 128.9,353.3 124.6,355.7 122.8,357.8 121.1,362.4 118.9,359.9 111.1,363.9 110,361.6 106.1,360.4 
				109.1,357.5 108.1,354.3 115.1,354.1 107.2,349.5 108.7,347.8 107.7,343.7 			"/>
		</g>
	</g>
	<g>
		<path class="st8" d="M241.4,352l-18.5,15.4l-1.7-32.2l-2.6,0l-1.8,32L198.6,352l14.1,17c2.3,2.7,3.4,6.2,3,9.8l-1.1,39.3H225
			l-1.1-38.9c-0.3-3.5,0.8-7,3-9.8L241.4,352z"/>
		<polygon class="st8" points="219.7,312.1 216.8,315.8 214.3,315.8 216,325.9 210.8,319.9 208.7,323.1 204.1,322.6 205.7,326.8 
			204.6,329.4 213.6,333.3 213,337 218.2,335.2 221.3,335.2 226.4,337.3 225.9,333.6 235.1,330.1 234.1,327.4 235.9,323.3 
			231.3,323.6 229.3,320.3 223.9,326 226,316 223.4,316 220.8,312.1 		"/>
		<g>
			<polygon class="st8" points="198.9,292.4 202.9,293.9 204.8,292.6 208.4,301 209.4,294 212.5,295.4 215.7,292.8 216.5,296.7 
				218.6,298.1 213.7,305.4 216,307.8 211.2,309 209,310.5 206.1,314.5 204.7,311.6 196.1,313.4 195.6,310.9 192.2,308.7 
				195.8,306.7 195.7,303.3 202.5,304.9 196.1,298.5 198,297.2 198.1,293 			"/>
			<polygon class="st8" points="241,292.4 237.1,293.9 235.2,292.6 231.6,301 230.6,294 227.5,295.4 224.3,292.8 223.5,296.7 
				221.3,298.1 226.2,305.4 224,307.8 228.8,309 231,310.5 233.9,314.5 235.3,311.6 243.9,313.4 244.4,310.9 247.8,308.7 
				244.2,306.7 244.3,303.3 237.5,304.9 243.9,298.5 242,297.2 241.9,293 			"/>
		</g>
		<g>
			<polygon class="st8" points="259,319.6 254.8,319.9 253.3,318.2 247.6,325.3 248.5,318.3 245.1,318.8 242.7,315.5 240.9,319.1 
				238.5,319.9 241.3,328.2 238.5,330 242.8,332.3 244.6,334.4 246.3,339 248.5,336.5 256.2,340.6 257.4,338.3 261.2,337.1 
				258.3,334.2 259.3,330.9 252.3,330.7 260.2,326.1 258.7,324.4 259.7,320.3 			"/>
			<polygon class="st8" points="181,319.6 185.1,319.9 186.6,318.2 192.3,325.3 191.5,318.3 194.9,318.8 197.3,315.5 199,319.1 
				201.5,319.9 198.7,328.2 201.5,330 197.2,332.3 195.4,334.4 193.7,339 191.5,336.5 183.7,340.6 182.6,338.3 178.7,337.1 
				181.7,334.2 180.7,330.9 187.7,330.7 179.8,326.1 181.3,324.4 180.3,320.3 			"/>
		</g>
		<g>
			<polygon class="st8" points="250.7,342.9 246.5,343.3 245,341.6 239.3,348.7 240.2,341.7 236.8,342.2 234.4,338.8 232.6,342.4 
				230.2,343.3 233,351.6 230.2,353.3 234.5,355.7 236.2,357.8 238,362.4 240.1,359.9 247.9,363.9 249.1,361.6 252.9,360.4 
				249.9,357.5 251,354.3 243.9,354.1 251.8,349.5 250.3,347.8 251.3,343.7 			"/>
			<polygon class="st8" points="189.3,342.9 193.5,343.3 195,341.6 200.7,348.7 199.8,341.7 203.2,342.2 205.6,338.8 207.4,342.4 
				209.8,343.3 207,351.6 209.8,353.3 205.5,355.7 203.7,357.8 202,362.4 199.9,359.9 192.1,363.9 190.9,361.6 187.1,360.4 
				190,357.5 189,354.3 196.1,354.1 188.1,349.5 189.6,347.8 188.6,343.7 			"/>
		</g>
	</g>
	<g>
		<path class="st9" d="M204.1,365.5l-14.7,12.2l-1.4-25.6l-2.1,0l-1.4,25.5L170,365.5l11.3,13.5c1.8,2.2,2.7,5,2.4,7.8l-0.9,31.3
			h8.3l-0.8-31c-0.3-2.8,0.6-5.6,2.4-7.8L204.1,365.5z"/>
		<polygon class="st9" points="186.8,333.7 184.6,336.7 182.5,336.6 183.9,344.7 179.7,339.9 178.1,342.5 174.4,342.1 175.7,345.4 
			174.8,347.5 182,350.6 181.5,353.5 185.6,352.1 188.1,352.1 192.2,353.7 191.8,350.8 199.1,348 198.3,345.9 199.8,342.6 
			196.1,342.9 194.5,340.2 190.2,344.8 191.9,336.8 189.8,336.8 187.7,333.7 		"/>
		<g>
			<polygon class="st9" points="170.3,318 173.4,319.2 175,318.1 177.8,324.8 178.6,319.3 181.1,320.4 183.7,318.3 184.3,321.4 
				186,322.6 182.1,328.3 183.9,330.3 180.1,331.2 178.3,332.5 176,335.6 174.9,333.3 168,334.7 167.6,332.7 164.9,331 167.8,329.4 
				167.7,326.7 173.2,328 168,322.8 169.6,321.8 169.6,318.5 			"/>
			<polygon class="st9" points="203.8,318 200.7,319.2 199.2,318.1 196.3,324.8 195.5,319.3 193,320.4 190.5,318.3 189.9,321.4 
				188.2,322.6 192.1,328.3 190.3,330.3 194.1,331.2 195.9,332.5 198.1,335.6 199.3,333.3 206.1,334.7 206.5,332.7 209.2,331 
				206.3,329.4 206.4,326.7 201,328 206.1,322.8 204.6,321.8 204.5,318.5 			"/>
		</g>
		<g>
			<polygon class="st9" points="218.1,339.6 214.8,339.9 213.6,338.5 209.1,344.2 209.8,338.6 207.1,339.1 205.2,336.4 203.8,339.2 
				201.8,339.9 204.1,346.5 201.8,347.9 205.2,349.8 206.7,351.5 208,355.1 209.7,353.1 215.9,356.3 216.9,354.5 219.9,353.6 
				217.6,351.3 218.4,348.7 212.8,348.5 219.1,344.9 217.9,343.5 218.7,340.2 			"/>
			<polygon class="st9" points="156,339.6 159.3,339.9 160.5,338.5 165.1,344.2 164.4,338.6 167.1,339.1 169,336.4 170.4,339.2 
				172.3,339.9 170.1,346.5 172.3,347.9 168.9,349.8 167.5,351.5 166.1,355.1 164.4,353.1 158.2,356.3 157.3,354.5 154.2,353.6 
				156.6,351.3 155.8,348.7 161.4,348.5 155.1,344.9 156.3,343.5 155.5,340.2 			"/>
		</g>
		<g>
			<polygon class="st9" points="211.5,358.2 208.2,358.5 207,357.1 202.5,362.8 203.2,357.3 200.4,357.7 198.5,355 197.1,357.8 
				195.2,358.5 197.4,365.1 195.2,366.5 198.6,368.4 200,370.1 201.4,373.7 203.1,371.7 209.3,375 210.2,373.1 213.3,372.2 
				210.9,369.9 211.7,367.3 206.1,367.1 212.4,363.5 211.2,362.1 212,358.9 			"/>
			<polygon class="st9" points="162.7,358.2 166,358.5 167.2,357.1 171.7,362.8 171,357.3 173.7,357.7 175.6,355 177,357.8 
				179,358.5 176.7,365.1 179,366.5 175.6,368.4 174.1,370.1 172.8,373.7 171,371.7 164.9,375 163.9,373.1 160.9,372.2 163.2,369.9 
				162.4,367.3 168,367.1 161.7,363.5 162.9,362.1 162.1,358.9 			"/>
		</g>
	</g>
	<g>
		<path class="st9" d="M601,383.5l-10.4,8.6l-1-18l-1.5,0l-1,17.9l-10.2-8.5l7.9,9.5c1.3,1.5,1.9,3.5,1.7,5.5l-0.6,22h5.8l-0.6-21.8
			c-0.2-2,0.4-3.9,1.7-5.5L601,383.5z"/>
		<polygon class="st9" points="588.9,361.1 587.3,363.2 585.9,363.2 586.8,368.8 583.9,365.5 582.7,367.3 580.2,367 581.1,369.4 
			580.4,370.8 585.5,373 585.1,375 588.1,374 589.8,374.1 592.6,375.2 592.4,373.1 597.5,371.2 596.9,369.7 598,367.4 595.4,367.6 
			594.3,365.7 591.2,368.9 592.4,363.3 591,363.3 589.5,361.1 		"/>
		<g>
			<polygon class="st9" points="577.3,350.1 579.5,351 580.5,350.2 582.6,354.9 583.1,351 584.9,351.8 586.7,350.3 587.1,352.5 
				588.3,353.3 585.6,357.4 586.8,358.8 584.2,359.4 582.9,360.3 581.3,362.5 580.5,360.8 575.7,361.9 575.4,360.5 573.5,359.3 
				575.5,358.1 575.5,356.2 579.3,357.1 575.7,353.5 576.8,352.8 576.8,350.5 			"/>
			<polygon class="st9" points="600.8,350.1 598.6,351 597.6,350.2 595.5,354.9 595,351 593.2,351.8 591.4,350.3 591,352.5 
				589.8,353.3 592.6,357.4 591.3,358.8 594,359.4 595.2,360.3 596.8,362.5 597.6,360.8 602.4,361.9 602.7,360.5 604.6,359.3 
				602.6,358.1 602.7,356.2 598.8,357.1 602.4,353.5 601.4,352.8 601.3,350.5 			"/>
		</g>
		<g>
			<polygon class="st9" points="610.9,365.3 608.5,365.5 607.7,364.5 604.5,368.5 605,364.6 603.1,364.9 601.8,363 600.8,365 
				599.4,365.5 601,370.1 599.4,371.1 601.8,372.5 602.8,373.6 603.8,376.2 605,374.8 609.3,377.1 610,375.8 612.1,375.1 
				610.5,373.5 611,371.6 607.1,371.5 611.5,369 610.7,368 611.2,365.7 			"/>
			<polygon class="st9" points="567.3,365.3 569.6,365.5 570.4,364.5 573.6,368.5 573.1,364.6 575,364.9 576.4,363 577.4,365 
				578.7,365.5 577.1,370.1 578.7,371.1 576.3,372.5 575.3,373.6 574.4,376.2 573.1,374.8 568.8,377.1 568.1,375.8 566,375.1 
				567.7,373.5 567.1,371.6 571,371.5 566.6,369 567.4,368 566.9,365.7 			"/>
		</g>
		<g>
			<polygon class="st9" points="606.2,378.4 603.9,378.6 603,377.6 599.9,381.6 600.3,377.7 598.4,378 597.1,376.1 596.1,378.1 
				594.7,378.6 596.3,383.2 594.7,384.2 597.1,385.5 598.1,386.7 599.1,389.3 600.3,387.9 604.7,390.1 605.3,388.8 607.5,388.2 
				605.8,386.5 606.4,384.7 602.4,384.6 606.9,382.1 606,381.1 606.6,378.8 			"/>
			<polygon class="st9" points="571.9,378.4 574.2,378.6 575.1,377.6 578.3,381.6 577.8,377.7 579.7,378 581,376.1 582,378.1 
				583.4,378.6 581.8,383.2 583.4,384.2 581,385.5 580,386.7 579,389.3 577.8,387.9 573.5,390.1 572.8,388.8 570.7,388.2 
				572.3,386.5 571.7,384.7 575.7,384.6 571.3,382.1 572.1,381.1 571.5,378.8 			"/>
		</g>
	</g>
</g>
<g>
	<path class="st11" d="M700,436.4c0,0,48.7,0,60.8-0.1c12.1-0.1,40.5-1.8,41.5-24.2s-26.5-39.1-50.1-49c-23.6-10-36.4-9.8-40.3-12.7
		c-3.9-3,4.5-4.7,12.1-7.3c7.6-2.6,14-7.2,19.7-13s10.1-22.2-6.1-27.1c-16.3-5-39.7-4.8-46.6-10.3c0,0,3.3,3.2,2.9,2.9
		c-2.7-1.5,2.8,5.9,20.7,8.5c8.8,1.3,17.7,4.9,17.7,11.5s-2.4,12-46.4,20.5c-43.6,8.4-27.5,23.4-14.7,32.1
		c12.4,9.5,67.8,36.2,21.2,44.9c-35.3,5.4-97,4.3-97,4.3c-4.7,0-575-0.2-575-0.2s1.6,2,5.1,4.4c7.8,5.6,25.2,14.6,42.5,14.6
		c25,0,630.8,0.1,630.8,0.1"/>
	<path class="st12" d="M461.3,436.3C461.3,436.3,461.3,436.3,461.3,436.3H203.1C203.1,436.3,242.5,436.3,461.3,436.3z"/>
	<path class="st12" d="M795.9,405.4c-1.7-19.6-51.4-45.5-77.1-51.6c-9.1-1.9-17.7-5.1-5.5-8.7c0.7-0.2,36.1-8.1,34.4-29.1
		s-42.5-12-56.7-23.2l-0.9-0.2c8.3,13.6,44.6,6.6,43.3,23.8c-2,21.9-73.4,18.6-72.5,36c0.9,17.3,162.8,73.1-54.5,69.3
		c-38.6,0-83,14.6-145.1,14.6l280.7,0c0,0-14.8,0-14.8,0C752.4,436,798.3,432.7,795.9,405.4z"/>
	<path class="st12" d="M29.8,421.7c12,9.4,25.9,14.6,40.1,14.6l629.8,0c0.2-4.9,0.6-9.8,1.2-14.6L29.8,421.7z"/>
</g>
<linearGradient id="SVGID_1_" gradientUnits="userSpaceOnUse" x1="909.0862" y1="147.282" x2="909.0862" y2="189.0667">
	<stop  offset="0" style="stop-color:#FFFFFF"/>
	<stop  offset="0.8587" style="stop-color:#FFFFFF;stop-opacity:0.1413"/>
	<stop  offset="1" style="stop-color:#FFFFFF;stop-opacity:0"/>
</linearGradient>
<path class="st13" d="M984.9,189.1H833.3l22.7-22.7c5.4-5.4,14.1-5.4,19.5,0v0c5.4,5.4,14.1,5.4,19.5,0l15-15
	c4.7-4.7,12.1-5.4,17.6-1.6L984.9,189.1z"/>
<linearGradient id="SVGID_2_" gradientUnits="userSpaceOnUse" x1="-1880.1785" y1="54.1256" x2="-1880.1785" y2="86.7724" gradientTransform="matrix(-1 0 0 1 -1237.2329 0)">
	<stop  offset="0" style="stop-color:#FFFFFF"/>
	<stop  offset="0.8587" style="stop-color:#FFFFFF;stop-opacity:0.1413"/>
	<stop  offset="1" style="stop-color:#FFFFFF;stop-opacity:0"/>
</linearGradient>
<path class="st14" d="M583.7,86.8h118.4L684.4,69c-4.2-4.2-11-4.2-15.3,0v0c-4.2,4.2-11,4.2-15.3,0l-11.8-11.8
	c-3.7-3.7-9.5-4.2-13.7-1.3L583.7,86.8z"/>
<linearGradient id="SVGID_3_" gradientUnits="userSpaceOnUse" x1="258.6905" y1="169.8666" x2="258.6905" y2="208.2068">
	<stop  offset="0" style="stop-color:#FFFFFF"/>
	<stop  offset="0.8587" style="stop-color:#FFFFFF;stop-opacity:0.1413"/>
	<stop  offset="1" style="stop-color:#FFFFFF;stop-opacity:0"/>
</linearGradient>
<path class="st15" d="M328.2,208.2H189.2l20.8-20.8c4.9-4.9,13-4.9,17.9,0l0,0c4.9,4.9,13,4.9,17.9,0l13.8-13.8
	c4.3-4.3,11.1-4.9,16.1-1.5L328.2,208.2z"/>
<linearGradient id="SVGID_4_" gradientUnits="userSpaceOnUse" x1="765.2528" y1="82.2027" x2="765.2528" y2="101.6315">
	<stop  offset="0" style="stop-color:#FFFFFF"/>
	<stop  offset="0.8587" style="stop-color:#FFFFFF;stop-opacity:0.1413"/>
	<stop  offset="1" style="stop-color:#FFFFFF;stop-opacity:0"/>
</linearGradient>
<path class="st16" d="M800.5,101.6H730l10.6-10.6c2.5-2.5,6.6-2.5,9.1,0v0c2.5,2.5,6.6,2.5,9.1,0l7-7c2.2-2.2,5.6-2.5,8.2-0.7
	L800.5,101.6z"/>
<linearGradient id="SVGID_5_" gradientUnits="userSpaceOnUse" x1="488.5607" y1="99.0366" x2="488.5607" y2="147.0501">
	<stop  offset="0" style="stop-color:#FFFFFF"/>
	<stop  offset="0.8587" style="stop-color:#FFFFFF;stop-opacity:0.1413"/>
	<stop  offset="1" style="stop-color:#FFFFFF;stop-opacity:0"/>
</linearGradient>
<path class="st17" d="M575.6,147.1H401.5l26.1-26.1c6.2-6.2,16.2-6.2,22.4,0v0c6.2,6.2,16.2,6.2,22.4,0l17.3-17.3
	c5.4-5.4,13.9-6.2,20.2-1.9L575.6,147.1z"/>
<path class="st12" d="M669.4,423H109.7c-8.3,0-15.7,5.4-18.3,13.3h0l569,0L669.4,423z"/>
<path class="st12" d="M25.6,421.7c12,9.4,26,14.6,40.3,14.6l632.1,0c0.2-4.9,0.6-9.8,1.2-14.6L25.6,421.7z"/>
<g>
	<path class="st18" d="M844,403.6"/>
</g>
<g>
	<g>
		<polygon class="st19" points="822.8,348.6 814.7,343.8 812.1,336.5 813.5,330.6 809.1,333.8 807.1,339 799.2,331.8 799.2,326.8 
			794.6,336.5 799.7,345.9 813.5,347.6 817.9,352.6 822.8,352.6 		"/>
		<polygon class="st19" points="827.5,387.1 832.8,420.2 830.1,432.3 835.6,432.3 837.3,387.1 		"/>
		<polygon class="st19" points="868.7,399.9 868.7,407.7 875.2,415.9 864.1,432.3 861.3,432.3 868.2,415.4 854.9,395.3 		"/>
		<polygon class="st20" points="885.8,381 885.8,402 889.4,410.2 889.4,432.3 884.4,432.3 884.4,412 874.4,400.6 868.7,399.9 
			818.6,391.7 816.4,370 812.2,364 808.6,370.9 803.3,367.1 793.4,370.5 793.4,363.4 813.9,350.1 824.3,350.1 830.3,360.8 
			840.3,361.5 857.7,371.8 867,371.8 		"/>
		<polygon class="st20" points="849.2,389.1 845.8,432.3 841.5,432.3 841.5,389.1 849.2,387.1 		"/>
		<polygon class="st20" points="824,352.6 837.3,344 852.7,336.5 850.9,325.4 846.8,332.3 842.7,328.7 839.9,335.2 828.2,332.8 
			826.4,326.8 824,333.8 828.2,341.6 821.7,350.1 		"/>
	</g>
</g>
<g>
	<path class="st9" d="M802.1,436.4l4.7-9.8c2.7-5.6,9.1-8.3,14.9-6.2l0,0c2.4,0.8,5.1,0.9,7.5,0.1l9.1-2.8l0.1,0
		c2.7-0.8,5.5-0.5,8,0.7l11.6,6c3.6,1.9,7.6,2.7,11.6,2.3c5-0.4,10,0.7,14.3,3.3l0,0c3,1.8,6.7,1.9,9.9,0.4l8.3-4.1
		c1.4-0.7,3-1.1,4.6-1.1l35.6-0.1l51.1,9.2l16.8,1.8L802.1,436.4z"/>
	<g>
		<g>
			<polygon class="st10" points="837.9,432.7 819.4,432.7 815.5,424.5 816.4,424.1 820.1,431.7 836.9,431.7 836.9,424.3 
				837.9,424.3 			"/>
		</g>
		<g>
			
				<rect x="836.2" y="425.7" transform="matrix(0.7071 -0.7071 0.7071 0.7071 -55.2592 718.9752)" class="st10" width="8" height="1"/>
		</g>
		<g>
			<polygon class="st10" points="855.8,430.7 837.4,430.7 837.4,429.7 855.4,429.7 857.9,427.1 858.7,427.8 			"/>
		</g>
	</g>
</g>
<g>
	<path class="st8" d="M918.5,436.1l-8.4-17.7c-3-6.3,1.3-13.7,8.2-14.2l1.5-0.1c6.8-0.5,11.1-7.6,8.4-13.9l0,0
		c-1.9-4.4,2.2-9,6.7-7.7l10.5,3c0.9,0.3,4.1-0.8,7.9-2.4c8.4-3.4,17.7,2.5,18.1,11.6v0c0.2,4.5,2.7,8.7,6.7,10.9l0.8,0.4
		c6.7,3.8,9.8,11.9,7.2,19.2l-3.8,11L918.5,436.1z"/>
	<g>
		<polygon class="st9" points="948.7,436.7 926.6,421.9 926.6,412.4 927.6,412.4 927.6,421.3 949.2,435.8 		"/>
	</g>
	<g>
		<polygon class="st9" points="949.5,436.3 948.5,436.3 948.5,416.9 939.6,408.1 939.6,395.7 935.2,391.3 935.9,390.6 940.6,395.2 
			940.6,407.7 949.5,416.5 		"/>
	</g>
	<g>
		
			<rect x="944.9" y="418.7" transform="matrix(0.7071 -0.7071 0.7071 0.7071 -15.5817 800.7515)" class="st9" width="27.8" height="1"/>
	</g>
	<g>
		<rect x="944" y="405.9" transform="matrix(0.7071 -0.7071 0.7071 0.7071 -7.611 794.3539)" class="st9" width="22.1" height="1"/>
	</g>
	<g>
		
			<rect x="937" y="397.3" transform="matrix(0.7071 -0.7071 0.7071 0.7071 -3.6863 786.6171)" class="st9" width="21.4" height="1"/>
	</g>
</g>
<polygon class="st11" points="690.4,314.9 696.9,314.9 693.1,305.7 696.9,305.7 688.7,284.7 680.5,305.7 684.3,305.7 680.5,314.9 
	687,314.9 "/>
<polygon class="st11" points="678.8,314.9 686.7,314.9 682.1,303.8 686.7,303.8 676.8,278.3 666.8,303.8 671.4,303.8 666.8,314.9 
	674.7,314.9 "/>
<polygon class="st11" points="672.5,314.9 679.1,314.9 675.3,305.7 679.1,305.7 670.9,284.7 662.6,305.7 666.4,305.7 662.6,314.9 
	669.2,314.9 "/>
<polygon class="st11" points="666.7,314.9 673,314.9 669.3,306 673,306 665,285.5 657,306 660.7,306 657,314.9 663.4,314.9 "/>
<polygon class="st11" points="727.1,349.7 733.4,349.7 729.7,340.8 733.4,340.8 725.5,320.3 717.5,340.8 721.2,340.8 717.5,349.7 
	723.8,349.7 "/>
<polygon class="st11" points="738.6,349.7 746.4,349.7 741.9,338.7 746.4,338.7 736.6,313.4 726.7,338.7 731.3,338.7 726.7,349.7 
	734.5,349.7 "/>
<polygon class="st11" points="762.9,349.7 770.7,349.7 766.1,338.7 770.7,338.7 760.9,313.4 751,338.7 755.6,338.7 751,349.7 
	758.8,349.7 "/>
<polygon class="st3" points="464.1,449.4 465.2,449.8 466.7,447.4 465,448.7 "/>
<g>
	<g>
		<path class="st7" d="M299.7,359.6l-16.3,13.6l-1.5-28.4l-2.3,0l-1.6,28.2l-16.1-13.3l12.5,15c2,2.4,3,5.5,2.7,8.6l-1,34.6h9.2
			l-0.9-34.3c-0.3-3.1,0.7-6.2,2.7-8.6L299.7,359.6z"/>
		<polygon class="st7" points="280.5,324.6 278.1,327.9 275.8,327.9 277.3,336.8 272.7,331.5 270.8,334.4 266.8,333.9 268.3,337.6 
			267.2,339.9 275.2,343.3 274.7,346.6 279.2,345 281.9,345.1 286.5,346.8 286,343.6 294.1,340.5 293.2,338.1 294.9,334.5 
			290.8,334.8 289.1,331.9 284.3,336.9 286.1,328.1 283.9,328.1 281.5,324.7 		"/>
		<g>
			<polygon class="st7" points="262.3,307.3 265.7,308.6 267.4,307.4 270.6,314.8 271.5,308.7 274.2,309.9 277.1,307.6 277.7,311.1 
				279.6,312.3 275.3,318.7 277.3,320.9 273.1,321.9 271.1,323.3 268.6,326.8 267.3,324.2 259.8,325.8 259.3,323.6 256.3,321.7 
				259.5,319.9 259.4,316.9 265.4,318.3 259.7,312.6 261.4,311.5 261.5,307.8 			"/>
			<polygon class="st7" points="299.4,307.3 295.9,308.6 294.2,307.4 291,314.8 290.2,308.7 287.4,309.9 284.6,307.6 283.9,311.1 
				282,312.3 286.3,318.7 284.4,320.9 288.6,321.9 290.6,323.3 293.1,326.8 294.3,324.2 301.9,325.8 302.4,323.6 305.3,321.7 
				302.1,319.9 302.3,316.9 296.2,318.3 301.9,312.6 300.2,311.5 300.1,307.8 			"/>
		</g>
		<g>
			<polygon class="st7" points="315.2,331.2 311.5,331.6 310.2,330 305.2,336.3 306,330.1 303,330.6 300.8,327.6 299.3,330.8 
				297.1,331.5 299.6,338.8 297.1,340.4 300.9,342.5 302.5,344.3 304,348.4 305.9,346.2 312.8,349.7 313.8,347.7 317.2,346.7 
				314.6,344.1 315.5,341.2 309.3,341.1 316.2,337 314.9,335.5 315.8,331.9 			"/>
			<polygon class="st7" points="246.4,331.2 250.1,331.6 251.4,330 256.5,336.3 255.7,330.1 258.7,330.6 260.8,327.6 262.4,330.8 
				264.5,331.5 262,338.8 264.5,340.4 260.7,342.5 259.2,344.3 257.6,348.4 255.7,346.2 248.9,349.7 247.8,347.7 244.5,346.7 
				247.1,344.1 246.2,341.2 252.4,341.1 245.4,337 246.7,335.5 245.8,331.9 			"/>
		</g>
		<g>
			<polygon class="st7" points="307.9,351.8 304.2,352.2 302.9,350.6 297.8,356.9 298.6,350.7 295.6,351.2 293.5,348.2 291.9,351.4 
				289.8,352.1 292.3,359.4 289.8,361 293.6,363.1 295.1,364.9 296.7,369 298.6,366.8 305.4,370.3 306.5,368.3 309.8,367.3 
				307.2,364.7 308.1,361.8 301.9,361.7 308.9,357.6 307.6,356.1 308.5,352.5 			"/>
			<polygon class="st7" points="253.8,351.8 257.4,352.2 258.8,350.6 263.8,356.9 263,350.7 266,351.2 268.1,348.2 269.7,351.4 
				271.9,352.1 269.4,359.4 271.9,361 268.1,363.1 266.5,364.9 265,369 263.1,366.8 256.2,370.3 255.2,368.3 251.8,367.3 
				254.4,364.7 253.5,361.8 259.7,361.7 252.7,357.6 254.1,356.1 253.2,352.5 			"/>
		</g>
	</g>
	<g>
		<path class="st9" d="M160.5,351.1L142,366.5l-1.7-32.2l-2.6,0l-1.8,32l-18.2-15.1l14.1,17c2.3,2.7,3.4,6.2,3,9.8l-1.1,39.3h10.4
			l-1.1-38.9c-0.3-3.5,0.8-7,3-9.8L160.5,351.1z"/>
		<polygon class="st8" points="138.7,312.1 135.9,315.8 133.3,315.8 135,325.9 129.8,319.9 127.7,323.1 123.1,322.6 124.8,326.8 
			123.6,329.4 132.7,333.3 132,337 137.3,335.2 140.3,335.2 145.4,337.3 145,333.6 154.2,330.1 153.1,327.4 155,323.3 150.4,323.6 
			148.4,320.3 143,326 145.1,316 142.5,316 139.9,312.1 		"/>
		<g>
			<polygon class="st8" points="118,292.4 121.9,293.9 123.8,292.6 127.4,301 128.4,294 131.6,295.4 134.8,292.8 135.5,296.7 
				137.7,298.1 132.8,305.4 135,307.8 130.3,309 128,310.5 125.1,314.5 123.7,311.6 115.1,313.4 114.6,310.9 111.2,308.7 
				114.9,306.7 114.7,303.3 121.6,304.9 115.1,298.5 117,297.2 117.1,293 			"/>
			<polygon class="st8" points="160.1,292.4 156.2,293.9 154.3,292.6 150.6,301 149.7,294 146.5,295.4 143.3,292.8 142.5,296.7 
				140.4,298.1 145.3,305.4 143.1,307.8 147.8,309 150.1,310.5 152.9,314.5 154.4,311.6 163,313.4 163.5,310.9 166.9,308.7 
				163.2,306.7 163.4,303.3 156.5,304.9 163,298.5 161.1,297.2 161,293 			"/>
		</g>
		<g>
			<polygon class="st8" points="178.1,319.6 173.9,319.9 172.4,318.2 166.7,325.3 167.6,318.3 164.2,318.8 161.8,315.5 160,319.1 
				157.6,319.9 160.4,328.2 157.6,330 161.9,332.3 163.6,334.4 165.3,339 167.5,336.5 175.3,340.6 176.5,338.3 180.3,337.1 
				177.3,334.2 178.4,330.9 171.3,330.7 179.2,326.1 177.7,324.4 178.7,320.3 			"/>
			<polygon class="st8" points="100,319.6 104.2,319.9 105.7,318.2 111.4,325.3 110.5,318.3 113.9,318.8 116.3,315.5 118.1,319.1 
				120.5,319.9 117.7,328.2 120.5,330 116.2,332.3 114.5,334.4 112.7,339 110.6,336.5 102.8,340.6 101.6,338.3 97.8,337.1 
				100.8,334.2 99.7,330.9 106.8,330.7 98.9,326.1 100.4,324.4 99.4,320.3 			"/>
		</g>
		<g>
			<polygon class="st8" points="169.7,342.9 165.6,343.3 164.1,341.6 158.4,348.7 159.2,341.7 155.8,342.2 153.4,338.8 151.7,342.4 
				149.2,343.3 152,351.6 149.2,353.3 153.5,355.7 155.3,357.8 157,362.4 159.2,359.9 167,363.9 168.1,361.6 172,360.4 169,357.5 
				170,354.3 163,354.1 170.9,349.5 169.4,347.8 170.4,343.7 			"/>
			<polygon class="st8" points="108.4,342.9 112.5,343.3 114,341.6 119.7,348.7 118.9,341.7 122.3,342.2 124.7,338.8 126.4,342.4 
				128.9,343.3 126.1,351.6 128.9,353.3 124.6,355.7 122.8,357.8 121.1,362.4 118.9,359.9 111.1,363.9 110,361.6 106.1,360.4 
				109.1,357.5 108.1,354.3 115.1,354.1 107.2,349.5 108.7,347.8 107.7,343.7 			"/>
		</g>
	</g>
	<g>
		<path class="st8" d="M241.4,352l-18.5,15.4l-1.7-32.2l-2.6,0l-1.8,32L198.6,352l14.1,17c2.3,2.7,3.4,6.2,3,9.8l-1.1,39.3H225
			l-1.1-38.9c-0.3-3.5,0.8-7,3-9.8L241.4,352z"/>
		<polygon class="st8" points="219.7,312.1 216.8,315.8 214.3,315.8 216,325.9 210.8,319.9 208.7,323.1 204.1,322.6 205.7,326.8 
			204.6,329.4 213.6,333.3 213,337 218.2,335.2 221.3,335.2 226.4,337.3 225.9,333.6 235.1,330.1 234.1,327.4 235.9,323.3 
			231.3,323.6 229.3,320.3 223.9,326 226,316 223.4,316 220.8,312.1 		"/>
		<g>
			<polygon class="st8" points="198.9,292.4 202.9,293.9 204.8,292.6 208.4,301 209.4,294 212.5,295.4 215.7,292.8 216.5,296.7 
				218.6,298.1 213.7,305.4 216,307.8 211.2,309 209,310.5 206.1,314.5 204.7,311.6 196.1,313.4 195.6,310.9 192.2,308.7 
				195.8,306.7 195.7,303.3 202.5,304.9 196.1,298.5 198,297.2 198.1,293 			"/>
			<polygon class="st8" points="241,292.4 237.1,293.9 235.2,292.6 231.6,301 230.6,294 227.5,295.4 224.3,292.8 223.5,296.7 
				221.3,298.1 226.2,305.4 224,307.8 228.8,309 231,310.5 233.9,314.5 235.3,311.6 243.9,313.4 244.4,310.9 247.8,308.7 
				244.2,306.7 244.3,303.3 237.5,304.9 243.9,298.5 242,297.2 241.9,293 			"/>
		</g>
		<g>
			<polygon class="st8" points="259,319.6 254.8,319.9 253.3,318.2 247.6,325.3 248.5,318.3 245.1,318.8 242.7,315.5 240.9,319.1 
				238.5,319.9 241.3,328.2 238.5,330 242.8,332.3 244.6,334.4 246.3,339 248.5,336.5 256.2,340.6 257.4,338.3 261.2,337.1 
				258.3,334.2 259.3,330.9 252.3,330.7 260.2,326.1 258.7,324.4 259.7,320.3 			"/>
			<polygon class="st8" points="181,319.6 185.1,319.9 186.6,318.2 192.3,325.3 191.5,318.3 194.9,318.8 197.3,315.5 199,319.1 
				201.5,319.9 198.7,328.2 201.5,330 197.2,332.3 195.4,334.4 193.7,339 191.5,336.5 183.7,340.6 182.6,338.3 178.7,337.1 
				181.7,334.2 180.7,330.9 187.7,330.7 179.8,326.1 181.3,324.4 180.3,320.3 			"/>
		</g>
		<g>
			<polygon class="st8" points="250.7,342.9 246.5,343.3 245,341.6 239.3,348.7 240.2,341.7 236.8,342.2 234.4,338.8 232.6,342.4 
				230.2,343.3 233,351.6 230.2,353.3 234.5,355.7 236.2,357.8 238,362.4 240.1,359.9 247.9,363.9 249.1,361.6 252.9,360.4 
				249.9,357.5 251,354.3 243.9,354.1 251.8,349.5 250.3,347.8 251.3,343.7 			"/>
			<polygon class="st8" points="189.3,342.9 193.5,343.3 195,341.6 200.7,348.7 199.8,341.7 203.2,342.2 205.6,338.8 207.4,342.4 
				209.8,343.3 207,351.6 209.8,353.3 205.5,355.7 203.7,357.8 202,362.4 199.9,359.9 192.1,363.9 190.9,361.6 187.1,360.4 
				190,357.5 189,354.3 196.1,354.1 188.1,349.5 189.6,347.8 188.6,343.7 			"/>
		</g>
	</g>
	<g>
		<path class="st9" d="M204.1,364.5l-14.7,12.2l-1.4-25.6l-2.1,0l-1.4,25.5L170,364.5l11.3,13.5c1.8,2.2,2.7,5,2.4,7.8l-0.9,31.3
			h8.3l-0.8-31c-0.3-2.8,0.6-5.6,2.4-7.8L204.1,364.5z"/>
		<polygon class="st9" points="186.8,333.7 184.6,336.7 182.5,336.6 183.9,344.7 179.7,339.9 178.1,342.5 174.4,342.1 175.7,345.4 
			174.8,347.5 182,350.6 181.5,353.5 185.6,352.1 188.1,352.1 192.2,353.7 191.8,350.8 199.1,348 198.3,345.9 199.8,342.6 
			196.1,342.9 194.5,340.2 190.2,344.8 191.9,336.8 189.8,336.8 187.7,333.7 		"/>
		<g>
			<polygon class="st9" points="170.3,318 173.4,319.2 175,318.1 177.8,324.8 178.6,319.3 181.1,320.4 183.7,318.3 184.3,321.4 
				186,322.6 182.1,328.3 183.9,330.3 180.1,331.2 178.3,332.5 176,335.6 174.9,333.3 168,334.7 167.6,332.7 164.9,331 167.8,329.4 
				167.7,326.7 173.2,328 168,322.8 169.6,321.8 169.6,318.5 			"/>
			<polygon class="st9" points="203.8,318 200.7,319.2 199.2,318.1 196.3,324.8 195.5,319.3 193,320.4 190.5,318.3 189.9,321.4 
				188.2,322.6 192.1,328.3 190.3,330.3 194.1,331.2 195.9,332.5 198.1,335.6 199.3,333.3 206.1,334.7 206.5,332.7 209.2,331 
				206.3,329.4 206.4,326.7 201,328 206.1,322.8 204.6,321.8 204.5,318.5 			"/>
		</g>
		<g>
			<polygon class="st9" points="218.1,339.6 214.8,339.9 213.6,338.5 209.1,344.2 209.8,338.6 207.1,339.1 205.2,336.4 203.8,339.2 
				201.8,339.9 204.1,346.5 201.8,347.9 205.2,349.8 206.7,351.5 208,355.1 209.7,353.1 215.9,356.3 216.9,354.5 219.9,353.6 
				217.6,351.3 218.4,348.7 212.8,348.5 219.1,344.9 217.9,343.5 218.7,340.2 			"/>
			<polygon class="st9" points="156,339.6 159.3,339.9 160.5,338.5 165.1,344.2 164.4,338.6 167.1,339.1 169,336.4 170.4,339.2 
				172.3,339.9 170.1,346.5 172.3,347.9 168.9,349.8 167.5,351.5 166.1,355.1 164.4,353.1 158.2,356.3 157.3,354.5 154.2,353.6 
				156.6,351.3 155.8,348.7 161.4,348.5 155.1,344.9 156.3,343.5 155.5,340.2 			"/>
		</g>
		<g>
			<polygon class="st9" points="211.5,358.2 208.2,358.5 207,357.1 202.5,362.8 203.2,357.3 200.4,357.7 198.5,355 197.1,357.8 
				195.2,358.5 197.4,365.1 195.2,366.5 198.6,368.4 200,370.1 201.4,373.7 203.1,371.7 209.3,375 210.2,373.1 213.3,372.2 
				210.9,369.9 211.7,367.3 206.1,367.1 212.4,363.5 211.2,362.1 212,358.9 			"/>
			<polygon class="st9" points="162.7,358.2 166,358.5 167.2,357.1 171.7,362.8 171,357.3 173.7,357.7 175.6,355 177,357.8 
				179,358.5 176.7,365.1 179,366.5 175.6,368.4 174.1,370.1 172.8,373.7 171,371.7 164.9,375 163.9,373.1 160.9,372.2 163.2,369.9 
				162.4,367.3 168,367.1 161.7,363.5 162.9,362.1 162.1,358.9 			"/>
		</g>
	</g>
	<path class="st7" d="M119.4,417.3c0,0,7.1-13.1,21-13.1s15.9,9.2,26.5,9.2s15.1-4.9,25.3-4.9c10.2,0,21.1,8.8,27.8,8.8
		c6.7,0,11.9-13.1,21.5-13.1c9.6,0,16.6,8.6,23,8.6c6.4,0,15.9,4.5,25.6,4.5c9.7,0,24.1-6.6,30.2-6.6c6.1,0,18.6,6.6,18.6,6.6
		L119.4,417.3z"/>
</g>
<g>
	<path class="st21" d="M459.4,355.9h15.7c0.6,0,1.2,0,1.8,0.1c5,0.6,9.7,2.8,13.5,6.2l22.6,20.2c1.2,1.1,2.7,1.9,4.2,2.3l22.6,5.2
		c1.8,0.3,3.1,1.8,3.1,3.6v15.7v4.7v9.1h-6l-17.7-4.8l-18.2,4.8h-41.7L459.4,355.9z"/>
	<path class="st21" d="M459.4,422.9h-69.9l-19.9-11.7l-18.4,11.7h-61.4v-96.8h160.4c5,0,9.1,4.1,9.1,9.1V422.9z"/>
	<polygon class="st12" points="351.3,422.9 357.3,408.4 383.1,408.4 389.6,422.9 	"/>
	<g>
		<ellipse class="st22" cx="416.4" cy="405.2" rx="3.8" ry="3.7"/>
		<circle class="st6" cx="416.4" cy="405.2" r="3"/>
		
			<rect x="414.3" y="404.8" transform="matrix(0.7071 -0.7071 0.7071 0.7071 -164.5463 413.1496)" class="st3" width="4.3" height="0.8"/>
	</g>
	<g>
		<circle class="st11" cx="370.4" cy="422.9" r="13.4"/>
		<circle class="st23" cx="370.4" cy="422.9" r="8.3"/>
		<circle class="st24" cx="370.4" cy="422.9" r="1.8"/>
		<path class="st24" d="M370.4,428c-0.9,0-1.6,0.6-1.8,1.5c0.6,0.2,1.2,0.2,1.8,0.2s1.2-0.1,1.8-0.2C372,428.6,371.3,428,370.4,428z
			"/>
		<path class="st24" d="M366.4,425.2c0-1-0.8-1.8-1.8-1.8c-0.3,0-0.6,0.1-0.9,0.2c0.1,1.2,0.6,2.4,1.3,3.3
			C365.8,426.7,366.4,426,366.4,425.2z"/>
		<path class="st24" d="M376.2,423.4c-1,0-1.8,0.8-1.8,1.8c0,0.8,0.6,1.6,1.4,1.7c0.7-0.9,1.2-2.1,1.3-3.3
			C376.8,423.5,376.5,423.4,376.2,423.4z"/>
		<path class="st24" d="M374.2,419.6c0.6,0,1.1-0.3,1.5-0.8c-0.7-1-1.7-1.7-2.9-2.1c-0.2,0.3-0.4,0.7-0.4,1.1
			C372.4,418.7,373.2,419.6,374.2,419.6z"/>
		<path class="st24" d="M366.6,419.6c1,0,1.8-0.8,1.8-1.8c0-0.4-0.1-0.8-0.4-1.1c-1.1,0.4-2.1,1.2-2.9,2.1
			C365.4,419.3,366,419.6,366.6,419.6z"/>
	</g>
	<path class="st25" d="M456.4,391.1H302.7c-0.8,0-1.5-0.7-1.5-1.5l0,0c0-0.8,0.7-1.5,1.5-1.5h153.8c0.8,0,1.5,0.7,1.5,1.5l0,0
		C457.9,390.4,457.2,391.1,456.4,391.1z"/>
	<path class="st25" d="M346.1,414.3h-42.8c-0.8,0-1.4-0.6-1.4-1.4l0,0c0-0.8,0.6-1.4,1.4-1.4h42.8c0.8,0,1.4,0.6,1.4,1.4l0,0
		C347.5,413.7,346.9,414.3,346.1,414.3z"/>
	<path class="st25" d="M456.8,414.4h-63.1c-0.8,0-1.5-0.7-1.5-1.5l0,0c0-0.8,0.7-1.5,1.5-1.5h63.1c0.8,0,1.5,0.7,1.5,1.5l0,0
		C458.3,413.8,457.6,414.4,456.8,414.4z"/>
	<path class="st25" d="M528,402.1h-63.1c-0.8,0-1.5-0.7-1.5-1.5l0,0c0-0.8,0.7-1.5,1.5-1.5H528c0.8,0,1.5,0.7,1.5,1.5l0,0
		C529.5,401.5,528.8,402.1,528,402.1z"/>
	<path class="st6" d="M464.6,394.9h-0.3c-0.7,0-1.3-0.6-1.3-1.3v-4.3c0-0.7,0.6-1.3,1.3-1.3h0.3c0.7,0,1.3,0.6,1.3,1.3v4.3
		C465.9,394.3,465.3,394.9,464.6,394.9z"/>
	<g>
		<polygon class="st12" points="496.5,384.9 509.2,384.9 496.5,373.4 		"/>
		<path class="st6" d="M497.5,378l2.7-6.4h3c0.9,0,1.5,0.7,1.5,1.5v9.5h-7.3V378z"/>
		<path class="st12" d="M500.2,371.6c0,0,1.6-0.4,1.6,4.6s0,6.4,0,6.4h3v-9.5c0-0.9-0.7-1.5-1.5-1.5H500.2z"/>
		<path class="st1" d="M463,359.6v25.3h33.5v-11.5l-8.1-7.8c-4.1-3.9-9.5-6.1-15.1-6.1H463z"/>
		<g>
			<path class="st6" d="M488.4,365.6c-4.1-3.9-9.5-6.1-15.1-6.1H463v2.3h10.4c5.1,0,10,2,13.7,5.5l7.3,7v10.4h2.2v-11.3L488.4,365.6
				z"/>
		</g>
		<rect x="463" y="378.5" class="st23" width="31.4" height="6.4"/>
		<linearGradient id="SVGID_6_" gradientUnits="userSpaceOnUse" x1="471.5057" y1="366.5612" x2="471.5057" y2="375.0833">
			<stop  offset="0" style="stop-color:#FFFFFF"/>
			<stop  offset="1" style="stop-color:#FFFFFF;stop-opacity:0"/>
		</linearGradient>
		<polygon class="st26" points="478.9,366.6 470.4,375.1 464.1,375.1 472.8,366.6 		"/>
		<linearGradient id="SVGID_7_" gradientUnits="userSpaceOnUse" x1="473.2773" y1="364.9691" x2="473.2773" y2="377.9344">
			<stop  offset="0" style="stop-color:#FFFFFF"/>
			<stop  offset="1" style="stop-color:#FFFFFF;stop-opacity:0"/>
		</linearGradient>
		<polygon class="st27" points="482.2,365 469.3,377.9 464.3,377.9 477.5,365 		"/>
		<linearGradient id="SVGID_8_" gradientUnits="userSpaceOnUse" x1="474.0676" y1="368.8645" x2="474.0676" y2="381.8298">
			<stop  offset="0" style="stop-color:#FFFFFF"/>
			<stop  offset="1" style="stop-color:#FFFFFF;stop-opacity:0"/>
		</linearGradient>
		<polygon class="st28" points="483,368.9 470.1,381.8 465.1,381.8 478.3,368.9 		"/>
	</g>
	<g>
		<g>
			<path class="st6" d="M329.5,373.9h-3.2c0,0-0.1,0-0.1,0.1v0.4c0,0,0,0.1,0.1,0.1h1.3v3.6c0,0,0,0.1,0.1,0.1h0.5
				c0,0,0.1,0,0.1-0.1v-3.6h1.3c0,0,0.1,0,0.1-0.1L329.5,373.9C329.5,373.9,329.5,373.9,329.5,373.9z"/>
			<path class="st6" d="M386.2,373.9H383c0,0-0.1,0-0.1,0.1v0.4c0,0,0,0.1,0.1,0.1h1.3v3.6c0,0,0,0.1,0.1,0.1h0.5c0,0,0.1,0,0.1-0.1
				v-3.6h1.3c0,0,0.1,0,0.1-0.1L386.2,373.9C386.2,373.9,386.2,373.9,386.2,373.9z"/>
			<path class="st6" d="M375.9,373.9h-3.2c0,0-0.1,0-0.1,0.1v0.4c0,0,0,0.1,0.1,0.1h1.3v3.6c0,0,0,0.1,0.1,0.1h0.5
				c0,0,0.1,0,0.1-0.1v-3.6h1.3c0,0,0.1,0,0.1-0.1L375.9,373.9C375.9,373.9,375.9,373.9,375.9,373.9z"/>
			<path class="st6" d="M334,376.4c0.7-0.2,1.1-0.6,1.1-1.2c0-0.3-0.1-0.6-0.3-0.9c-0.3-0.3-0.7-0.4-1.2-0.4h-1.8c0,0-0.1,0-0.1,0.1
				v4c0,0,0,0.1,0.1,0.1h0.5c0,0,0.1,0,0.1-0.1v-1.5h1.1l1.1,1.5c0,0,0,0,0,0h0.6c0,0,0,0,0,0c0,0,0,0,0-0.1L334,376.4z
				 M332.3,374.4h1.2c0.6,0,1,0.3,1,0.8c0,0.5-0.4,0.8-1,0.8h-1.2V374.4z"/>
			<path class="st6" d="M369.5,376.4c0.7-0.2,1.1-0.6,1.1-1.2c0-0.3-0.1-0.6-0.3-0.9c-0.3-0.3-0.7-0.4-1.2-0.4h-1.8
				c0,0-0.1,0-0.1,0.1v4c0,0,0,0.1,0.1,0.1h0.5c0,0,0.1,0,0.1-0.1v-1.5h1.1l1.1,1.5c0,0,0,0,0,0h0.6c0,0,0,0,0,0c0,0,0,0,0-0.1
				L369.5,376.4z M367.8,374.4h1.2c0.6,0,1,0.3,1,0.8c0,0.5-0.4,0.8-1,0.8h-1.2V374.4z"/>
			<path class="st6" d="M339.7,373.9h-0.4c0,0,0,0,0,0l-1.8,4c0,0,0,0,0,0c0,0,0,0,0,0h0.5c0,0,0,0,0,0l0.4-1h2.2l0.4,1c0,0,0,0,0,0
				h0.5c0,0,0,0,0,0c0,0,0,0,0,0L339.7,373.9C339.7,373.9,339.7,373.9,339.7,373.9z M340.3,376.5h-1.7l0.9-1.9L340.3,376.5z"/>
			<path class="st6" d="M379.6,373.9h-0.4c0,0,0,0,0,0l-1.8,4c0,0,0,0,0,0c0,0,0,0,0,0h0.5c0,0,0,0,0,0l0.4-1h2.2l0.4,1c0,0,0,0,0,0
				h0.5c0,0,0,0,0,0c0,0,0,0,0,0L379.6,373.9C379.7,373.9,379.6,373.9,379.6,373.9z M380.2,376.5h-1.7l0.9-1.9L380.2,376.5z"/>
			<path class="st6" d="M347.3,373.9h-0.4c0,0-0.1,0-0.1,0.1v3.1l-2.5-3.2c0,0,0,0,0,0h-0.4c0,0-0.1,0-0.1,0.1v4c0,0,0,0.1,0.1,0.1
				h0.4c0,0,0.1,0,0.1-0.1v-3.2l2.5,3.2c0,0,0,0,0,0h0.4c0,0,0.1,0,0.1-0.1L347.3,373.9C347.3,373.9,347.3,373.9,347.3,373.9z"/>
			<path class="st6" d="M414.4,373.9h-0.4c0,0-0.1,0-0.1,0.1v3.1l-2.5-3.2c0,0,0,0,0,0h-0.4c0,0-0.1,0-0.1,0.1v4c0,0,0,0.1,0.1,0.1
				h0.4c0,0,0.1,0,0.1-0.1v-3.2l2.5,3.2c0,0,0,0,0,0h0.4c0,0,0.1,0,0.1-0.1L414.4,373.9C414.4,373.9,414.4,373.9,414.4,373.9z"/>
			<path class="st6" d="M401.7,373.9h-0.4c0,0-0.1,0-0.1,0.1v3.1l-2.5-3.2c0,0,0,0,0,0h-0.4c0,0-0.1,0-0.1,0.1v4c0,0,0,0.1,0.1,0.1
				h0.4c0,0,0.1,0,0.1-0.1v-3.2l2.5,3.2c0,0,0,0,0,0h0.4c0,0,0.1,0,0.1-0.1L401.7,373.9C401.7,373.9,401.7,373.9,401.7,373.9z"/>
			<path class="st6" d="M351.5,375.7c-0.9-0.2-1.1-0.4-1.1-0.7c0-0.4,0.3-0.6,0.8-0.6c0.4,0,0.8,0.1,1.1,0.4c0,0,0,0,0,0
				c0,0,0,0,0,0l0.3-0.4c0,0,0-0.1,0-0.1c-0.4-0.4-0.9-0.5-1.5-0.5c-0.8,0-1.4,0.5-1.4,1.2c0,0.8,0.6,1.1,1.4,1.2
				c0.9,0.2,1,0.4,1,0.7c0,0.4-0.3,0.7-0.9,0.7c-0.5,0-0.9-0.2-1.4-0.6c0,0,0,0,0,0c0,0,0,0,0,0l-0.3,0.3c0,0,0,0.1,0,0.1
				c0.5,0.5,1.1,0.7,1.7,0.7c0.9,0,1.4-0.5,1.4-1.2C352.8,376.2,352.4,375.9,351.5,375.7z"/>
			<path class="st6" d="M356.8,373.9h-1.5c0,0-0.1,0-0.1,0.1v4c0,0,0,0.1,0.1,0.1h0.5c0,0,0.1,0,0.1-0.1v-1.3h0.9
				c0.8,0,1.7-0.4,1.7-1.4C358.4,374.4,357.8,373.9,356.8,373.9z M356.8,376.1h-1v-1.7h1c0.7,0,1,0.3,1,0.8
				C357.8,375.8,357.4,376.1,356.8,376.1z"/>
			<path class="st6" d="M362.6,373.8c-1.2,0-2.1,1-2.1,2.2c0,1.2,0.9,2.2,2.1,2.2c1.2,0,2.1-1,2.1-2.2
				C364.8,374.7,363.9,373.8,362.6,373.8z M362.6,377.6c-0.9,0-1.6-0.7-1.6-1.6c0-0.9,0.7-1.6,1.5-1.6c0.9,0,1.6,0.7,1.6,1.6
				C364.2,376.9,363.5,377.6,362.6,377.6z"/>
			<path class="st6" d="M389,373.9h-0.5c0,0-0.1,0-0.1,0.1v4c0,0,0,0.1,0.1,0.1h0.5c0,0,0.1,0,0.1-0.1L389,373.9
				C389.1,373.9,389,373.9,389,373.9z"/>
			<path class="st6" d="M393.6,373.8c-1.2,0-2.1,1-2.1,2.2c0,1.2,0.9,2.2,2.1,2.2c1.2,0,2.1-1,2.1-2.2
				C395.8,374.7,394.8,373.8,393.6,373.8z M393.6,377.6c-0.9,0-1.6-0.7-1.6-1.6c0-0.9,0.7-1.6,1.5-1.6c0.9,0,1.6,0.7,1.6,1.6
				C395.2,376.9,394.5,377.6,393.6,377.6z"/>
			<path class="st6" d="M408.2,373.9h-0.5c0,0-0.1,0-0.1,0.1v4c0,0,0,0.1,0.1,0.1h0.5c0,0,0.1,0,0.1-0.1L408.2,373.9
				C408.2,373.9,408.2,373.9,408.2,373.9z"/>
			<path class="st6" d="M420.6,377.3l-0.3-0.3c0,0,0,0,0,0c0,0,0,0,0,0c-0.4,0.3-0.7,0.6-1.3,0.6c-0.9,0-1.5-0.7-1.5-1.7
				c0-0.9,0.7-1.6,1.6-1.6c0.5,0,0.8,0.2,1.2,0.6c0,0,0,0,0,0c0,0,0,0,0,0l0.3-0.3c0,0,0-0.1,0-0.1c-0.4-0.4-0.9-0.7-1.6-0.7
				c-1.2,0-2.1,0.9-2.1,2.1c0,1.2,0.9,2.2,2.1,2.2C419.6,378.1,420.1,377.9,420.6,377.3C420.6,377.4,420.6,377.4,420.6,377.3z"/>
		</g>
		<g>
			<path class="st6" d="M366.6,355.5h-1.8c-0.3,0-0.5,0.2-0.5,0.5v14.6c0,0.3,0.2,0.5,0.5,0.5h1.8c0.3,0,0.5-0.2,0.5-0.5V356
				C367.1,355.7,366.9,355.5,366.6,355.5z"/>
			<path class="st6" d="M390,355.5h-1.8c-0.3,0-0.5,0.2-0.5,0.5v14.6c0,0.3,0.2,0.5,0.5,0.5h1.8c0.3,0,0.5-0.2,0.5-0.5V356
				C390.5,355.7,390.3,355.5,390,355.5z"/>
			<path class="st6" d="M404.7,355.5l-10,0c-0.3,0-0.5,0.2-0.5,0.5v14.6c0,0.3,0.2,0.5,0.5,0.5h10c0.3,0,0.5-0.2,0.5-0.5v-1.8
				c0-0.3-0.2-0.5-0.5-0.5H397v-3.9h5c0.3,0,0.5-0.2,0.5-0.5v-1.8c0-0.3-0.2-0.5-0.5-0.5h-5v-3.4h7.8c0.3,0,0.5-0.2,0.5-0.5V356
				C405.2,355.7,405,355.5,404.7,355.5z"/>
			<path class="st6" d="M383.6,355.5h-1.8c-0.3,0-0.5,0.2-0.5,0.5v10.2l-7.8-10.4c-0.1-0.1-0.1-0.1-0.2-0.2
				c-0.1-0.1-0.2-0.1-0.3-0.1h-1.8c-0.3,0-0.5,0.2-0.5,0.5v14.6c0,0.3,0.2,0.5,0.5,0.5h1.8c0.3,0,0.5-0.2,0.5-0.5v-10.2l7.9,10.5
				c0.1,0.1,0.1,0.1,0.2,0.2c0.1,0,0.1,0.1,0.2,0.1h1.8c0.3,0,0.5-0.2,0.5-0.5V356C384.1,355.7,383.9,355.5,383.6,355.5z"/>
			<path class="st23" d="M361,357.6c-0.1-0.2-0.4-0.3-0.7-0.2l-5,3.1l-2.8-4.8c-0.1-0.2-0.4-0.3-0.6-0.3h-0.8
				c-0.2,0-0.5,0.2-0.6,0.3l-8.9,14.9c-0.1,0.2,0,0.4,0.2,0.4h2.2c0.3,0,0.6-0.2,0.7-0.4l6.7-11.1l1.5,2.5l-2.5,1.5
				c0,0-0.2,0.2-0.3,0.2c-0.2,0.1-0.4,0.4-0.6,0.6l-0.8,1.4c-0.1,0.2-0.1,0.5,0.2,0.6l9.6,4.6c0,0,0.3,0.1,0.6,0.1l0,0l0,0
				c0,0,0.3,0,0.3,0h1.6c0.3,0,0.4-0.2,0.2-0.4c0,0-3.9-6.5-4-6.6c-0.1-0.2-0.4-0.2-0.6-0.1l-1.5,0.9c-0.2,0.1-0.3,0.4-0.2,0.6
				c0.1,0.1,0.6,1,0.6,1l-2.6-1.3l8.7-5.4c0.2-0.1,0.3-0.4,0.2-0.7L361,357.6z"/>
			<path class="st6" d="M423.4,361.1c0-3.1-2.8-5.6-6.1-5.6h-6.8c-0.3,0-0.5,0.2-0.5,0.5v6.6c0,0.3,0.2,0.5,0.5,0.5h1.8
				c0.3,0,0.5-0.2,0.5-0.5v-4.3h4.5c1.8,0,3.3,1.3,3.3,2.9c0,1.6-1.5,2.9-3.3,2.9h-9.5c-0.3,0-0.5,0.2-0.5,0.5v1.8
				c0,0.3,0.2,0.5,0.5,0.5h2.3v3.9c0,0.3,0.2,0.5,0.5,0.5h1.8c0.3,0,0.5-0.2,0.5-0.5v-3.9h5l2.3,3.9c0.1,0.2,0.5,0.4,0.7,0.4h2.2
				c0.2,0,0.4-0.2,0.2-0.4l-2.8-4.8c0,0,0.2-0.1,0.3-0.2C422.3,364.7,423.4,363,423.4,361.1z"/>
			<path class="st6" d="M339.5,361.1c0-3.1-2.8-5.6-6.1-5.6h-6.8c-0.3,0-0.5,0.2-0.5,0.5v6.6c0,0.3,0.2,0.5,0.5,0.5h1.8
				c0.3,0,0.5-0.2,0.5-0.5v-4.3h4.5c1.8,0,3.3,1.3,3.3,2.9c0,1.6-1.5,2.9-3.3,2.9h-9.5c-0.3,0-0.5,0.2-0.5,0.5v1.8
				c0,0.3,0.2,0.5,0.5,0.5h2.3v3.9c0,0.3,0.2,0.5,0.5,0.5h1.8c0.3,0,0.5-0.2,0.5-0.5v-3.9h5l2.3,3.9c0.1,0.2,0.5,0.4,0.7,0.4h2.2
				c0.2,0,0.4-0.2,0.2-0.4l-2.8-4.8c0,0,0.2-0.1,0.3-0.2C338.5,364.7,339.5,363,339.5,361.1z"/>
		</g>
	</g>
	<path class="st6" d="M543.1,393.5l-4,1.6c-1.1,0.5-1.9,1.6-1.9,2.8v15.7h5.9v-3h-3.7v-11c0-1.2,0.7-2.2,1.7-2.7l2-0.9V393.5z"/>
	<polygon class="st1" points="539.3,410.5 543.1,410.5 543.1,403.5 539.3,403.9 	"/>
	<g>
		<path class="st12" d="M501.2,422.9c0-9.4,7.7-17.1,17.1-17.1c9.4,0,17.1,7.7,17.1,17.1H501.2z"/>
		<g>
			<circle class="st11" cx="518.3" cy="422.9" r="13.4"/>
			<circle class="st23" cx="518.3" cy="422.9" r="8.3"/>
			<circle class="st24" cx="518.3" cy="422.9" r="1.8"/>
			<path class="st24" d="M518.3,428c-0.9,0-1.6,0.6-1.8,1.5c0.6,0.2,1.2,0.2,1.8,0.2c0.6,0,1.2-0.1,1.8-0.2
				C519.9,428.6,519.2,428,518.3,428z"/>
			<path class="st24" d="M514.2,425.2c0-1-0.8-1.8-1.8-1.8c-0.3,0-0.6,0.1-0.9,0.2c0.1,1.2,0.6,2.4,1.3,3.3
				C513.7,426.7,514.2,426,514.2,425.2z"/>
			<path class="st24" d="M524.1,423.4c-1,0-1.8,0.8-1.8,1.8c0,0.8,0.6,1.6,1.4,1.7c0.7-0.9,1.2-2.1,1.3-3.3
				C524.7,423.5,524.4,423.4,524.1,423.4z"/>
			<path class="st24" d="M522.1,419.6c0.6,0,1.1-0.3,1.5-0.8c-0.7-1-1.7-1.7-2.9-2.1c-0.2,0.3-0.4,0.7-0.4,1.1
				C520.3,418.7,521.1,419.6,522.1,419.6z"/>
			<path class="st24" d="M514.4,419.6c1,0,1.8-0.8,1.8-1.8c0-0.4-0.1-0.8-0.4-1.1c-1.1,0.4-2.1,1.2-2.9,2.1
				C513.3,419.3,513.8,419.6,514.4,419.6z"/>
		</g>
	</g>
	<path class="st6" d="M532.4,413.1"/>
	<path class="st12" d="M465.9,388.9h-1c-0.3,0-0.5,0.2-0.5,0.5v3.8c0,0.3,0.2,0.5,0.5,0.5h1V388.9z"/>
	<path class="st25" d="M289.9,329.1h3h157.4c3.4,0,6.1,2.7,6.1,6.1v84.8v3.1l3-0.1v-87.8c0-5-4.1-9.1-9.1-9.1H289.9V329.1z"/>
	<g>
		<path class="st25" d="M289.9,331.2h160.3c2.2,0,4.1,1.8,4.1,4.1v87.7h5.1v-85.3c0-7.4-4.1-11.5-9.2-11.5H289.9V331.2z"/>
	</g>
</g>
</svg>
