<svg xmlns="http://www.w3.org/2000/svg" id="Layer_1" viewBox="0 0 2008.8 587.3">
    <style>
        .st18{opacity:.29;fill:#1e1c1d}
        .fs-dec-3{opacity: 0}
        .fs-dec-1, .fs-dec-2, .fs-decor-5 {transform: translate3d(-200px,0,0); -webkit-transform: translate3d(-200px,0,0)}
    </style>
    <circle fill="#faa22f" cx="1614" cy="226.6" r="42.7"/>
    <path fill="#d4effc"
          d="M1439.4 237.3h-16.5c-5.1 0-9.4-4.1-9.4-9.3v-.2c0-5.2-4.2-9.4-9.4-9.4h-102.4c-5.2 0-9.4 4.2-9.4 9.4s4.2 9.4 9.4 9.4c7.3.1 10 1.8 11.5 4.4 1.4 2.6 1.5 5.7.3 8.4-1.2 2.5-3.3 5.2-7.4 5.2l-24.7.2c-5.2 0-9.4 4.2-9.4 9.4s4.2 9.4 9.4 9.4h100.4c5.2 0 9.4-4.2 9.4-9.4 0-1-.2-2-.5-2.9-.9-2.9 1.2-5.9 4.2-5.9h44.4c5.2 0 9.4-4.2 9.4-9.4.1-5-4.1-9.3-9.3-9.3z"/>
    <path fill="#4ea4ce"
          d="M1136 485.5l193.8-204.2 75.9-37.3 64.3-46.6 25.7 14.8 7.5-5 6.8 3.5 5.8-6.4 96.3 44.9 63.5 76.2 70.2 33 42.2 127.1z"/>
    <path fill="#0577ab"
          d="M1425.5 390.6s27.8-25.9 43.9-23.1c16.1 2.7 9-10 28.6-10s39.8 18.6 60.2 15.1c20.4-3.4 26.3-17.6 49.4-17.6s111.6 35.5 111.6 35.5l-293.7.1z"/>
    <path fill="#005c84"
          d="M1447.9 390.2s45.3-10 55.5-13c10.2-3 40.3-.7 59.8 0 19.4.7 40.1 3 50.1 0s20.9 4.3 30.5 5.7c9.5 1.3 53.1 7.4 53.1 7.4h-249z"/>
    <g class="fs-dec-1">
        <path fill="#61b4dc"
              d="M244 82.3l-.4.4v-.4l-1.7 2.5-45.4 61.3-48.3 40L34.5 405.5l430-.8-61.1-124.1-31.7-51.9-43.5-77-60.9-46.5-4.2 5.2-9.9-12z"/>
    </g>
    <g class="fs-dec-2">
        <path fill="#d4effc"
              d="M778.1 83.9h-26c-8.1 0-14.8-6.5-14.8-14.6v-.2c0-8.2-6.7-14.9-14.9-14.9H560.9c-8.2 0-14.9 6.7-14.9 14.9S552.7 84 560.9 84c11.5.2 15.8 2.8 18.1 7 2.3 4.1 2.4 9 .5 13.3-1.8 4-5.3 8.2-11.6 8.2l-39 .3c-8.2 0-14.9 6.7-14.9 14.9s6.7 14.9 14.9 14.9h158.3c8.2 0 14.9-6.7 14.9-14.9 0-1.6-.3-3.1-.7-4.6-1.5-4.6 1.8-9.4 6.7-9.4h70c8.2 0 14.9-6.7 14.9-14.9s-6.7-14.9-14.9-14.9z"/>
        <path fill="#d4effc"
              d="M512.5 100.8h-22.3c-7 0-12.7-5.6-12.7-12.6V88c0-7-5.7-12.8-12.8-12.8H326.2c-7 0-12.8 5.7-12.8 12.8 0 7 5.7 12.8 12.8 12.8 9.9.2 13.5 2.4 15.6 6 2 3.5 2.1 7.7.4 11.4-1.6 3.4-4.5 7.1-10 7.1l-33.4.3c-7 0-12.8 5.7-12.8 12.8 0 7 5.7 12.8 12.8 12.8h135.8c7 0 12.8-5.7 12.8-12.8 0-1.4-.2-2.7-.6-3.9-1.3-4 1.6-8 5.7-8h60.1c7 0 12.8-5.7 12.8-12.8-.2-7.1-5.9-12.9-12.9-12.9z"/>
    </g>
    <g class="fs-dec-1">
        <path fill="#4ea4ce"
              d="M214 405.5L363 118l63.4-52.4L480.2 0l21.4 20.8 6.6-7 5.4 4.9 5.6-6.7 79.7 60.9L656 173.8l41.4 68.1 80.2 162.6z"/>
        <path fill="#87d6f8"
              d="M432.9 64.7l-2.4 35.6 34.1-49.8L453 98.7l32-43.8L479.7 0l-15 22.5zM501.1 21.9l3.7 10.8 3.4-18.9zM514 18.7l-.6 22 5.5-28.3zM512.8 41.4L510 53.3l17.5 49.7 23 20.2 3.6-19.3L518 42.3z"/>
    </g>

    <path fill="#0577ab"
          d="M1948.4 390.1H1423c7.2 5.1 30.9 5 47.4 9.6 16.6 4.7 12.1 20.1 6.3 25.6s-12.3 9.8-20.1 12.3c-7.8 2.4-16.4 4-12.4 6.8 3.9 2.7 17 2.6 41.1 12s52.1 25.2 51.1 46.2c-1 21.1-30 22.7-42.4 22.8h454.4c33.3 0 60.4-30.3 60.4-67.6 0-37.4-27.1-67.7-60.4-67.7z"/>
    <g class="fs-dec-1">
        <path fill="#61b4dc"
              d="M560 446.5l131.1-124.2 51.3-22.6 43.5-28.4 11.7-9.7 10.8 15.7 4.6 2.1 3.4-4.3 65.6 27.7 43 46.3 47.5 20.1 28.5 77.3z"/>
    </g>

    <path fill="#0577ab"
          d="M1597.9 434.5c44.1-8 44.1-17.8 44.1-24 0-6.2-10.2-9.8-19-11-11.5-1.6-18.6-4.1-21-6-1.7-1-3.6-1.9-4.6-3.4H894c73.1 5.7 119.4 13.8 108 23.4-19 16 55 22 22 44-10.1 6.8-113.3 11.6-115 16-1.3 3.3-4.9 9.6-5 12-.2 6.3-140.2 17.7-282.4 22 333.6.1 877.5.2 880.7.2 0 0 73.3-7.1 108.6-12.2 46.6-8.2-16.6-30-29-39-12.8-8.3-27.7-14.1 16-22z"/>
    <path fill="#87d6f8"
          d="M621.6 507.5H428.3c54.4 2.5 124.1 2.1 193.3 0zM1000 494.5c20.7-1.4 66.5-2.3 70-2.3 58-.9 209.4-4 261-27.7 5.3-2.4 10.1-3.9 13-7 27.2-28.9-368-33-240-46 14.8-1.5 46-21-209-15l-835.7-6.4C26.5 390.1 0 420.4 0 457.8c0 17.5 5 33.7 16 45.7 15 1.8 392.3 3 412.3 4h193.3c142.2-4.4 372.1-12.6 378.4-13z"/>
    <path fill="#d4effc" d="M1691.8 587.3c-1.4-.7-2.8-1.3-4.2-2l-1.4-.2c1.9.6 3.7 1.3 5.6 2.2z"/>
    <g class="fs-dec-3">
        <path fill="#87d6f8"
              d="M1403.7 251.8l-5.9 34.6 44.9-46.3-17.8 46.3 41.8-40.6 3.3-48.3-24.8 15.3zM1494 214.7l4.4 12.9 3.1-18.7zM1508.4 213l-.8 26.4 8.4-34.9zM1498.9 239.4l-7.4 14.6 39.4 42.6-10.3-30.5-13-26.7zM1328.3 295.3l42.5-24.4-16.7 35.5v-16.7l-49.4 36.5zM770.5 287.4l4.7-3.5 10.1-4.4 7.6-3.8 4 6.2.6-20.6-11 6.6zM811.9 284.8l-.5 17.9 5-23.5z"/>
    </g>
    <path fill="#298dbf"
          d="M1320.3 377.4l89.9-6.8 35.1-9.9 22.1-9.5 81 39.3-255-.4zM669.3 386.5l89.9-6.8 35.1-9.8 22.1-9.4 81 39-255-.4z"/>
    <path fill="#61b4dc"
          d="M1147.7 391.6s27.8-25.9 43.9-23.1c16.1 2.7 9-10 28.6-10s39.8 18.6 60.2 15.1c20.4-3.4 26.3-17.6 49.4-17.6s65.7 36.4 89.3 35.4c23.5-.8-271.4.2-271.4.2z"/>
    <path fill="#005c84"
          d="M824.9 405.5s45.3-13.1 55.5-17 40.3-.9 59.8 0 40.1 3.9 50.1 0 20.9 5.6 30.5 7.4c9.5 1.8 53.1 9.6 53.1 9.6h-249z"/>
    <path fill="#298dbf"
          d="M641 385.4l-2.6 1.3-6-3.7-1.5 1-3.4-2.5-3.5 2.8-2.9-2.8-2.8 3-2.4-1.5-1.5 1-3.4-2.5-4 3.2-2-1.6-3 2.6-3.3-2-1.3.9-2.9-2.2-3.5 2.8-1.7-1.4-1.9 1.7-5-3.1-2.5 1.6-3.9-2.1-3 2.8-1.8-.9-4 3.2-3.5 2.8h.3l-3 2.7h71.8l14 1z"/>
    <path fill="#005c84" d="M786.7 397.5l-5.5 8h74.6l-4.2-10.3-3.5 2.8-53.8 1.2z"/>
    <path fill="#005c84" d="M834.7 401.9h19.4l-10-10.2z"/>
    <path fill="#005c84" d="M830.3 401.9h19.4l-9.9-12.4z"/>
    <path fill="#005c84" d="M825 405.5h19.4l-10.3-16z"/>
    <path fill="#005c84" d="M820.1 401.9h19.4l-9.9-10.2z"/>
    <path fill="#005c84" d="M815.8 401.9h19.4l-9.9-12.4z"/>
    <path fill="#005c84" d="M810.5 405.5h19.4l-10-13.7z"/>
    <path fill="#005c84" d="M806.3 401.6h16.8l-8.7-8.9z"/>
    <path fill="#005c84" d="M802.6 401.6h16.7l-8.6-10.8z"/>
    <path fill="#005c84" d="M798 404.8h16.8l-8.7-12z"/>
    <path fill="#005c84" d="M791.9 399.6h16.8l-8.6-8.8z"/>
    <path fill="#005c84" d="M788.2 399.6H805l-10.6-9.5z"/>
    <path fill="#005c84" d="M783.6 401.6h16.8l-10.2-8.8zM839.7 396.5l-5.5 8h74.6l-4.2-10.3-3.5 2.8-53.8 1.2z"/>
    <path fill="#005c84" d="M887.7 400.9h19.4l-10-10.2z"/>
    <path fill="#005c84" d="M883.3 400.9h19.4l-9.9-12.4z"/>
    <path fill="#005c84" d="M878 404.5h19.4l-10.3-16z"/>
    <path fill="#005c84" d="M873.1 400.9h19.4l-9.9-10.2z"/>
    <path fill="#005c84" d="M868.8 400.9h19.4l-9.9-12.4z"/>
    <path fill="#005c84" d="M863.5 404.5h19.4l-10-13.7z"/>
    <path fill="#005c84" d="M859.3 400.6h16.8l-8.7-8.9z"/>
    <path fill="#005c84" d="M855.6 400.6h16.7l-8.6-10.8z"/>
    <path fill="#005c84" d="M851 403.8h16.8l-8.7-12z"/>
    <path fill="#005c84" d="M844.9 398.6h16.8l-8.6-8.8z"/>
    <path fill="#005c84" d="M841.2 398.6H858l-10.6-9.5z"/>
    <path fill="#005c84" d="M836.6 400.6h16.8l-10.2-8.8z"/>
    <g>
        <path fill="#005c84" d="M744.3 399.5l-4.1 6h56l-3.2-7.7-2.6 2.1-40.3.9z"/>
        <path fill="#005c84" d="M780.3 402.8h14.6l-7.5-7.7z"/>
        <path fill="#005c84" d="M777.1 402.8h14.5l-7.5-9.3z"/>
        <path fill="#005c84" d="M773.1 405.5h14.5l-7.7-12z"/>
        <path fill="#005c84" d="M769.4 402.8H784l-7.5-7.7z"/>
        <path fill="#005c84" d="M766.2 402.8h14.5l-7.5-9.3z"/>
        <path fill="#005c84" d="M762.2 405.5h14.6l-7.5-10.3z"/>
        <g>
            <path fill="#005c84" d="M759 402.6h12.6l-6.5-6.7z"/>
            <path fill="#005c84" d="M756.2 402.6h12.6l-6.5-8.1z"/>
            <path fill="#005c84" d="M752.8 405h12.6l-6.5-9z"/>
        </g>
        <g>
            <path fill="#005c84" d="M748.2 401.1h12.6l-6.5-6.7z"/>
            <path fill="#005c84" d="M745.4 401.1H758l-7.9-7.1z"/>
            <path fill="#005c84" d="M742 402.6h12.6L747 396z"/>
        </g>
    </g>
    <path fill="#0577ab" d="M83.7 525.4h-.2 313.8H83.7z"/>
    <path fill="#005c84"
          d="M1465.3 525.4H397.4c320.9 0 1039.6.1 1039.6.1h1.1s48.7 0 60.8-.1h-33.6zM1540 500.5c1.1-21.1-24.1-34.7-50-44.1-25.9-9.4-34-10.9-40-12.9-4.9-1.6 2.6-3.6 11-6s13.4-6.7 19.7-12.2 11.1-20.9-6.7-25.6c-17.7-4.7-38.3-4.2-46-9.3.1 0-.1-.1 0 0 15.8 10.2 55.2 1.8 57.1 21.5 1.9 19.8-37 27.3-37.7 27.5-13.4 3.4-4 6.4 6 8.2 28.2 5.7 77.4 31.7 79.7 48.8 3 23-42.8 28.6-70.4 28.9h16.1-1 21.7c13.2.1 39.5-5.8 40.5-24.8zM1199.4 525.4H394.3h805.1zM1199.4 525.4h266-266z"/>
    <g>
        <path fill="#005c84" d="M1743.8 369.3l-12 23.1h163.7l-9.2-29.7-7.7 8.1-118 3.5z"/>
        <path fill="#005c84" d="M1849.1 382.1h42.6l-21.9-29.5z"/>
        <path fill="#005c84" d="M1839.6 382.1h42.6l-21.9-35.8z"/>
        <path fill="#005c84" d="M1828 392.4h42.5l-22.7-46.1z"/>
        <path fill="#005c84" d="M1817.2 382.1h42.6l-21.9-29.5z"/>
        <path fill="#005c84" d="M1807.8 382.1h42.6l-22-35.8z"/>
        <path fill="#005c84" d="M1796.1 392.4h42.6l-21.9-39.6z"/>
        <g>
            <path fill="#005c84" d="M1786.8 381.2h36.9l-19-25.6z"/>
            <path fill="#005c84" d="M1778.6 381.2h36.9l-19-31z"/>
            <path fill="#005c84" d="M1768.6 390.5h36.8l-19-34.6z"/>
        </g>
        <g>
            <path fill="#005c84" d="M1755.2 375.5h36.9l-19-25.6z"/>
            <path fill="#005c84" d="M1747.1 375.5h36.8l-23.1-27.3z"/>
            <path fill="#005c84" d="M1737 381.2h36.8l-22.2-25.3z"/>
        </g>
        <path fill="#0a476c"
              d="M1924.9 490.4h3.4l-7.1-20.3-3.4-18.5 8.4.5-22-108-15.1 33.7-4.7-13.5-5.3 14.4-10.8-31-10.6 28.8-11-31.5-13.7 37.3-6.4-15-13.6 12.3-16-23.6-9.9 26.9-18.7-53.7-15.9 43.1-7.3-17.3-38 119.9h4.4l-18 49.3H1931.2z"/>
        <g>
            <path fill="#147392" d="M1875.2 360.3l37.6 154.7h-32.5v9.3H1869.9V515h-32.5l37.6-154.7z"/>
            <path fill="#005c84" d="M1874.6 377.8h1v146.5h-1z"/>
            <path transform="rotate(-40.518 1869.85 415.998)" fill="#005c84" d="M1862.5 415.5h14.3v1h-14.3z"/>
            <path transform="rotate(-40.747 1867.026 436.084)" fill="#005c84" d="M1856.6 435.5h21v1h-21z"/>
            <path transform="rotate(-36.984 1864.495 455.564)" fill="#005c84" d="M1851.5 455.1h26.2v1h-26.2z"/>
            <path transform="rotate(-39.31 1861.813 476.568)" fill="#005c84" d="M1844.4 476.1h34.6v1h-34.6z"/>
            <path transform="rotate(-38.459 1858.648 498.608)" fill="#005c84" d="M1838 498.1h41.6v1H1838z"/>
            <path transform="rotate(-39.286 1872.717 395.982)" fill="#005c84" d="M1869.3 395.5h6.5v1h-6.5z"/>
            <path transform="rotate(-49.498 1880.444 416.034)" fill="#005c84" d="M1880 408.9h1v14.3h-1z"/>
            <path transform="rotate(-49.247 1883.033 436.097)" fill="#005c84" d="M1882.6 425.5h1v21h-1z"/>
            <path transform="rotate(-53.028 1885.652 455.57)" fill="#005c84" d="M1885.1 442.5h1v26.2h-1z"/>
            <path transform="rotate(-50.706 1888.445 476.574)" fill="#005c84" d="M1888 459.3h1v34.6h-1z"/>
            <path transform="rotate(-51.529 1891.392 498.666)" fill="#005c84" d="M1890.9 477.8h1v41.6h-1z"/>
            <path transform="rotate(-50.743 1877.633 396.056)" fill="#005c84" d="M1877.1 392.8h1v6.5h-1z"/>
            <g>
                <path fill="#147392" d="M1791.5 306.9l49.8 208h-43.1v9.4h-13.7v-9.4h-43.1l49.8-208z"/>
                <path fill="#005c84" d="M1790.9 330.1h1v194.1h-1z"/>
                <path transform="rotate(-40.518 1784.353 380.771)" fill="#005c84" d="M1774.7 380.3h18.9v1h-18.9z"/>
                <path transform="rotate(-40.747 1780.713 407.364)" fill="#005c84" d="M1766.9 406.8h27.9v1h-27.9z"/>
                <path transform="rotate(-36.984 1777.373 433.2)" fill="#005c84" d="M1760.2 432.7h34.7v1h-34.7z"/>
                <path transform="rotate(-39.31 1773.73 461.04)" fill="#005c84" d="M1750.7 460.5h45.8v1h-45.8z"/>
                <path transform="matrix(.7831 -.622 .622 .7831 79 1207.078)" fill="#005c84"
                      d="M1742.2 489.8h55.2v1h-55.2z"/>
                <path transform="rotate(-39.286 1788.16 354.24)" fill="#005c84" d="M1783.7 353.8h8.7v1h-8.7z"/>
                <path transform="rotate(-49.498 1798.475 380.81)" fill="#005c84" d="M1798.1 371.4h1v18.9h-1z"/>
                <path transform="rotate(-49.247 1801.909 407.376)" fill="#005c84" d="M1801.4 393.4h1v27.9h-1z"/>
                <path transform="rotate(-53.028 1805.295 433.214)" fill="#005c84" d="M1804.7 415.8h1v34.7h-1z"/>
                <path transform="rotate(-50.706 1809.074 461.045)" fill="#005c84" d="M1808.6 438.1h1v45.8h-1z"/>
                <path transform="rotate(-51.529 1813.02 490.316)" fill="#005c84" d="M1812.5 462.7h1v55.2h-1z"/>
                <path transform="rotate(-50.743 1794.766 354.306)" fill="#005c84" d="M1794.2 349.9h1v8.7h-1z"/>
            </g>
            <g>
                <path fill="#249979" d="M1728.1 360.3l37.6 154.7h-32.5v9.3H1722.8V515h-32.5l37.6-154.7z"/>
                <path fill="#167b5b" d="M1727.5 377.8h1v146.5h-1z"/>
                <path transform="rotate(-40.518 1722.737 416.004)" fill="#167b5b" d="M1715.4 415.5h14.3v1h-14.3z"/>
                <path transform="rotate(-40.747 1719.933 436.078)" fill="#167b5b" d="M1709.5 435.5h21v1h-21z"/>
                <path transform="rotate(-36.984 1717.406 455.56)" fill="#167b5b" d="M1704.4 455.1h26.2v1h-26.2z"/>
                <path transform="rotate(-39.31 1714.706 476.57)" fill="#167b5b" d="M1697.3 476.1h34.6v1h-34.6z"/>
                <path transform="rotate(-38.459 1711.56 498.608)" fill="#167b5b" d="M1690.9 498.1h41.6v1h-41.6z"/>
                <path transform="rotate(-39.286 1725.606 395.988)" fill="#167b5b" d="M1722.2 395.5h6.5v1h-6.5z"/>
                <path transform="rotate(-49.498 1733.374 416.029)" fill="#167b5b" d="M1732.9 408.9h1v14.3h-1z"/>
                <path transform="rotate(-49.247 1735.935 436.092)" fill="#167b5b" d="M1735.5 425.5h1v21h-1z"/>
                <path transform="rotate(-53.028 1738.545 455.571)" fill="#167b5b" d="M1738 442.5h1v26.2h-1z"/>
                <path transform="rotate(-50.706 1741.357 476.57)" fill="#167b5b" d="M1740.9 459.3h1v34.6h-1z"/>
                <path transform="rotate(-51.529 1744.3 498.662)" fill="#167b5b" d="M1743.8 477.8h1v41.6h-1z"/>
                <path transform="rotate(-50.743 1730.533 396.054)" fill="#167b5b" d="M1730 392.8h1v6.5h-1z"/>
            </g>
            <g>
                <path fill="#249979" d="M1839.1 331.8l44.1 183.3H1845v9.2h-12.1v-9.2h-38.1l44-183.3z"/>
                <path fill="#167b5b" d="M1838.5 352.4h1v171.9h-1z"/>
                <path transform="rotate(-40.518 1832.771 397.216)" fill="#167b5b" d="M1824.2 396.8h16.7v1h-16.7z"/>
                <path transform="rotate(-40.747 1829.511 420.77)" fill="#167b5b" d="M1817.3 420.2h24.7v1h-24.7z"/>
                <path transform="rotate(-36.984 1826.55 443.64)" fill="#167b5b" d="M1811.3 443.1h30.7v1h-30.7z"/>
                <path transform="rotate(-39.31 1823.355 468.289)" fill="#167b5b" d="M1803 467.8h40.6v1H1803z"/>
                <path transform="rotate(-38.459 1819.688 494.161)" fill="#167b5b" d="M1795.4 493.7h48.9v1h-48.9z"/>
                <path transform="rotate(-39.286 1836.14 373.726)" fill="#167b5b" d="M1832.1 373.3h7.7v1h-7.7z"/>
                <path transform="rotate(-49.498 1845.294 397.243)" fill="#167b5b" d="M1844.8 388.9h1v16.7h-1z"/>
                <path transform="rotate(-49.247 1848.304 420.78)" fill="#167b5b" d="M1847.8 408.4h1v24.7h-1z"/>
                <path transform="rotate(-53.028 1851.258 443.663)" fill="#167b5b" d="M1850.7 428.3h1V459h-1z"/>
                <path transform="rotate(-50.706 1854.637 468.293)" fill="#167b5b" d="M1854.2 448h1v40.6h-1z"/>
                <path transform="rotate(-51.529 1858.11 494.214)" fill="#167b5b" d="M1857.6 469.8h1v48.9h-1z"/>
                <path transform="rotate(-50.743 1842.013 373.782)" fill="#167b5b" d="M1841.4 369.9h1v7.7h-1z"/>
            </g>
            <g>
                <path fill="#249979" d="M1931.2 376.6l33.3 138.5h-28.8v9.2h-9.2v-9.2h-28.8l33.3-138.5z"/>
                <path fill="#167b5b" d="M1930.6 392.2h1v132.1h-1z"/>
                <path transform="rotate(-40.518 1926.46 426.05)" fill="#167b5b" d="M1920 425.6h12.6v1H1920z"/>
                <path transform="rotate(-40.747 1923.917 443.873)" fill="#167b5b" d="M1914.7 443.3h18.7v1h-18.7z"/>
                <path transform="rotate(-36.984 1921.667 461.14)" fill="#167b5b" d="M1910.2 460.6h23.2v1h-23.2z"/>
                <path transform="rotate(-39.31 1919.323 479.763)" fill="#167b5b" d="M1903.9 479.3h30.7v1h-30.7z"/>
                <path transform="rotate(-38.459 1916.482 499.3)" fill="#167b5b" d="M1898.2 498.8h36.9v1h-36.9z"/>
                <path transform="rotate(-39.286 1929 408.303)" fill="#167b5b" d="M1925.9 407.9h5.8v1h-5.8z"/>
                <path transform="rotate(-49.498 1935.928 426.063)" fill="#167b5b" d="M1935.4 419.8h1v12.6h-1z"/>
                <path transform="rotate(-49.247 1938.159 443.879)" fill="#167b5b" d="M1937.7 434.5h1v18.7h-1z"/>
                <path transform="rotate(-53.028 1940.393 461.16)" fill="#167b5b" d="M1939.9 449.5h1v23.2h-1z"/>
                <path transform="rotate(-50.706 1942.93 479.767)" fill="#167b5b" d="M1942.5 464.4h1v30.7h-1z"/>
                <path transform="rotate(-51.529 1945.573 499.35)" fill="#167b5b" d="M1945 480.9h1v36.9h-1z"/>
                <path transform="rotate(-50.743 1933.35 408.377)" fill="#167b5b" d="M1932.8 405.4h1v5.8h-1z"/>
            </g>
        </g>
    </g>
    <g>
        <path fill="#005c84" d="M1611.2 387.1l-10.6 20.4h144.9l-8.2-26.3-6.8 7.2-104.4 3.1z"/>
        <path fill="#005c84" d="M1704.4 398.4h37.7l-19.4-26.1z"/>
        <path fill="#005c84" d="M1696 398.4h37.7l-19.4-31.7z"/>
        <path fill="#005c84" d="M1685.7 407.5h37.7l-20.1-40.8z"/>
        <path fill="#005c84" d="M1676.2 398.4h37.7l-19.4-26.1z"/>
        <path fill="#005c84" d="M1667.8 398.4h37.7l-19.4-31.7z"/>
        <path fill="#005c84" d="M1657.5 407.5h37.7l-19.4-35z"/>
        <g>
            <path fill="#005c84" d="M1649.3 397.6h32.6l-16.8-22.6z"/>
            <path fill="#005c84" d="M1642 397.6h32.6l-16.7-27.5z"/>
            <path fill="#005c84" d="M1633.1 405.9h32.6l-16.8-30.7z"/>
        </g>
        <g>
            <path fill="#005c84" d="M1621.3 392.5h32.6l-16.8-22.6z"/>
            <path fill="#005c84" d="M1614.1 392.5h32.6l-20.5-24.2z"/>
            <path fill="#005c84" d="M1605.1 397.6h32.6l-19.6-22.4z"/>
        </g>
        <path fill="#0a476c"
              d="M1771.6 494.3h2.9l-6.2-18-3.1-16.4 7.5.4-19.5-95.5-13.4 29.8-4.1-11.9-4.7 12.7-9.6-27.5-9.4 25.6-9.7-27.9-12.2 33-5.6-13.3-12.1 10.9-14.1-20.9-8.8 23.8-16.5-47.5-14.1 38.1-6.5-15.3-33.6 106.2h3.9l-15.9 43.6h210.3z"/>
        <g>
            <path fill="#147392" d="M1727.5 379.1l33.3 137H1732v8.2h-9.1v-8.2h-28.8l33.2-137z"/>
            <path fill="#005c84" d="M1727 394.6h.9v129.7h-.9z"/>
            <path transform="rotate(-40.518 1722.79 428.412)" fill="#005c84" d="M1716.3 428h12.6v.9h-12.6z"/>
            <path transform="rotate(-40.747 1720.276 446.192)" fill="#005c84" d="M1711.1 445.7h18.6v.9h-18.6z"/>
            <path transform="rotate(-36.984 1718.034 463.437)" fill="#005c84" d="M1706.6 463h23.2v.9h-23.2z"/>
            <path transform="rotate(-39.31 1715.67 482.038)" fill="#005c84" d="M1700.3 481.6h30.6v.9h-30.6z"/>
            <path transform="rotate(-38.459 1712.858 501.545)" fill="#005c84" d="M1694.6 501.1h36.9v.9h-36.9z"/>
            <path transform="rotate(-39.286 1725.327 410.69)" fill="#005c84" d="M1722.3 410.3h5.8v.9h-5.8z"/>
            <path transform="rotate(-49.498 1732.158 428.44)" fill="#005c84" d="M1731.8 422.1h.9v12.6h-.9z"/>
            <path transform="rotate(-49.247 1734.45 446.207)" fill="#005c84" d="M1734 436.8h.9v18.6h-.9z"/>
            <path transform="rotate(-53.028 1736.775 463.448)" fill="#005c84" d="M1736.2 451.8h.9V475h-.9z"/>
            <path transform="rotate(-50.706 1739.243 482.04)" fill="#005c84" d="M1738.8 466.7h.9v30.6h-.9z"/>
            <path transform="rotate(-51.529 1741.853 501.601)" fill="#005c84" d="M1741.4 483.1h.9V520h-.9z"/>
            <path transform="rotate(-50.743 1729.672 410.755)" fill="#005c84" d="M1729.2 407.8h.9v5.8h-.9z"/>
            <g>
                <path fill="#147392" d="M1653.4 331.8l44.1 184.2h-38.1v8.3h-12.2V516h-38.1l44.1-184.2z"/>
                <path fill="#005c84" d="M1652.9 352.4h.9v171.9h-.9z"/>
                <path transform="rotate(-40.518 1647.093 397.223)" fill="#005c84" d="M1638.6 396.8h16.7v.9h-16.7z"/>
                <path transform="rotate(-40.747 1643.858 420.765)" fill="#005c84" d="M1631.6 420.3h24.7v.9h-24.7z"/>
                <path transform="rotate(-36.984 1640.9 443.636)" fill="#005c84" d="M1625.7 443.2h30.7v.9h-30.7z"/>
                <path transform="rotate(-39.31 1637.684 468.29)" fill="#005c84" d="M1617.3 467.8h40.6v.9h-40.6z"/>
                <path transform="rotate(-38.459 1634.04 494.16)" fill="#005c84" d="M1609.7 493.7h48.9v.9h-48.9z"/>
                <path transform="rotate(-39.286 1650.465 373.734)" fill="#005c84" d="M1646.5 373.3h7.7v.9h-7.7z"/>
                <path transform="rotate(-49.498 1659.586 397.254)" fill="#005c84" d="M1659.2 388.9h.9v16.7h-.9z"/>
                <path transform="rotate(-49.247 1662.626 420.778)" fill="#005c84" d="M1662.2 408.4h.9v24.7h-.9z"/>
                <path transform="rotate(-53.028 1665.629 443.654)" fill="#005c84" d="M1665.1 428.3h.9V459h-.9z"/>
                <path transform="rotate(-50.706 1668.971 468.292)" fill="#005c84" d="M1668.6 448h.9v40.6h-.9z"/>
                <path transform="rotate(-51.529 1672.468 494.209)" fill="#005c84" d="M1672 469.8h.9v48.9h-.9z"/>
                <path transform="rotate(-50.743 1656.305 373.791)" fill="#005c84" d="M1655.8 369.9h.9v7.7h-.9z"/>
            </g>
            <g>
                <path fill="#249979" d="M1597.3 379.1l33.2 137h-28.7v8.2h-9.2v-8.2h-28.8l33.3-137z"/>
                <path fill="#167b5b" d="M1596.7 394.6h.9v129.7h-.9z"/>
                <path transform="rotate(-40.518 1592.542 428.417)" fill="#167b5b" d="M1586.1 428h12.6v.9h-12.6z"/>
                <path transform="rotate(-40.747 1590.046 446.187)" fill="#167b5b" d="M1580.8 445.7h18.6v.9h-18.6z"/>
                <path transform="rotate(-36.984 1587.808 463.434)" fill="#167b5b" d="M1576.3 463h23.2v.9h-23.2z"/>
                <path transform="rotate(-39.31 1585.427 482.04)" fill="#167b5b" d="M1570 481.6h30.6v.9H1570z"/>
                <path transform="rotate(-38.459 1582.632 501.544)" fill="#167b5b" d="M1564.3 501.1h36.9v.9h-36.9z"/>
                <path transform="rotate(-39.286 1595.082 410.695)" fill="#167b5b" d="M1592 410.3h5.8v.9h-5.8z"/>
                <path transform="rotate(-49.498 1601.95 428.435)" fill="#167b5b" d="M1601.5 422.1h.9v12.6h-.9z"/>
                <path transform="rotate(-49.247 1604.215 446.202)" fill="#167b5b" d="M1603.8 436.8h.9v18.6h-.9z"/>
                <path transform="rotate(-53.028 1606.533 463.449)" fill="#167b5b" d="M1606 451.8h.9V475h-.9z"/>
                <path transform="rotate(-50.706 1609.018 482.037)" fill="#167b5b" d="M1608.6 466.7h.9v30.6h-.9z"/>
                <path transform="rotate(-51.529 1611.624 501.598)" fill="#167b5b" d="M1611.2 483.1h.9V520h-.9z"/>
                <path transform="rotate(-50.743 1599.435 410.753)" fill="#167b5b" d="M1599 407.8h.9v5.8h-.9z"/>
            </g>
            <g>
                <path fill="#249979" d="M1695.6 353.9l39 162.2h-33.8v8.2h-10.7v-8.2h-33.8l39-162.2z"/>
                <path fill="#167b5b" d="M1695 372.1h.9v152.2h-.9z"/>
                <path transform="rotate(-40.518 1689.961 411.783)" fill="#167b5b" d="M1682.4 411.4h14.8v.9h-14.8z"/>
                <path transform="rotate(-40.747 1687.062 432.635)" fill="#167b5b" d="M1676.2 432.2h21.9v.9h-21.9z"/>
                <path transform="rotate(-36.984 1684.439 452.88)" fill="#167b5b" d="M1671 452.4h27.2v.9H1671z"/>
                <path transform="rotate(-39.31 1681.62 474.708)" fill="#167b5b" d="M1663.6 474.3h35.9v.9h-35.9z"/>
                <path transform="rotate(-38.459 1678.365 497.607)" fill="#167b5b" d="M1656.9 497.2h43.3v.9h-43.3z"/>
                <path transform="rotate(-39.286 1692.944 390.986)" fill="#167b5b" d="M1689.4 390.6h6.8v.9h-6.8z"/>
                <path transform="rotate(-49.498 1701.04 411.803)" fill="#167b5b" d="M1700.6 404.4h.9v14.8h-.9z"/>
                <path transform="rotate(-49.247 1703.704 432.645)" fill="#167b5b" d="M1703.3 421.7h.9v21.9h-.9z"/>
                <path transform="rotate(-53.028 1706.321 452.905)" fill="#167b5b" d="M1705.9 439.3h.9v27.2h-.9z"/>
                <path transform="rotate(-50.706 1709.31 474.71)" fill="#167b5b" d="M1708.9 456.7h.9v35.9h-.9z"/>
                <path transform="rotate(-51.529 1712.387 497.66)" fill="#167b5b" d="M1711.9 476h.9v43.3h-.9z"/>
                <path transform="rotate(-50.743 1698.139 391.035)" fill="#167b5b" d="M1697.6 387.6h.9v6.8h-.9z"/>
            </g>
            <g>
                <path fill="#249979" d="M1777.1 393.6l29.5 122.6h-25.5v8.1h-8.2v-8.1h-25.5l29.5-122.6z"/>
                <path fill="#167b5b" d="M1776.6 407.3h.9v116.9h-.9z"/>
                <path transform="rotate(-40.518 1772.91 437.312)" fill="#167b5b" d="M1767.1 436.9h11.2v.9h-11.2z"/>
                <path transform="rotate(-40.747 1770.644 453.088)" fill="#167b5b" d="M1762.5 452.6h16.5v.9h-16.5z"/>
                <path transform="rotate(-36.984 1768.652 468.373)" fill="#167b5b" d="M1758.5 467.9h20.6v.9h-20.6z"/>
                <path transform="rotate(-39.31 1766.586 484.867)" fill="#167b5b" d="M1752.9 484.4h27.1v.9h-27.1z"/>
                <path transform="rotate(-38.459 1764.062 502.157)" fill="#167b5b" d="M1747.9 501.7h32.7v.9h-32.7z"/>
                <path transform="rotate(-39.286 1775.158 421.599)" fill="#167b5b" d="M1772.4 421.2h5.1v.9h-5.1z"/>
                <path transform="rotate(-49.498 1781.286 437.32)" fill="#167b5b" d="M1780.8 431.8h.9V443h-.9z"/>
                <path transform="rotate(-49.247 1783.258 453.096)" fill="#167b5b" d="M1782.8 444.8h.9v16.5h-.9z"/>
                <path transform="rotate(-53.028 1785.237 468.396)" fill="#167b5b" d="M1784.8 458.1h.9v20.6h-.9z"/>
                <path transform="rotate(-50.706 1787.482 484.868)" fill="#167b5b" d="M1787.1 471.3h.9v27.1h-.9z"/>
                <path transform="rotate(-51.529 1789.824 502.207)" fill="#167b5b" d="M1789.4 485.8h.9v32.7h-.9z"/>
                <path transform="rotate(-50.743 1779 421.663)" fill="#167b5b" d="M1778.5 419.1h.9v5.1h-.9z"/>
            </g>
        </g>
    </g>
    <path fill="#0a476c"
          d="M452.2 470.6h2.5l-5.3-15.2-2.5-13.9 6.3.4-16.5-81-11.4 25.3-3.5-10.1-3.9 10.7-8.1-23.2-8 21.6-8.2-23.6-10.3 28-4.8-11.3-10.2 9.3-12-17.8-7.4 20.2-14-40.2-12 32.2-5.4-12.9L289 459h3.3l-13.5 36.9h178.1z"/>
    <path fill="#0a476c"
          d="M549.8 476.3h2.2l-4.5-12.8-2.2-11.7 5.4.4-14-68.2-9.5 21.3-3-8.5-3.3 9-6.8-19.5-6.7 18.2-6.9-19.9-8.7 23.5-4-9.4-8.6 7.7-10.1-14.9-6.3 17-11.8-33.9-10 27.2-4.6-10.9-24 75.7h2.8l-11.4 31.1h150zM764.4 481.2h1.7l-3.5-9.8-1.6-9.1 4.1.3-19.7-51-13.7 14.2-9.4-16.3-12.3 17.8-15.8-23.5-13.7 20-3.5-8.5-18.5 58.4h2.1l-8.7 24H767.5z"/>
    <g>
        <path fill="#147392" d="M449 373l28.1 116.1h-24.3v6.9H445v-6.9h-24.3L448.8 373z"/>
        <path fill="#005c84" d="M448.5 386.2h.7V496h-.7z"/>
        <path transform="rotate(-40.518 444.884 414.861)" fill="#005c84" d="M439.5 414.5h10.7v.7h-10.7z"/>
        <path transform="rotate(-40.747 442.883 429.83)" fill="#005c84" d="M435 429.5h15.8v.7H435z"/>
        <path transform="rotate(-36.984 441.012 444.447)" fill="#005c84" d="M431.2 444.1h19.6v.7h-19.6z"/>
        <path transform="rotate(-39.31 438.888 460.232)" fill="#005c84" d="M425.9 459.8h25.9v.7h-25.9z"/>
        <path transform="rotate(-38.459 436.636 476.732)" fill="#005c84" d="M421.1 476.4h31.2v.7h-31.2z"/>
        <path transform="rotate(-39.286 447.043 399.853)" fill="#005c84" d="M444.5 399.5h4.9v.7h-4.9z"/>
        <path transform="rotate(-49.498 452.94 414.83)" fill="#005c84" d="M452.6 409.5h.7v10.7h-.7z"/>
        <path transform="rotate(-49.247 454.85 429.846)" fill="#005c84" d="M454.5 421.9h.7v15.8h-.7z"/>
        <path transform="rotate(-53.028 456.76 444.49)" fill="#005c84" d="M456.4 434.7h.7v19.6h-.7z"/>
        <path transform="rotate(-50.706 458.913 460.211)" fill="#005c84" d="M458.6 447.2h.7v25.9h-.7z"/>
        <path transform="rotate(-51.529 461.109 476.773)" fill="#005c84" d="M460.7 461.2h.7v31.2h-.7z"/>
        <path transform="rotate(-50.743 450.79 399.85)" fill="#005c84" d="M450.4 397.4h.7v4.9h-.7z"/>
        <g>
            <path fill="#147392" d="M386.3 333l37.3 156h-32.3v7H381v-7h-32.3L386 333z"/>
            <path fill="#005c84" d="M385.8 350.4h.7v145.5h-.7z"/>
            <path transform="rotate(-40.518 380.788 388.452)" fill="#005c84" d="M373.7 388.1h14.2v.7h-14.2z"/>
            <path transform="rotate(-40.747 378.176 408.3)" fill="#005c84" d="M367.8 407.9h20.9v.7h-20.9z"/>
            <path transform="rotate(-36.984 375.698 427.68)" fill="#005c84" d="M362.7 427.3h26v.7h-26z"/>
            <path transform="rotate(-39.31 372.853 448.59)" fill="#005c84" d="M355.7 448.2h34.4v.7h-34.4z"/>
            <path transform="rotate(-38.459 369.897 470.48)" fill="#005c84" d="M349.2 470.1h41.4v.7h-41.4z"/>
            <path transform="rotate(-39.286 383.652 368.56)" fill="#005c84" d="M380.4 368.2h6.5v.7h-6.5z"/>
            <path transform="rotate(-49.498 391.495 388.42)" fill="#005c84" d="M391.1 381.3h.7v14.2h-.7z"/>
            <path transform="rotate(-49.247 394.03 408.315)" fill="#005c84" d="M393.7 397.8h.7v20.9h-.7z"/>
            <path transform="rotate(-53.028 396.534 427.719)" fill="#005c84" d="M396.1 414.7h.7v26h-.7z"/>
            <path transform="rotate(-50.706 399.412 448.568)" fill="#005c84" d="M399 431.4h.7v34.4h-.7z"/>
            <path transform="rotate(-51.529 402.335 470.526)" fill="#005c84" d="M402 449.8h.7v41.4h-.7z"/>
            <path transform="rotate(-50.743 388.652 368.558)" fill="#005c84" d="M388.3 365.3h.7v6.5h-.7z"/>
        </g>
        <g>
            <path fill="#249979" d="M338.7 373l28.2 116.1h-24.4v6.9h-7.8v-6.9h-24.3L338.5 373z"/>
            <path fill="#167b5b" d="M338.2 386.2h.7V496h-.7z"/>
            <path transform="rotate(-40.518 334.596 414.866)" fill="#167b5b" d="M329.2 414.5h10.7v.7h-10.7z"/>
            <path transform="rotate(-40.747 332.61 429.827)" fill="#167b5b" d="M324.8 429.5h15.8v.7h-15.8z"/>
            <path transform="rotate(-36.984 330.74 444.445)" fill="#167b5b" d="M321 444.1h19.6v.7H321z"/>
            <path transform="rotate(-39.31 328.603 460.233)" fill="#167b5b" d="M315.6 459.8h25.9v.7h-25.9z"/>
            <path transform="rotate(-38.459 326.366 476.731)" fill="#167b5b" d="M310.8 476.4H342v.7h-31.2z"/>
            <path transform="rotate(-39.286 336.756 399.858)" fill="#167b5b" d="M334.3 399.5h4.9v.7h-4.9z"/>
            <path transform="rotate(-49.498 342.672 414.833)" fill="#167b5b" d="M342.3 409.5h.7v10.7h-.7z"/>
            <path transform="rotate(-49.247 344.572 429.842)" fill="#167b5b" d="M344.2 421.9h.7v15.8h-.7z"/>
            <path transform="rotate(-53.028 346.476 444.49)" fill="#167b5b" d="M346.1 434.7h.7v19.6h-.7z"/>
            <path transform="rotate(-50.706 348.638 460.211)" fill="#167b5b" d="M348.3 447.2h.7v25.9h-.7z"/>
            <path transform="rotate(-51.529 350.832 476.773)" fill="#167b5b" d="M350.5 461.2h.7v31.2h-.7z"/>
            <path transform="rotate(-50.743 340.511 399.848)" fill="#167b5b" d="M340.1 397.4h.7v4.9h-.7z"/>
        </g>
        <g>
            <path fill="#249979" d="M421.9 351.7L455 489.1h-28.7v6.9h-9v-6.9h-28.6l33-137.4z"/>
            <path fill="#167b5b" d="M421.4 367.1h.7V496h-.7z"/>
            <path transform="rotate(-40.518 417.086 400.78)" fill="#167b5b" d="M410.8 400.4h12.5v.7h-12.5z"/>
            <path transform="rotate(-40.747 414.76 418.351)" fill="#167b5b" d="M405.5 418H424v.7h-18.5z"/>
            <path transform="rotate(-36.984 412.564 435.508)" fill="#167b5b" d="M401.1 435.2h23v.7h-23z"/>
            <path transform="rotate(-39.31 410.057 454.025)" fill="#167b5b" d="M394.8 453.6h30.4v.7h-30.4z"/>
            <path transform="rotate(-38.459 407.429 473.398)" fill="#167b5b" d="M389.1 473.1h36.6v.7h-36.6z"/>
            <path transform="rotate(-39.286 419.622 383.168)" fill="#167b5b" d="M416.7 382.8h5.8v.7h-5.8z"/>
            <path transform="rotate(-49.498 426.57 400.754)" fill="#167b5b" d="M426.2 394.5h.7V407h-.7z"/>
            <path transform="rotate(-49.247 428.805 418.368)" fill="#167b5b" d="M428.4 409.1h.7v18.5h-.7z"/>
            <path transform="rotate(-53.028 431.008 435.542)" fill="#167b5b" d="M430.6 424h.7v23h-.7z"/>
            <path transform="rotate(-50.706 433.566 454.004)" fill="#167b5b" d="M433.2 438.8h.7v30.4h-.7z"/>
            <path transform="rotate(-51.529 436.148 473.442)" fill="#167b5b" d="M435.8 455.1h.7v36.6h-.7z"/>
            <path transform="rotate(-50.743 424.054 383.17)" fill="#167b5b" d="M423.7 380.3h.7v5.8h-.7z"/>
        </g>
        <g>
            <path fill="#249979" d="M491 385.3l24.9 103.8h-21.6v6.9h-6.9v-6.9h-21.6l25-103.8z"/>
            <path fill="#167b5b" d="M490.5 397h.7v99h-.7z"/>
            <path transform="rotate(-40.518 487.324 422.397)" fill="#167b5b" d="M482.5 422h9.5v.7h-9.5z"/>
            <path transform="rotate(-40.747 485.534 435.67)" fill="#167b5b" d="M478.6 435.3h14v.7h-14z"/>
            <path transform="rotate(-36.984 483.873 448.627)" fill="#167b5b" d="M475.2 448.3h17.4v.7h-17.4z"/>
            <path transform="rotate(-39.31 482.002 462.627)" fill="#167b5b" d="M470.5 462.2h23v.7h-23z"/>
            <path transform="rotate(-38.459 479.994 477.25)" fill="#167b5b" d="M466.2 476.9h27.7v.7h-27.7z"/>
            <path transform="rotate(-39.286 489.238 409.09)" fill="#167b5b" d="M487 408.7h4.4v.7H487z"/>
            <path transform="rotate(-49.498 494.488 422.378)" fill="#167b5b" d="M494.1 417.6h.7v9.5h-.7z"/>
            <path transform="rotate(-49.247 496.16 435.69)" fill="#167b5b" d="M495.8 428.7h.7v14h-.7z"/>
            <path transform="rotate(-53.028 497.827 448.662)" fill="#167b5b" d="M497.4 439.9h.7v17.4h-.7z"/>
            <path transform="rotate(-50.706 499.755 462.608)" fill="#167b5b" d="M499.4 451.1h.7v23h-.7z"/>
            <path transform="rotate(-51.529 501.712 477.296)" fill="#167b5b" d="M501.3 463.4h.7v27.7h-.7z"/>
            <path transform="rotate(-50.743 492.555 409.09)" fill="#167b5b" d="M492.2 406.9h.7v4.4h-.7z"/>
        </g>
    </g>
    <path fill="#0a476c"
          d="M680.7 471.1h2.5l-5.3-15.3-2.6-13.9 6.4.4-16.6-80.9-11.3 25.2-3.5-10.1-4 10.8-8-23.2-8 21.6-8.2-23.6-10.3 27.9-4.8-11.2-10.2 9.2-12-17.7-7.5 20.2-14-40.3-11.9 32.3-5.5-13-28.4 90h3.2l-13.4 36.9h178.1z"/>
    <g>
        <path fill="#147392" d="M643.4 373.5l28.2 116h-24.4v6.9H639.5v-6.9h-24.4l28.1-116z"/>
        <path fill="#005c84" d="M643 386.6h.7v109.8h-.7z"/>
        <path transform="rotate(-40.518 639.332 415.32)" fill="#005c84" d="M633.9 414.9h10.7v.7h-10.7z"/>
        <path transform="rotate(-40.747 637.306 430.304)" fill="#005c84" d="M629.5 429.9h15.8v.7h-15.8z"/>
        <path transform="rotate(-36.984 635.43 444.917)" fill="#005c84" d="M625.7 444.6h19.6v.7h-19.6z"/>
        <path transform="rotate(-39.31 633.329 460.697)" fill="#005c84" d="M620.3 460.3h25.9v.7h-25.9z"/>
        <path transform="rotate(-38.459 631.053 477.199)" fill="#005c84" d="M615.5 476.9h31.2v.7h-31.2z"/>
        <path transform="rotate(-39.286 641.489 400.312)" fill="#005c84" d="M639 399.9h4.9v.7H639z"/>
        <path transform="rotate(-49.498 647.364 415.298)" fill="#005c84" d="M647 410h.7v10.7h-.7z"/>
        <path transform="rotate(-49.247 649.279 430.319)" fill="#005c84" d="M648.9 422.4h.7v15.8h-.7z"/>
        <path transform="rotate(-53.028 651.201 444.954)" fill="#005c84" d="M650.8 435.1h.7v19.6h-.7z"/>
        <path transform="rotate(-50.706 653.341 460.68)" fill="#005c84" d="M653 447.7h.7v25.9h-.7z"/>
        <path transform="rotate(-51.529 655.54 477.242)" fill="#005c84" d="M655.2 461.6h.7v31.2h-.7z"/>
        <path transform="rotate(-50.743 645.223 400.318)" fill="#005c84" d="M644.9 397.9h.7v4.9h-.7z"/>
    </g>
    <g>
        <path fill="#147392" d="M580.7 333.5L618 489.4h-32.3v7H575.4v-7h-32.3l37.3-155.9z"/>
        <path fill="#005c84" d="M580.2 350.9h.7v145.5h-.7z"/>
        <path transform="rotate(-40.518 575.235 388.91)" fill="#005c84" d="M568.1 388.5h14.2v.7h-14.2z"/>
        <path transform="rotate(-40.747 572.598 408.773)" fill="#005c84" d="M562.2 408.4h20.9v.7h-20.9z"/>
        <path transform="rotate(-36.984 570.115 428.151)" fill="#005c84" d="M557.2 427.8h26v.7h-26z"/>
        <path transform="rotate(-39.31 567.294 449.055)" fill="#005c84" d="M550.1 448.7h34.4v.7h-34.4z"/>
        <path transform="rotate(-38.459 564.313 470.946)" fill="#005c84" d="M543.7 470.6h41.4v.7h-41.4z"/>
        <path transform="rotate(-39.286 578.098 369.019)" fill="#005c84" d="M574.8 368.6h6.5v.7h-6.5z"/>
        <path transform="rotate(-49.498 585.918 388.888)" fill="#005c84" d="M585.6 381.8h.7V396h-.7z"/>
        <path transform="rotate(-49.247 588.46 408.788)" fill="#005c84" d="M588.1 398.3h.7v20.9h-.7z"/>
        <path transform="rotate(-53.028 590.971 428.185)" fill="#005c84" d="M590.6 415.2h.7v26h-.7z"/>
        <path transform="rotate(-50.706 593.84 449.037)" fill="#005c84" d="M593.5 431.9h.7v34.4h-.7z"/>
        <path transform="rotate(-51.529 596.77 470.993)" fill="#005c84" d="M596.4 450.3h.7v41.4h-.7z"/>
        <path transform="rotate(-50.743 583.087 369.025)" fill="#005c84" d="M582.7 365.8h.7v6.5h-.7z"/>
    </g>
    <g>
        <path fill="#147392" d="M715.2 432.8l14.5 60.5h-12.5v2.7h-4v-2.7h-12.6l14.5-60.5z"/>
        <path fill="#005c84" d="M715 439.5h.3V496h-.3z"/>
        <path transform="rotate(-40.518 713.161 454.284)" fill="#005c84" d="M710.3 454.1h5.5v.3h-5.5z"/>
        <path transform="rotate(-40.747 712.05 461.995)" fill="#005c84" d="M708 461.8h8.1v.3H708z"/>
        <path transform="rotate(-36.984 711.078 469.504)" fill="#005c84" d="M706.1 469.4h10.1v.3h-10.1z"/>
        <path transform="rotate(-39.31 710.05 477.644)" fill="#005c84" d="M703.3 477.5h13.3v.3h-13.3z"/>
        <path transform="rotate(-38.459 708.827 486.11)" fill="#005c84" d="M700.9 486H717v.3h-16.1z"/>
        <path transform="rotate(-39.286 714.267 446.559)" fill="#005c84" d="M712.9 446.4h2.5v.3h-2.5z"/>
        <path transform="rotate(-49.498 717.23 454.26)" fill="#005c84" d="M717.1 451.5h.3v5.5h-.3z"/>
        <path transform="rotate(-49.247 718.227 462.012)" fill="#005c84" d="M718.1 457.9h.3v8.1h-.3z"/>
        <path transform="rotate(-53.028 719.231 469.54)" fill="#005c84" d="M719.1 464.5h.3v10.1h-.3z"/>
        <path transform="rotate(-50.706 720.318 477.627)" fill="#005c84" d="M720.2 471h.3v13.3h-.3z"/>
        <path transform="rotate(-51.529 721.478 486.158)" fill="#005c84" d="M721.3 478.1h.3v16.1h-.3z"/>
        <path transform="rotate(-50.743 716.163 446.568)" fill="#005c84" d="M716 445.3h.3v2.5h-.3z"/>
    </g>
    <g>
        <path fill="#249979" d="M533.1 373.5l28.2 116h-24.4v6.9H529.2v-6.9h-24.4l28.2-116z"/>
        <path fill="#167b5b" d="M532.7 386.6h.7v109.8h-.7z"/>
        <path transform="rotate(-40.518 529.043 415.324)" fill="#167b5b" d="M523.6 414.9h10.7v.7h-10.7z"/>
        <path transform="rotate(-40.747 527.032 430.3)" fill="#167b5b" d="M519.2 429.9H535v.7h-15.8z"/>
        <path transform="rotate(-36.984 525.158 444.915)" fill="#167b5b" d="M515.4 444.6H535v.7h-19.6z"/>
        <path transform="rotate(-39.31 523.044 460.698)" fill="#167b5b" d="M510.1 460.3H536v.7h-25.9z"/>
        <path transform="rotate(-38.459 520.782 477.198)" fill="#167b5b" d="M505.2 476.9h31.2v.7h-31.2z"/>
        <path transform="rotate(-39.286 531.202 400.316)" fill="#167b5b" d="M528.7 399.9h4.9v.7h-4.9z"/>
        <path transform="rotate(-49.498 537.098 415.3)" fill="#167b5b" d="M536.7 410h.7v10.7h-.7z"/>
        <path transform="rotate(-49.247 539.001 430.315)" fill="#167b5b" d="M538.6 422.4h.7v15.8h-.7z"/>
        <path transform="rotate(-53.028 540.917 444.955)" fill="#167b5b" d="M540.5 435.1h.7v19.6h-.7z"/>
        <path transform="rotate(-50.706 543.068 460.68)" fill="#167b5b" d="M542.7 447.7h.7v25.9h-.7z"/>
        <path transform="rotate(-51.529 545.264 477.241)" fill="#167b5b" d="M544.9 461.6h.7v31.2h-.7z"/>
        <path transform="rotate(-50.743 534.943 400.317)" fill="#167b5b" d="M534.6 397.9h.7v4.9h-.7z"/>
    </g>
    <g>
        <path fill="#249979" d="M616.3 352.2l33.1 137.4h-28.6v6.8h-9.1v-6.8h-28.6l33-137.4z"/>
        <path fill="#167b5b" d="M615.9 367.6h.7v128.9h-.7z"/>
        <path transform="rotate(-40.518 611.534 401.238)" fill="#167b5b" d="M605.2 400.9h12.5v.7h-12.5z"/>
        <path transform="rotate(-40.747 609.182 418.824)" fill="#167b5b" d="M600 418.4h18.5v.7H600z"/>
        <path transform="rotate(-36.984 606.982 435.978)" fill="#167b5b" d="M595.5 435.6h23v.7h-23z"/>
        <path transform="rotate(-39.31 604.498 454.49)" fill="#167b5b" d="M589.3 454.1h30.4v.7h-30.4z"/>
        <path transform="rotate(-38.459 601.845 473.865)" fill="#167b5b" d="M583.6 473.5h36.6v.7h-36.6z"/>
        <path transform="rotate(-39.286 614.068 383.626)" fill="#167b5b" d="M611.1 383.2h5.8v.7h-5.8z"/>
        <path transform="rotate(-49.498 620.998 401.22)" fill="#167b5b" d="M620.6 395h.7v12.5h-.7z"/>
        <path transform="rotate(-49.247 623.236 418.84)" fill="#167b5b" d="M622.9 409.6h.7v18.5h-.7z"/>
        <path transform="rotate(-53.028 625.442 436.01)" fill="#167b5b" d="M625.1 424.5h.7v23h-.7z"/>
        <path transform="rotate(-50.706 627.995 454.473)" fill="#167b5b" d="M627.6 439.3h.7v30.4h-.7z"/>
        <path transform="rotate(-51.529 630.581 473.91)" fill="#167b5b" d="M630.2 455.6h.7v36.6h-.7z"/>
        <path transform="rotate(-50.743 618.493 383.636)" fill="#167b5b" d="M618.1 380.7h.7v5.8h-.7z"/>
    </g>
    <g>
        <path fill="#249979" d="M685.4 385.8l24.9 103.8h-21.6v6.8h-6.8v-6.8h-21.6l24.9-103.8z"/>
        <path fill="#167b5b" d="M684.9 397.4h.7v99h-.7z"/>
        <path transform="rotate(-40.518 681.772 422.855)" fill="#167b5b" d="M677 422.5h9.5v.7H677z"/>
        <path transform="rotate(-40.747 679.956 436.143)" fill="#167b5b" d="M673 435.8h14v.7h-14z"/>
        <path transform="rotate(-36.984 678.29 449.097)" fill="#167b5b" d="M669.6 448.7H687v.7h-17.4z"/>
        <path transform="rotate(-39.31 676.443 463.092)" fill="#167b5b" d="M664.9 462.7h23v.7h-23z"/>
        <path transform="rotate(-38.459 674.41 477.717)" fill="#167b5b" d="M660.6 477.4h27.7v.7h-27.7z"/>
        <path transform="rotate(-39.286 683.683 409.549)" fill="#167b5b" d="M681.4 409.2h4.4v.7h-4.4z"/>
        <path transform="rotate(-49.498 688.922 422.84)" fill="#167b5b" d="M688.5 418.1h.7v9.5h-.7z"/>
        <path transform="rotate(-49.247 690.593 436.16)" fill="#167b5b" d="M690.2 429.1h.7v14h-.7z"/>
        <path transform="rotate(-53.028 692.262 449.13)" fill="#167b5b" d="M691.9 440.4h.7v17.4h-.7z"/>
        <path transform="rotate(-50.706 694.184 463.076)" fill="#167b5b" d="M693.8 451.6h.7v23h-.7z"/>
        <path transform="rotate(-51.529 696.147 477.764)" fill="#167b5b" d="M695.8 463.9h.7v27.7h-.7z"/>
        <path transform="rotate(-50.743 686.988 409.558)" fill="#167b5b" d="M686.6 407.4h.7v4.4h-.7z"/>
    </g>
    <g>
        <path fill="#147392" d="M771.7 425.4l16 66.6h-13.9v4.4h-4.4V492h-13.9l16.1-66.6z"/>
        <path fill="#0a476c" d="M771.4 432.9h.5v63.5h-.5z"/>
        <path transform="rotate(-40.518 769.387 449.217)" fill="#0a476c" d="M766.3 449h6.1v.5h-6.1z"/>
        <path transform="rotate(-40.747 768.165 457.748)" fill="#0a476c" d="M763.7 457.5h9v.5h-9z"/>
        <path transform="rotate(-36.984 767.09 466.052)" fill="#0a476c" d="M761.6 465.8h11.2v.5h-11.2z"/>
        <path transform="rotate(-39.31 765.95 475.046)" fill="#0a476c" d="M758.5 474.8h14.8v.5h-14.8z"/>
        <path transform="rotate(-38.459 764.6 484.412)" fill="#0a476c" d="M755.8 484.2h17.8v.5h-17.8z"/>
        <path transform="rotate(-39.286 770.61 440.676)" fill="#0a476c" d="M769.1 440.4h2.8v.5h-2.8z"/>
        <path transform="rotate(-49.498 773.948 449.202)" fill="#0a476c" d="M773.7 446.2h.5v6.1h-.5z"/>
        <path transform="rotate(-49.247 775.01 457.766)" fill="#0a476c" d="M774.8 453.3h.5v9h-.5z"/>
        <path transform="rotate(-53.028 776.088 466.085)" fill="#0a476c" d="M775.8 460.5h.5v11.2h-.5z"/>
        <path transform="rotate(-50.706 777.313 475.03)" fill="#0a476c" d="M777.1 467.7h.5v14.8h-.5z"/>
        <path transform="rotate(-51.529 778.582 484.46)" fill="#0a476c" d="M778.3 475.6h.5v17.8h-.5z"/>
        <path transform="rotate(-50.743 772.7 440.688)" fill="#0a476c" d="M772.5 439.3h.5v2.8h-.5z"/>
    </g>
    <g>
        <path fill="#249979" d="M747.3 385.8l24.9 103.8h-21.6v6.8h-6.8v-6.8h-21.7l25-103.8z"/>
        <path fill="#167b5b" d="M746.8 397.4h.7v99h-.7z"/>
        <path transform="rotate(-40.518 743.665 422.852)" fill="#167b5b" d="M738.8 422.5h9.5v.7h-9.5z"/>
        <path transform="rotate(-40.747 741.842 436.146)" fill="#167b5b" d="M734.9 435.8h14v.7h-14z"/>
        <path transform="rotate(-36.984 740.174 449.099)" fill="#167b5b" d="M731.5 448.7h17.4v.7h-17.4z"/>
        <path transform="rotate(-39.31 738.335 463.092)" fill="#167b5b" d="M726.8 462.7h23v.7h-23z"/>
        <path transform="rotate(-38.459 736.293 477.717)" fill="#167b5b" d="M722.5 477.4h27.7v.7h-27.7z"/>
        <path transform="rotate(-39.286 745.576 409.546)" fill="#167b5b" d="M743.3 409.2h4.4v.7h-4.4z"/>
        <path transform="rotate(-49.498 750.811 422.839)" fill="#167b5b" d="M750.4 418.1h.7v9.5h-.7z"/>
        <path transform="rotate(-49.247 752.481 436.162)" fill="#167b5b" d="M752.1 429.1h.7v14h-.7z"/>
        <path transform="rotate(-53.028 754.151 449.131)" fill="#167b5b" d="M753.8 440.4h.7v17.4h-.7z"/>
        <path transform="rotate(-50.706 756.072 463.077)" fill="#167b5b" d="M755.7 451.6h.7v23h-.7z"/>
        <path transform="rotate(-51.529 758.036 477.764)" fill="#167b5b" d="M757.7 463.9h.7v27.7h-.7z"/>
        <path transform="rotate(-50.743 748.877 409.558)" fill="#167b5b" d="M748.5 407.4h.7v4.4h-.7z"/>
    </g>
    <g>
        <path fill="#208569" d="M1413.7 369.4l10.3 43.3h-9v1.9h-2.8v-1.9h-9l10.4-43.3z"/>
        <path fill="#249979" d="M1413.3 374.3h.7v40.4h-.7z"/>
        <path transform="rotate(-40.518 1412.261 384.776)" fill="#249979" d="M1410.2 384.4h3.9v.7h-3.9z"/>
        <path transform="rotate(-40.747 1411.345 390.346)" fill="#249979" d="M1408.5 390h5.8v.7h-5.8z"/>
        <path transform="rotate(-36.984 1410.63 395.692)" fill="#249979" d="M1407.1 395.3h7.2v.7h-7.2z"/>
        <path transform="rotate(-39.31 1410.007 401.488)" fill="#249979" d="M1405.2 401.1h9.5v.7h-9.5z"/>
        <path transform="rotate(-38.459 1409.017 407.535)" fill="#249979" d="M1403.4 407.2h11.5v.7h-11.5z"/>
        <path transform="rotate(-39.286 1413.042 379.26)" fill="#249979" d="M1412 378.9h1.8v.7h-1.8z"/>
        <path transform="rotate(-49.498 1415.043 384.797)" fill="#249979" d="M1414.8 382.8h.7v3.9h-.7z"/>
        <path transform="rotate(-49.247 1415.854 390.347)" fill="#249979" d="M1415.5 387.4h.7v5.8h-.7z"/>
        <path transform="rotate(-53.023 1416.543 395.647)" fill="#249979" d="M1416.1 392.1h.7v7.2h-.7z"/>
        <path transform="rotate(-50.706 1417.272 401.49)" fill="#249979" d="M1416.9 396.7h.7v9.5h-.7z"/>
        <path transform="rotate(-51.529 1418.1 407.582)" fill="#249979" d="M1417.8 401.8h.7v11.5h-.7z"/>
        <path transform="rotate(-50.743 1414.313 379.311)" fill="#249979" d="M1414 378.4h.7v1.8h-.7z"/>
        <g>
            <path fill="#208569" d="M1401.4 380.5l7.8 32.2h-6.8v1.9h-2.1v-1.9h-6.8l7.8-32.2z"/>
            <path fill="#249979" d="M1401 384.2h.7v30.4h-.7z"/>
            <path transform="rotate(-40.518 1400.342 392.1)" fill="#249979" d="M1398.7 391.8h3v.7h-3z"/>
            <path transform="rotate(-40.747 1399.6 396.314)" fill="#249979" d="M1397.5 395.9h4.4v.7h-4.4z"/>
            <path transform="rotate(-36.984 1399.052 400.34)" fill="#249979" d="M1396.4 400h5.4v.7h-5.4z"/>
            <path transform="rotate(-39.31 1398.626 404.716)" fill="#249979" d="M1395 404.3h7.2v.7h-7.2z"/>
            <path transform="rotate(-38.459 1397.835 409.269)" fill="#249979" d="M1393.6 408.9h8.7v.7h-8.7z"/>
            <path transform="rotate(-39.286 1400.927 387.938)" fill="#249979" d="M1400.1 387.6h1.4v.7h-1.4z"/>
            <path transform="rotate(-49.502 1402.55 392.134)" fill="#249979" d="M1402.1 390.6h.7v3h-.7z"/>
            <path transform="rotate(-49.241 1402.977 396.258)" fill="#249979" d="M1402.6 394.1h.7v4.4h-.7z"/>
            <path transform="rotate(-53.023 1403.553 400.295)" fill="#249979" d="M1403.2 397.6h.7v5.4h-.7z"/>
            <path transform="rotate(-50.706 1404.082 404.718)" fill="#249979" d="M1403.8 401.1h.7v7.2h-.7z"/>
            <path transform="rotate(-51.529 1404.795 409.301)" fill="#249979" d="M1404.4 405h.7v8.7h-.7z"/>
            <path transform="rotate(-50.734 1401.926 387.971)" fill="#249979" d="M1401.5 387.3h.7v1.4h-.7z"/>
        </g>
        <g>
            <path fill="#208569" d="M1405.2 387.8l6.1 24.9h-5.2v1.9H1404.4v-1.9h-5.2l6-24.9z"/>
            <path fill="#249979" d="M1404.9 390.6h.7v24h-.7z"/>
            <path transform="rotate(-40.518 1404.485 396.704)" fill="#249979" d="M1403.2 396.4h2.3v.7h-2.3z"/>
            <path transform="rotate(-40.747 1403.861 399.98)" fill="#249979" d="M1402.2 399.6h3.4v.7h-3.4z"/>
            <path transform="rotate(-36.972 1403.543 403.106)" fill="#249979" d="M1401.4 402.7h4.2v.7h-4.2z"/>
            <path transform="rotate(-39.31 1403.142 406.48)" fill="#249979" d="M1400.3 406.1h5.6v.7h-5.6z"/>
            <path transform="rotate(-38.459 1402.488 409.996)" fill="#249979" d="M1399.2 409.7h6.7v.7h-6.7z"/>
            <path transform="rotate(-39.204 1404.928 393.48)" fill="#249979" d="M1404.3 393.2h1.1v.7h-1.1z"/>
            <path transform="rotate(-49.494 1406.153 396.75)" fill="#249979" d="M1405.7 395.6h.7v2.3h-.7z"/>
            <path transform="rotate(-49.25 1406.444 399.924)" fill="#249979" d="M1406.1 398.3h.7v3.4h-.7z"/>
            <path transform="rotate(-53.028 1406.95 403.106)" fill="#249979" d="M1406.5 401h.7v4.2h-.7z"/>
            <path transform="rotate(-50.706 1407.345 406.481)" fill="#249979" d="M1407 403.7h.7v5.6h-.7z"/>
            <path transform="rotate(-51.525 1407.852 409.999)" fill="#249979" d="M1407.5 406.7h.7v6.7h-.7z"/>
            <path transform="rotate(-50.758 1405.666 393.475)" fill="#249979" d="M1405.3 393h.7v1.1h-.7z"/>
        </g>
    </g>
    <g>
        <path fill="none"
              d="M1341.7 499.5H464.6l-.1.1h292.3s457.3 0 588.4-.1l-2.6-.1c-.3.1-.6.1-.9.1zM1426.7 390.8l-.3-.3c.2.1.3.2.3.3zM1429.6 393c.3.2.6.3.9.5-.4-.1-.7-.3-.9-.5z"/>
        <path fill="#0577ab" d="M60.2 525.4c1.1.1 2.2.1 3.3.1h349.9c1 0 2 0 3-.1H60.2z"/>
        <path fill="#005c84"
              d="M1431 393.9c-.2-.1-.4-.2-.6-.4-.3-.2-.6-.3-.9-.5-1.1-.6-2.1-1.3-2.8-2.2l-.3-.3c1 3 6.1 7 25.4 10 8.9 1.4 16.2 4.4 16.2 10s1 12.8-43.6 20c-44.3 7.1-34.4 20-17.2 29 12.6 8 70.6 25.7 23.3 33-35.8 4.5-99.9 3.4-99.9 3.4-3.2 0-524.1-.1-863.5-.1-125.1 0-416.4-.3-457.2-.3.8 1.3 2.1 2.8 3 4l452 1 291.8-1s531.2 6 623 0v.1c161.8-3.1 18.1-38 17.2-53.3-.9-16.3 71.6-13.3 73.6-33.9 1.3-14.2-26.8-10.9-39.5-18.5z"/>
        <path fill="#09334c"
              d="M1465.3 525.4h14.4-14.4zM1534 496.3c0-21.8-51-40.8-76-47.8-9.1-2.5-20.2-5.7-7.8-9.1.7-.2 36.6-7.6 34.9-27.5-1.8-19.8-43-11.4-57.4-21.8l-1.2.4.3.3c.7.9 1.7 1.6 2.8 2.2.3.2.6.3.9.5.2.1.4.2.6.4 12.7 7.6 40.8 4.3 39.6 18.5-2 20.6-80.8 18.9-74.6 34.1 7 17 79 30 50 45-18.7 9.7-181 9-181 9l-416-1c-3.5 0-6.3-1.3-9.2.1h-83l-109.9-.1-182.5.1L12 498.5c11 14.8 28.7 25.9 48.2 26.9h-3.5c7.7.1 13.6 0 26.9 0h310.7-.7 726.3-178.7 523.1c25.6-.3 69.7-3.4 69.7-29.1z"/>
    </g>

    <g>
        <path fill="#208569" d="M1516 401.3l10.4 42.9h-9v2.6h-2.9v-2.6h-9l10.4-42.9z"/>
        <path fill="#249979" d="M1515.6 406.2h.7v40.6h-.7z"/>
        <path transform="rotate(-40.518 1514.588 416.738)" fill="#249979" d="M1512.5 416.4h4v.7h-4z"/>
        <path transform="rotate(-40.747 1513.651 422.35)" fill="#249979" d="M1510.8 422h5.8v.7h-5.8z"/>
        <path transform="rotate(-36.984 1512.929 427.73)" fill="#249979" d="M1509.4 427.4h7.3v.7h-7.3z"/>
        <path transform="rotate(-39.31 1512.313 433.569)" fill="#249979" d="M1507.4 433.2h9.6v.7h-9.6z"/>
        <path transform="rotate(-38.459 1511.304 439.656)" fill="#249979" d="M1505.6 439.3h11.6v.7h-11.6z"/>
        <path transform="rotate(-39.204 1515.365 411.18)" fill="#249979" d="M1514.3 410.9h1.8v.7h-1.8z"/>
        <path transform="rotate(-49.498 1517.454 416.746)" fill="#249979" d="M1517.1 414.8h.7v4h-.7z"/>
        <path transform="rotate(-49.247 1518.202 422.35)" fill="#249979" d="M1517.8 419.4h.7v5.8h-.7z"/>
        <path transform="rotate(-53.028 1518.874 427.753)" fill="#249979" d="M1518.5 424.1h.7v7.3h-.7z"/>
        <path transform="rotate(-50.706 1519.631 433.57)" fill="#249979" d="M1519.3 428.8h.7v9.6h-.7z"/>
        <path transform="rotate(-51.529 1520.468 439.705)" fill="#249979" d="M1520.1 433.9h.7v11.6h-.7z"/>
        <path transform="rotate(-50.75 1516.74 411.193)" fill="#249979" d="M1516.3 410.3h.7v1.8h-.7z"/>
        <g>
            <path fill="#208569" d="M1492.8 386.5l13.8 57.7h-12v2.6h-3.8v-2.6h-11.9l13.8-57.7z"/>
            <path fill="#249979" d="M1492.4 392.9h.7v53.9h-.7z"/>
            <path transform="rotate(-40.518 1490.866 406.963)" fill="#249979" d="M1488.1 406.7h5.2v.7h-5.2z"/>
            <path transform="rotate(-40.747 1489.703 414.38)" fill="#249979" d="M1485.9 414h7.7v.7h-7.7z"/>
            <path transform="rotate(-36.972 1488.874 421.544)" fill="#249979" d="M1484.1 421.2h9.6v.7h-9.6z"/>
            <path transform="rotate(-39.31 1487.873 429.26)" fill="#249979" d="M1481.4 428.9h12.7v.7h-12.7z"/>
            <path transform="rotate(-38.459 1486.604 437.342)" fill="#249979" d="M1479.1 437h15.3v.7h-15.3z"/>
            <path transform="rotate(-39.204 1491.904 399.598)" fill="#249979" d="M1490.6 399.3h2.4v.7h-2.4z"/>
            <path transform="rotate(-49.498 1494.654 406.982)" fill="#249979" d="M1494.4 404.4h.7v5.2h-.7z"/>
            <path transform="rotate(-49.247 1495.602 414.396)" fill="#249979" d="M1495.3 410.5h.7v7.7h-.7z"/>
            <path transform="rotate(-53.032 1496.466 421.515)" fill="#249979" d="M1496.2 416.7h.7v9.6h-.7z"/>
            <path transform="rotate(-50.706 1497.651 429.255)" fill="#249979" d="M1497.3 422.9h.7v12.7h-.7z"/>
            <path transform="rotate(-51.529 1498.735 437.386)" fill="#249979" d="M1498.4 429.7h.7V445h-.7z"/>
            <path transform="rotate(-50.75 1493.706 399.617)" fill="#249979" d="M1493.3 398.4h.7v2.4h-.7z"/>
        </g>
        <g>
            <path fill="#208569" d="M1476.4 401.3l10.4 42.9h-9v2.6h-2.9v-2.6h-9l10.4-42.9z"/>
            <path fill="#249979" d="M1476 406.2h.7v40.6h-.7z"/>
            <path transform="rotate(-40.518 1474.955 416.74)" fill="#249979" d="M1472.8 416.4h4v.7h-4z"/>
            <path transform="rotate(-40.747 1474.023 422.348)" fill="#249979" d="M1471.2 422h5.8v.7h-5.8z"/>
            <path transform="rotate(-36.984 1473.302 427.73)" fill="#249979" d="M1469.8 427.4h7.3v.7h-7.3z"/>
            <path transform="rotate(-39.31 1472.681 433.57)" fill="#249979" d="M1467.8 433.2h9.6v.7h-9.6z"/>
            <path transform="rotate(-38.459 1471.678 439.656)" fill="#249979" d="M1466 439.3h11.6v.7H1466z"/>
            <path transform="rotate(-39.204 1475.733 411.182)" fill="#249979" d="M1474.7 410.9h1.8v.7h-1.8z"/>
            <path transform="rotate(-49.498 1477.824 416.747)" fill="#249979" d="M1477.5 414.8h.7v4h-.7z"/>
            <path transform="rotate(-49.247 1478.57 422.35)" fill="#249979" d="M1478.2 419.4h.7v5.8h-.7z"/>
            <path transform="rotate(-53.028 1479.243 427.753)" fill="#249979" d="M1478.9 424.1h.7v7.3h-.7z"/>
            <path transform="rotate(-50.706 1480.002 433.57)" fill="#249979" d="M1479.7 428.8h.7v9.6h-.7z"/>
            <path transform="rotate(-51.529 1480.838 439.704)" fill="#249979" d="M1480.5 433.9h.7v11.6h-.7z"/>
            <path transform="rotate(-50.75 1477.109 411.194)" fill="#249979" d="M1476.7 410.3h.7v1.8h-.7z"/>
        </g>
        <g>
            <path fill="#249979" d="M1506 393.4l12.2 50.8h-10.6v2.6h-3.4v-2.6h-10.5l12.2-50.8z"/>
            <path fill="#167b5b" d="M1505.6 399.1h.7v47.7h-.7z"/>
            <path transform="rotate(-40.518 1504.3 411.526)" fill="#167b5b" d="M1501.8 411.2h4.6v.7h-4.6z"/>
            <path transform="rotate(-40.747 1503.243 418.1)" fill="#167b5b" d="M1499.9 417.7h6.9v.7h-6.9z"/>
            <path transform="rotate(-36.972 1502.52 424.44)" fill="#167b5b" d="M1498.3 424.1h8.5v.7h-8.5z"/>
            <path transform="rotate(-39.31 1501.643 431.272)" fill="#167b5b" d="M1495.9 430.9h11.3v.7h-11.3z"/>
            <path transform="rotate(-38.459 1500.495 438.422)" fill="#167b5b" d="M1493.8 438.1h13.6v.7h-13.6z"/>
            <path transform="rotate(-39.286 1505.225 405.007)" fill="#167b5b" d="M1504 404.7h2.1v.7h-2.1z"/>
            <path transform="rotate(-49.502 1507.757 411.567)" fill="#167b5b" d="M1507.4 409.2h.7v4.6h-.7z"/>
            <path transform="rotate(-49.247 1508.52 418.108)" fill="#167b5b" d="M1508.2 414.6h.7v6.9h-.7z"/>
            <path transform="rotate(-53.028 1509.392 424.437)" fill="#167b5b" d="M1509 420.2h.7v8.5h-.7z"/>
            <path transform="rotate(-50.706 1510.31 431.263)" fill="#167b5b" d="M1509.9 425.6h.7v11.3h-.7z"/>
            <path transform="rotate(-51.529 1511.296 438.46)" fill="#167b5b" d="M1510.9 431.7h.7v13.6h-.7z"/>
            <path transform="rotate(-50.734 1506.867 405.034)" fill="#167b5b" d="M1506.4 404h.7v2.1h-.7z"/>
        </g>
        <g>
            <path fill="#249979" d="M1485.6 405.8l9.3 38.5h-8v2.5h-2.6v-2.5h-8l9.3-38.5z"/>
            <path fill="#167b5b" d="M1485.2 410.1h.7v36.6h-.7z"/>
            <path transform="rotate(-40.518 1484.395 419.529)" fill="#167b5b" d="M1482.5 419.2h3.5v.7h-3.5z"/>
            <path transform="rotate(-40.747 1483.542 424.509)" fill="#167b5b" d="M1481 424.1h5.2v.7h-5.2z"/>
            <path transform="rotate(-36.984 1482.898 429.277)" fill="#167b5b" d="M1479.8 428.9h6.4v.7h-6.4z"/>
            <path transform="rotate(-39.31 1482.371 434.455)" fill="#167b5b" d="M1478 434.1h8.5v.7h-8.5z"/>
            <path transform="rotate(-38.459 1481.458 439.848)" fill="#167b5b" d="M1476.5 439.5h10.2v.7h-10.2z"/>
            <path transform="rotate(-39.286 1485.09 414.602)" fill="#167b5b" d="M1484.2 414.3h1.6v.7h-1.6z"/>
            <path transform="rotate(-49.498 1486.941 419.533)" fill="#167b5b" d="M1486.6 417.8h.7v3.5h-.7z"/>
            <path transform="rotate(-49.247 1487.541 424.518)" fill="#167b5b" d="M1487.2 421.9h.7v5.2h-.7z"/>
            <path transform="rotate(-53.023 1488.132 429.244)" fill="#167b5b" d="M1487.8 426.1h.7v6.4h-.7z"/>
            <path transform="rotate(-50.706 1488.803 434.464)" fill="#167b5b" d="M1488.5 430.2h.7v8.5h-.7z"/>
            <path transform="rotate(-51.529 1489.634 439.89)" fill="#167b5b" d="M1489.3 434.8h.7V445h-.7z"/>
            <path transform="rotate(-50.743 1486.263 414.644)" fill="#167b5b" d="M1485.9 413.8h.7v1.6h-.7z"/>
        </g>
    </g>
    <g class="fs-decor-5">
        <path fill="#fff"
              d="M736 428.8h15.7c.6 0 1.2 0 1.8.1 5 .6 9.7 2.8 13.5 6.2l22.6 20.2c1.2 1.1 2.7 1.9 4.2 2.3l22.6 5.2c1.8.3 3.1 1.8 3.1 3.6v29.4h-6l-17.7-4.8-18.2 4.8H736v-67zM736 495.8h-69.9l-19.9-11.7-18.4 11.7h-61.4V399h160.4c5 0 9.1 4.1 9.1 9.1v87.7z"/>
        <path fill="#09334c" d="M627.9 495.8l6-14.5h25.7l6.5 14.5z"/>
        <ellipse cx="693" cy="478.1" rx="3.8" ry="3.7" fill="#dcf2fd"/>
        <circle fill="#0a476c" cx="693" cy="478.1" r="3"/>
        <path transform="rotate(-45.001 693.021 478.099)" fill="#0577ab" d="M690.9 477.7h4.3v.8h-4.3z"/>
        <circle fill="#005c84" cx="647" cy="495.8" r="13.4"/>
        <path fill="#d98229"
              d="M647 487.5c-4.6 0-8.3 3.7-8.3 8.3 0 4.6 3.7 8.3 8.3 8.3s8.3-3.7 8.3-8.3c0-4.5-3.7-8.3-8.3-8.3z"/>
        <path class="st18"
              d="M647 494c-1 0-1.8.8-1.8 1.8s.8 1.8 1.8 1.8 1.8-.8 1.8-1.8-.8-1.8-1.8-1.8zM647 500.9c-.9 0-1.6.6-1.8 1.5.6.2 1.2.2 1.8.2.6 0 1.2-.1 1.8-.2-.2-.9-.9-1.5-1.8-1.5zM642.9 498.1c0-1-.8-1.8-1.8-1.8-.3 0-.6.1-.9.2.1 1.2.6 2.4 1.3 3.3.9-.2 1.4-.9 1.4-1.7zM652.8 496.3c-1 0-1.8.8-1.8 1.8 0 .8.6 1.6 1.4 1.7.7-.9 1.2-2.1 1.3-3.3-.3-.1-.6-.2-.9-.2zM650.8 492.4c.6 0 1.1-.3 1.5-.8-.7-1-1.7-1.7-2.9-2.1-.2.3-.4.7-.4 1.1 0 1 .8 1.8 1.8 1.8zM643.1 492.4c1 0 1.8-.8 1.8-1.8 0-.4-.1-.8-.4-1.1-1.1.4-2.1 1.2-2.9 2.1.4.5.9.8 1.5.8z"/>
        <path fill="#b9d8e7"
              d="M733 464H579.2c-.8 0-1.5-.7-1.5-1.5s.7-1.5 1.5-1.5H733c.8 0 1.5.7 1.5 1.5s-.7 1.5-1.5 1.5zM622.7 487.2h-42.8c-.8 0-1.4-.6-1.4-1.4 0-.8.6-1.4 1.4-1.4h42.8c.8 0 1.4.6 1.4 1.4 0 .8-.7 1.4-1.4 1.4zM733.3 487.3h-63.1c-.8 0-1.5-.7-1.5-1.5s.7-1.5 1.5-1.5h63.1c.8 0 1.5.7 1.5 1.5s-.6 1.5-1.5 1.5zM804.6 475h-63.1c-.8 0-1.5-.7-1.5-1.5s.7-1.5 1.5-1.5h63.1c.8 0 1.5.7 1.5 1.5 0 .9-.7 1.5-1.5 1.5z"/>
        <path fill="#0a476c"
              d="M741.2 467.8h-.3c-.7 0-1.3-.6-1.3-1.3v-4.3c0-.7.6-1.3 1.3-1.3h.3c.7 0 1.3.6 1.3 1.3v4.3c0 .7-.6 1.3-1.3 1.3z"/>
        <g>
            <path fill="#09334c" d="M773 457.8h12.8L773 446.3z"/>
            <path fill="#0a476c" d="M774 450.9l2.7-6.4h3c.9 0 1.5.7 1.5 1.5v9.5H774v-4.6z"/>
            <path fill="#09334c" d="M776.7 444.5s1.6-.4 1.6 4.6v6.4h3V446c0-.9-.7-1.5-1.5-1.5h-3.1z"/>
            <path fill="#faa22f" d="M739.5 432.5v25.3H773v-11.5l-8.1-7.8c-4.1-3.9-9.5-6.1-15.1-6.1h-10.3z"/>
            <path fill="#0a476c"
                  d="M765 438.5c-4.1-3.9-9.5-6.1-15.1-6.1h-10.3v2.3H750c5.1 0 10 2 13.7 5.5l7.3 7v10.4h2.2v-11.3l-8.2-7.8z"/>
            <path fill="#d98229" d="M739.5 451.4h31.4v6.4h-31.4z"/>
            <linearGradient id="SVGID_1_" gradientUnits="userSpaceOnUse" x1="748.087" y1="439.45" x2="748.087"
                            y2="447.972">
                <stop offset="0" stop-color="#fff"/>
                <stop offset="1" stop-color="#fff" stop-opacity="0"/>
            </linearGradient>
            <path fill="url(#SVGID_1_)" d="M755.5 439.4L747 448h-6.3l8.7-8.6z"/>
            <linearGradient id="SVGID_2_" gradientUnits="userSpaceOnUse" x1="749.859" y1="437.858" x2="749.859"
                            y2="450.823">
                <stop offset="0" stop-color="#fff"/>
                <stop offset="1" stop-color="#fff" stop-opacity="0"/>
            </linearGradient>
            <path fill="url(#SVGID_2_)" d="M758.8 437.9l-12.9 12.9h-5l13.2-12.9z"/>
            <linearGradient id="SVGID_3_" gradientUnits="userSpaceOnUse" x1="750.649" y1="441.753" x2="750.649"
                            y2="454.719">
                <stop offset="0" stop-color="#fff"/>
                <stop offset="1" stop-color="#fff" stop-opacity="0"/>
            </linearGradient>
            <path fill="url(#SVGID_3_)" d="M759.6 441.8l-12.9 12.9h-5l13.2-12.9z"/>
        </g>
        <g>
            <path fill="#0a476c"
                  d="M606 446.8h-3.2s-.1 0-.1.1v.4s0 .1.1.1h1.3v3.6s0 .1.1.1h.5s.1 0 .1-.1v-3.6h1.3s.1 0 .1-.1l-.2-.5c.1 0 .1 0 0 0zM662.8 446.8h-3.2s-.1 0-.1.1v.4s0 .1.1.1h1.3v3.6s0 .1.1.1h.5s.1 0 .1-.1v-3.6h1.3s.1 0 .1-.1l-.2-.5zM652.4 446.8h-3.2s-.1 0-.1.1v.4s0 .1.1.1h1.3v3.6s0 .1.1.1h.5s.1 0 .1-.1v-3.6h1.3s.1 0 .1-.1l-.2-.5c.1 0 .1 0 0 0zM610.6 449.3c.7-.2 1.1-.6 1.1-1.2 0-.3-.1-.6-.3-.9-.3-.3-.7-.4-1.2-.4h-1.8s-.1 0-.1.1v4s0 .1.1.1h.5s.1 0 .1-.1v-1.5h1.1l1.1 1.5h.6v-.1l-1.2-1.5zm-1.7-2h1.2c.6 0 1 .3 1 .8s-.4.8-1 .8h-1.2v-1.6zM646.1 449.3c.7-.2 1.1-.6 1.1-1.2 0-.3-.1-.6-.3-.9-.3-.3-.7-.4-1.2-.4h-1.8s-.1 0-.1.1v4s0 .1.1.1h.5s.1 0 .1-.1v-1.5h1.1l1.1 1.5h.6v-.1l-1.2-1.5zm-1.7-2h1.2c.6 0 1 .3 1 .8s-.4.8-1 .8h-1.2v-1.6zM616.2 446.8h-.4l-1.8 4h.5l.4-1h2.2l.4 1h.5l-1.8-4c.1 0 .1 0 0 0zm.7 2.6h-1.7l.9-1.9.8 1.9zM656.2 446.8h-.4l-1.8 4h.5l.4-1h2.2l.4 1h.5l-1.8-4zm.6 2.6h-1.7l.9-1.9.8 1.9zM623.9 446.8h-.4s-.1 0-.1.1v3.1l-2.5-3.2h-.4s-.1 0-.1.1v4s0 .1.1.1h.4s.1 0 .1-.1v-3.2l2.5 3.2h.4s.1 0 .1-.1l-.1-4zM691 446.8h-.4s-.1 0-.1.1v3.1l-2.5-3.2h-.4s-.1 0-.1.1v4s0 .1.1.1h.4s.1 0 .1-.1v-3.2l2.5 3.2h.4s.1 0 .1-.1l-.1-4zM678.3 446.8h-.4s-.1 0-.1.1v3.1l-2.5-3.2h-.4s-.1 0-.1.1v4s0 .1.1.1h.4s.1 0 .1-.1v-3.2l2.5 3.2h.4s.1 0 .1-.1l-.1-4zM628.1 448.6c-.9-.2-1.1-.4-1.1-.7 0-.4.3-.6.8-.6.4 0 .8.1 1.1.4l.3-.4v-.1c-.4-.4-.9-.5-1.5-.5-.8 0-1.4.5-1.4 1.2 0 .8.6 1.1 1.4 1.2.9.2 1 .4 1 .7 0 .4-.3.7-.9.7-.5 0-.9-.2-1.4-.6l-.3.3v.1c.5.5 1.1.7 1.7.7.9 0 1.4-.5 1.4-1.2.2-.7-.2-1-1.1-1.2zM633.4 446.8h-1.5s-.1 0-.1.1v4s0 .1.1.1h.5s.1 0 .1-.1v-1.3h.9c.8 0 1.7-.4 1.7-1.4-.1-.9-.7-1.4-1.7-1.4zm-.1 2.2h-1v-1.7h1c.7 0 1 .3 1 .8.1.5-.3.9-1 .9zM639.2 446.7c-1.2 0-2.1 1-2.1 2.2 0 1.2.9 2.2 2.1 2.2 1.2 0 2.1-1 2.1-2.2.1-1.3-.9-2.2-2.1-2.2zm0 3.8c-.9 0-1.6-.7-1.6-1.6 0-.9.7-1.6 1.5-1.6.9 0 1.6.7 1.6 1.6.1.9-.6 1.6-1.5 1.6zM665.6 446.8h-.5s-.1 0-.1.1v4s0 .1.1.1h.5s.1 0 .1-.1l-.1-4.1zM670.2 446.7c-1.2 0-2.1 1-2.1 2.2 0 1.2.9 2.2 2.1 2.2 1.2 0 2.1-1 2.1-2.2 0-1.3-.9-2.2-2.1-2.2zm0 3.8c-.9 0-1.6-.7-1.6-1.6 0-.9.7-1.6 1.5-1.6.9 0 1.6.7 1.6 1.6.1.9-.6 1.6-1.5 1.6zM684.8 446.8h-.5s-.1 0-.1.1v4s0 .1.1.1h.5s.1 0 .1-.1l-.1-4.1zM697.2 450.2l-.3-.3c-.4.3-.7.6-1.3.6-.9 0-1.5-.7-1.5-1.7 0-.9.7-1.6 1.6-1.6.5 0 .8.2 1.2.6l.3-.3v-.1c-.4-.4-.9-.7-1.6-.7-1.2 0-2.1.9-2.1 2.1 0 1.2.9 2.2 2.1 2.2.6 0 1.1-.2 1.6-.8 0 .1 0 .1 0 0z"/>
            <g>
                <path fill="#0a476c"
                      d="M643.2 428.4h-1.8c-.3 0-.5.2-.5.5v14.6c0 .3.2.5.5.5h1.8c.3 0 .5-.2.5-.5v-14.6c0-.3-.2-.5-.5-.5zM666.6 428.4h-1.8c-.3 0-.5.2-.5.5v14.6c0 .3.2.5.5.5h1.8c.3 0 .5-.2.5-.5v-14.6c0-.3-.2-.5-.5-.5zM681.3 428.4h-10c-.3 0-.5.2-.5.5v14.6c0 .3.2.5.5.5h10c.3 0 .5-.2.5-.5v-1.8c0-.3-.2-.5-.5-.5h-7.8v-3.9h5c.3 0 .5-.2.5-.5V435c0-.3-.2-.5-.5-.5h-5v-3.4h7.8c.3 0 .5-.2.5-.5v-1.8c0-.2-.2-.4-.5-.4zM660.2 428.4h-1.8c-.3 0-.5.2-.5.5v10.2l-7.8-10.4-.2-.2c-.1-.1-.2-.1-.3-.1h-1.8c-.3 0-.5.2-.5.5v14.6c0 .3.2.5.5.5h1.8c.3 0 .5-.2.5-.5v-10.2l7.9 10.5.2.2c.1 0 .1.1.2.1h1.8c.3 0 .5-.2.5-.5V429c0-.4-.2-.6-.5-.6z"/>
                <path fill="#d98229"
                      d="M637.6 430.5c-.1-.2-.4-.3-.7-.2l-5 3.1-2.8-4.8c-.1-.2-.4-.3-.6-.3h-.8c-.2 0-.5.2-.6.3l-8.9 14.9c-.1.2 0 .4.2.4h2.2c.3 0 .6-.2.7-.4l6.7-11.1 1.5 2.5-2.5 1.5s-.2.2-.3.2c-.2.1-.4.4-.6.6l-.8 1.4c-.1.2-.1.5.2.6l9.6 4.6s.3.1.6.1H637.6c.3 0 .4-.2.2-.4 0 0-3.9-6.5-4-6.6-.1-.2-.4-.2-.6-.1l-1.5.9c-.2.1-.3.4-.2.6.1.1.6 1 .6 1l-2.6-1.3 8.7-5.4c.2-.1.3-.4.2-.7l-.8-1.4z"/>
                <path fill="#0a476c"
                      d="M700 434c0-3.1-2.8-5.6-6.1-5.6h-6.8c-.3 0-.5.2-.5.5v6.6c0 .3.2.5.5.5h1.8c.3 0 .5-.2.5-.5v-4.3h4.5c1.8 0 3.3 1.3 3.3 2.9 0 1.6-1.5 2.9-3.3 2.9h-9.5c-.3 0-.5.2-.5.5v1.8c0 .3.2.5.5.5h2.3v3.9c0 .3.2.5.5.5h1.8c.3 0 .5-.2.5-.5v-3.9h5l2.3 3.9c.1.2.5.4.7.4h2.2c.2 0 .4-.2.2-.4l-2.8-4.8s.2-.1.3-.2c1.5-1.1 2.6-2.8 2.6-4.7zM616.1 434c0-3.1-2.8-5.6-6.1-5.6h-6.8c-.3 0-.5.2-.5.5v6.6c0 .3.2.5.5.5h1.8c.3 0 .5-.2.5-.5v-4.3h4.5c1.8 0 3.3 1.3 3.3 2.9 0 1.6-1.5 2.9-3.3 2.9h-9.5c-.3 0-.5.2-.5.5v1.8c0 .3.2.5.5.5h2.3v3.9c0 .3.2.5.5.5h1.8c.3 0 .5-.2.5-.5v-3.9h5l2.3 3.9c.1.2.5.4.7.4h2.2c.2 0 .4-.2.2-.4l-2.8-4.8s.2-.1.3-.2c1.6-1.1 2.6-2.8 2.6-4.7z"/>
            </g>
        </g>
        <path fill="#0a476c"
              d="M819.6 466.3l-4 1.6c-1.1.5-1.9 1.6-1.9 2.8v15.7h5.9v-3h-3.7v-11c0-1.2.7-2.2 1.7-2.7l2-.9v-2.5z"/>
        <path fill="#faa22f" d="M815.9 483.4h3.7v-7l-3.7.4z"/>
        <g>
            <path fill="#09334c" d="M777.8 495.8c0-9.4 7.7-17.1 17.1-17.1s17.1 7.7 17.1 17.1h-34.2z"/>
            <circle fill="#005c84" cx="794.9" cy="495.8" r="13.4"/>
            <path fill="#d98229"
                  d="M794.9 487.5c-4.6 0-8.3 3.7-8.3 8.3 0 4.6 3.7 8.3 8.3 8.3s8.3-3.7 8.3-8.3c0-4.5-3.8-8.3-8.3-8.3z"/>
            <path class="st18"
                  d="M794.9 494c-1 0-1.8.8-1.8 1.8s.8 1.8 1.8 1.8 1.8-.8 1.8-1.8-.8-1.8-1.8-1.8zM794.9 500.9c-.9 0-1.6.6-1.8 1.5.6.2 1.2.2 1.8.2.6 0 1.2-.1 1.8-.2-.2-.9-1-1.5-1.8-1.5zM790.8 498.1c0-1-.8-1.8-1.8-1.8-.3 0-.6.1-.9.2.1 1.2.6 2.4 1.3 3.3.8-.2 1.4-.9 1.4-1.7zM800.7 496.3c-1 0-1.8.8-1.8 1.8 0 .8.6 1.6 1.4 1.7.7-.9 1.2-2.1 1.3-3.3-.3-.1-.6-.2-.9-.2zM798.7 492.4c.6 0 1.1-.3 1.5-.8-.7-1-1.7-1.7-2.9-2.1-.2.3-.4.7-.4 1.1 0 1 .8 1.8 1.8 1.8zM791 492.4c1 0 1.8-.8 1.8-1.8 0-.4-.1-.8-.4-1.1-1.1.4-2.1 1.2-2.9 2.1.4.5.9.8 1.5.8z"/>
        </g>
        <path fill="#09334c" d="M742.5 461.8h-1c-.3 0-.5.2-.5.5v3.8c0 .3.2.5.5.5h1v-4.8z"/>
        <path fill="#b9d8e7" d="M566.5 402h160.4c3.4 0 6.1 2.7 6.1 6.1V496l3-.1v-87.8c0-5-4.1-9.1-9.1-9.1H566.5v3z"/>
        <g>
            <path fill="#b9d8e7"
                  d="M566.5 404.1h160.3c2.2 0 4.1 1.8 4.1 4.1v87.7h5.1v-85.3c0-7.4-4.1-11.5-9.2-11.5H566.5v5z"/>
        </g>
    </g>
    <path fill="#0a476c"
          d="M281.3 465.8h3l-6.3-18.1-3.1-16.6 7.6.5-19.7-96.4-13.5 30.1-4.2-12.1-4.7 12.8-9.7-27.6-9.5 25.7-9.7-28.1-12.3 33.3-5.7-13.4-12.2 11-14.2-21.1-8.9 24-16.7-47.9-14.2 38.4-6.5-15.4L86.9 452h3.9l-16.1 44H286.9z"/>
    <g>
        <path fill="#147392" d="M270.9 349.6l33.6 138.2h-29.1v8.3h-9.2v-8.3h-29l33.5-138.2z"/>
        <path fill="#005c84" d="M270.4 365.3h.9v130.8h-.9z"/>
        <path transform="rotate(-40.518 266.02 399.439)" fill="#005c84" d="M259.6 399h12.7v.9h-12.7z"/>
        <path transform="rotate(-40.747 263.679 417.264)" fill="#005c84" d="M254.3 416.8h18.8v.9h-18.8z"/>
        <path transform="rotate(-36.984 261.455 434.683)" fill="#005c84" d="M249.8 434.3h23.4v.9h-23.4z"/>
        <path transform="rotate(-39.31 258.89 453.482)" fill="#005c84" d="M243.4 453h30.9v.9h-30.9z"/>
        <path transform="rotate(-38.459 256.242 473.148)" fill="#005c84" d="M237.7 472.7h37.2v.9h-37.2z"/>
        <path transform="rotate(-39.286 268.595 381.56)" fill="#005c84" d="M265.6 381.1h5.8v.9h-5.8z"/>
        <path transform="rotate(-49.498 275.654 399.402)" fill="#005c84" d="M275.2 393h.9v12.7h-.9z"/>
        <path transform="rotate(-49.247 277.925 417.279)" fill="#005c84" d="M277.5 407.9h.9v18.8h-.9z"/>
        <path transform="rotate(-53.028 280.182 434.728)" fill="#005c84" d="M279.7 423h.9v23.4h-.9z"/>
        <path transform="rotate(-50.706 282.764 453.459)" fill="#005c84" d="M282.3 438h.9v30.9h-.9z"/>
        <path transform="rotate(-51.529 285.377 473.187)" fill="#005c84" d="M284.9 454.6h.9v37.2h-.9z"/>
        <path transform="rotate(-50.743 273.084 381.548)" fill="#005c84" d="M272.6 378.6h.9v5.8h-.9z"/>
        <g>
            <path fill="#147392" d="M196.2 301.9l44.5 185.8h-38.5v8.4H189.9v-8.4h-38.4l44.4-185.8z"/>
            <path fill="#005c84" d="M195.6 322.7h.9v173.4h-.9z"/>
            <path transform="rotate(-40.518 189.663 367.978)" fill="#005c84" d="M181.2 367.5h16.9v.9h-16.9z"/>
            <path transform="rotate(-40.747 186.594 391.614)" fill="#005c84" d="M174.2 391.2h24.9v.9h-24.9z"/>
            <path transform="rotate(-36.984 183.647 414.71)" fill="#005c84" d="M168.2 414.3h31v.9h-31z"/>
            <path transform="rotate(-39.31 180.223 439.614)" fill="#005c84" d="M159.7 439.1h40.9v.9h-40.9z"/>
            <path transform="rotate(-38.459 176.737 465.7)" fill="#005c84" d="M152.1 465.3h49.3v.9h-49.3z"/>
            <path transform="rotate(-39.286 193.079 344.282)" fill="#005c84" d="M189.2 343.8h7.8v.9h-7.8z"/>
            <path transform="rotate(-49.498 202.458 367.94)" fill="#005c84" d="M202 359.5h.9v16.9h-.9z"/>
            <path transform="rotate(-49.247 205.471 391.629)" fill="#005c84" d="M205 379.2h.9v24.9h-.9z"/>
            <path transform="rotate(-53.028 208.44 414.749)" fill="#005c84" d="M208 399.2h.9v31h-.9z"/>
            <path transform="rotate(-50.706 211.882 439.589)" fill="#005c84" d="M211.4 419.1h.9V460h-.9z"/>
            <path transform="rotate(-51.529 215.353 465.746)" fill="#005c84" d="M214.9 441.1h.9v49.3h-.9z"/>
            <path transform="rotate(-50.743 199.054 344.272)" fill="#005c84" d="M198.6 340.4h.9v7.8h-.9z"/>
        </g>
        <g>
            <path fill="#249979" d="M139.6 349.6l33.5 138.2h-29v8.3H134.8v-8.3h-29l33.5-138.2z"/>
            <path fill="#167b5b" d="M139 365.3h.9v130.8h-.9z"/>
            <path transform="rotate(-40.518 134.635 399.444)" fill="#167b5b" d="M128.2 399h12.7v.9h-12.7z"/>
            <path transform="rotate(-40.747 132.31 417.259)" fill="#167b5b" d="M122.9 416.8h18.8v.9h-18.8z"/>
            <path transform="rotate(-36.984 130.09 434.68)" fill="#167b5b" d="M118.4 434.3h23.4v.9h-23.4z"/>
            <path transform="rotate(-39.31 127.51 453.483)" fill="#167b5b" d="M112.1 453H143v.9h-30.9z"/>
            <path transform="rotate(-38.459 124.879 473.147)" fill="#167b5b" d="M106.3 472.7h37.2v.9h-37.2z"/>
            <path transform="rotate(-39.286 137.212 381.566)" fill="#167b5b" d="M134.3 381.1h5.8v.9h-5.8z"/>
            <path transform="rotate(-49.498 144.29 399.405)" fill="#167b5b" d="M143.8 393h.9v12.7h-.9z"/>
            <path transform="rotate(-49.247 146.552 417.274)" fill="#167b5b" d="M146.1 407.9h.9v18.8h-.9z"/>
            <path transform="rotate(-53.028 148.801 434.729)" fill="#167b5b" d="M148.3 423h.9v23.4h-.9z"/>
            <path transform="rotate(-50.706 151.394 453.459)" fill="#167b5b" d="M151 438h.9v30.9h-.9z"/>
            <path transform="rotate(-51.529 154.004 473.187)" fill="#167b5b" d="M153.6 454.6h.9v37.2h-.9z"/>
            <path transform="rotate(-50.743 141.71 381.547)" fill="#167b5b" d="M141.3 378.6h.9v5.8h-.9z"/>
        </g>
        <g>
            <path fill="#249979" d="M238.7 324.2L278 487.9h-34v8.2h-10.9v-8.2h-34l39.3-163.7z"/>
            <path fill="#167b5b" d="M238.1 342.6h.9v153.5h-.9z"/>
            <path transform="rotate(-40.518 232.906 382.664)" fill="#167b5b" d="M225.4 382.2h14.9v.9h-14.9z"/>
            <path transform="rotate(-40.747 230.175 403.588)" fill="#167b5b" d="M219.2 403.2h22.1v.9h-22.1z"/>
            <path transform="rotate(-36.984 227.566 424.034)" fill="#167b5b" d="M213.9 423.6h27.4v.9h-27.4z"/>
            <path transform="rotate(-39.31 224.544 446.088)" fill="#167b5b" d="M206.4 445.6h36.2v.9h-36.2z"/>
            <path transform="rotate(-38.459 221.448 469.176)" fill="#167b5b" d="M199.6 468.8h43.6v.9h-43.6z"/>
            <path transform="rotate(-39.286 235.929 361.684)" fill="#167b5b" d="M232.5 361.2h6.9v.9h-6.9z"/>
            <path transform="rotate(-49.498 244.234 382.634)" fill="#167b5b" d="M243.8 375.2h.9v14.9h-.9z"/>
            <path transform="rotate(-49.247 246.895 403.606)" fill="#167b5b" d="M246.5 392.6h.9v22.1h-.9z"/>
            <path transform="rotate(-53.028 249.515 424.068)" fill="#167b5b" d="M249.1 410.3h.9v27.4h-.9z"/>
            <path transform="rotate(-50.706 252.569 446.064)" fill="#167b5b" d="M252.1 427.9h.9v36.2h-.9z"/>
            <path transform="rotate(-51.529 255.638 469.219)" fill="#167b5b" d="M255.2 447.4h.9V491h-.9z"/>
            <path transform="rotate(-50.743 241.221 361.68)" fill="#167b5b" d="M240.8 358.2h.9v6.9h-.9z"/>
        </g>
        <g>
            <path fill="#147392" d="M294.8 364.2l29.8 123.7h-25.8v8.2h-8.2v-8.2h-25.7l29.7-123.7z"/>
            <path fill="#0a476c" d="M294.3 378.1h.9v118h-.9z"/>
            <path transform="rotate(-40.518 290.48 408.417)" fill="#0a476c" d="M284.8 407.9h11.3v.9h-11.3z"/>
            <path transform="rotate(-40.747 288.393 424.22)" fill="#0a476c" d="M280.1 423.8h16.7v.9h-16.7z"/>
            <path transform="rotate(-36.984 286.42 439.662)" fill="#0a476c" d="M276.1 439.2h20.7v.9h-20.7z"/>
            <path transform="rotate(-39.31 284.155 456.336)" fill="#0a476c" d="M270.4 455.9h27.4v.9h-27.4z"/>
            <path transform="rotate(-38.459 281.8 473.765)" fill="#0a476c" d="M265.3 473.4h33v.9h-33z"/>
            <path transform="rotate(-39.286 292.764 392.566)" fill="#0a476c" d="M290.1 392.1h5.2v.9h-5.2z"/>
            <path transform="rotate(-49.498 299.039 408.395)" fill="#0a476c" d="M298.6 402.7h.9V414h-.9z"/>
            <path transform="rotate(-49.247 301.035 424.24)" fill="#0a476c" d="M300.6 415.9h.9v16.7h-.9z"/>
            <path transform="rotate(-53.028 303.017 439.698)" fill="#0a476c" d="M302.6 429.3h.9V450h-.9z"/>
            <path transform="rotate(-50.706 305.321 456.314)" fill="#0a476c" d="M304.9 442.6h.9V470h-.9z"/>
            <path transform="rotate(-51.529 307.645 473.81)" fill="#0a476c" d="M307.2 457.3h.9v33h-.9z"/>
            <path transform="rotate(-50.743 296.74 392.556)" fill="#0a476c" d="M296.3 390h.9v5.2h-.9z"/>
        </g>
    </g>
    <path fill="#0a476c"
          d="M228.2 465.8h3l-6.3-18.1-3-16.6 7.5.5-19.7-96.4-13.5 30.1-4.2-12.1-4.7 12.8-9.6-27.6-9.5 25.7-9.8-28.1-12.3 33.3-5.7-13.4-12.2 11-14.2-21.1-8.9 24-16.7-47.9-14.2 38.4-6.5-15.4L33.8 452h3.9l-16.1 44H233.8z"/>
    <g>
        <path fill="#147392" d="M217.9 349.6l33.5 138.2h-29v8.3H213.1v-8.3h-29l33.5-138.2z"/>
        <path fill="#005c84" d="M217.3 365.3h.9v130.8h-.9z"/>
        <path transform="rotate(-40.518 212.941 399.441)" fill="#005c84" d="M206.5 399h12.7v.9h-12.7z"/>
        <path transform="rotate(-40.747 210.607 417.262)" fill="#005c84" d="M201.2 416.8H220v.9h-18.8z"/>
        <path transform="rotate(-36.984 208.384 434.682)" fill="#005c84" d="M196.7 434.3h23.4v.9h-23.4z"/>
        <path transform="rotate(-39.31 205.812 453.482)" fill="#005c84" d="M190.4 453h30.9v.9h-30.9z"/>
        <path transform="rotate(-38.459 203.172 473.147)" fill="#005c84" d="M184.6 472.7h37.2v.9h-37.2z"/>
        <path transform="rotate(-39.286 215.517 381.563)" fill="#005c84" d="M212.6 381.1h5.8v.9h-5.8z"/>
        <path transform="rotate(-49.498 222.582 399.402)" fill="#005c84" d="M222.1 393h.9v12.7h-.9z"/>
        <path transform="rotate(-49.247 224.85 417.277)" fill="#005c84" d="M224.4 407.9h.9v18.8h-.9z"/>
        <path transform="rotate(-53.028 227.104 434.728)" fill="#005c84" d="M226.6 423h.9v23.4h-.9z"/>
        <path transform="rotate(-50.706 229.69 453.458)" fill="#005c84" d="M229.3 438h.9v30.9h-.9z"/>
        <path transform="rotate(-51.529 232.302 473.187)" fill="#005c84" d="M231.9 454.6h.9v37.2h-.9z"/>
        <path transform="rotate(-50.743 220.009 381.548)" fill="#005c84" d="M219.6 378.6h.9v5.8h-.9z"/>
        <g>
            <path fill="#147392" d="M143.1 301.9l44.5 185.8h-38.5v8.4h-12.2v-8.4H98.4l44.4-185.8z"/>
            <path fill="#005c84" d="M142.5 322.7h.9v173.4h-.9z"/>
            <path transform="rotate(-40.518 136.584 367.98)" fill="#005c84" d="M128.1 367.5H145v.9h-16.9z"/>
            <path transform="rotate(-40.747 133.521 391.612)" fill="#005c84" d="M121.1 391.2H146v.9h-24.9z"/>
            <path transform="rotate(-36.984 130.576 414.708)" fill="#005c84" d="M115.1 414.3h31v.9h-31z"/>
            <path transform="rotate(-39.31 127.146 439.614)" fill="#005c84" d="M106.7 439.1h40.9v.9h-40.9z"/>
            <path transform="rotate(-38.459 123.666 465.699)" fill="#005c84" d="M99 465.3h49.3v.9H99z"/>
            <path transform="rotate(-39.286 140 344.284)" fill="#005c84" d="M136.1 343.8h7.8v.9h-7.8z"/>
            <path transform="rotate(-49.498 149.386 367.939)" fill="#005c84" d="M148.9 359.5h.9v16.9h-.9z"/>
            <path transform="rotate(-49.247 152.397 391.627)" fill="#005c84" d="M152 379.2h.9v24.9h-.9z"/>
            <path transform="rotate(-53.028 155.363 414.749)" fill="#005c84" d="M154.9 399.2h.9v31h-.9z"/>
            <path transform="rotate(-50.706 158.808 439.588)" fill="#005c84" d="M158.4 419.1h.9V460h-.9z"/>
            <path transform="rotate(-51.529 162.277 465.745)" fill="#005c84" d="M161.8 441.1h.9v49.3h-.9z"/>
            <path transform="rotate(-50.743 145.978 344.272)" fill="#005c84" d="M145.5 340.4h.9v7.8h-.9z"/>
        </g>
        <g>
            <path fill="#249979" d="M86.5 349.6L120 487.8H91v8.3h-9.2v-8.3H52.7l33.6-138.2z"/>
            <path fill="#167b5b" d="M85.9 365.3h.9v130.8h-.9z"/>
            <path transform="rotate(-40.518 81.556 399.447)" fill="#167b5b" d="M75.2 399h12.7v.9H75.2z"/>
            <path transform="rotate(-40.747 79.239 417.257)" fill="#167b5b" d="M69.9 416.8h18.8v.9H69.9z"/>
            <path transform="rotate(-36.984 77.019 434.679)" fill="#167b5b" d="M65.3 434.3h23.4v.9H65.3z"/>
            <path transform="rotate(-39.31 74.432 453.483)" fill="#167b5b" d="M59 453h30.9v.9H59z"/>
            <path transform="rotate(-38.459 71.808 473.147)" fill="#167b5b" d="M53.2 472.7h37.2v.9H53.2z"/>
            <path transform="rotate(-39.286 84.133 381.568)" fill="#167b5b" d="M81.2 381.1H87v.9h-5.8z"/>
            <path transform="rotate(-49.498 91.216 399.405)" fill="#167b5b" d="M90.8 393h.9v12.7h-.9z"/>
            <path transform="rotate(-49.247 93.478 417.272)" fill="#167b5b" d="M93 407.9h.9v18.8H93z"/>
            <path transform="rotate(-53.028 95.724 434.729)" fill="#167b5b" d="M95.3 423h.9v23.4h-.9z"/>
            <path transform="rotate(-50.706 98.32 453.458)" fill="#167b5b" d="M97.9 438h.9v30.9h-.9z"/>
            <path transform="rotate(-51.529 100.93 473.186)" fill="#167b5b" d="M100.5 454.6h.9v37.2h-.9z"/>
            <path transform="rotate(-50.743 88.634 381.546)" fill="#167b5b" d="M88.2 378.6h.9v5.8h-.9z"/>
        </g>
        <g>
            <path fill="#249979" d="M185.6 324.2L225 487.9h-34.1v8.2h-10.8v-8.2H146l39.3-163.7z"/>
            <path fill="#167b5b" d="M185 342.6h.9v153.5h-.9z"/>
            <path transform="rotate(-40.518 179.826 382.667)" fill="#167b5b" d="M172.3 382.2h14.9v.9h-14.9z"/>
            <path transform="rotate(-40.747 177.103 403.586)" fill="#167b5b" d="M166.1 403.2h22.1v.9h-22.1z"/>
            <path transform="rotate(-36.984 174.495 424.033)" fill="#167b5b" d="M160.8 423.6h27.4v.9h-27.4z"/>
            <path transform="rotate(-39.31 171.466 446.088)" fill="#167b5b" d="M153.3 445.6h36.2v.9h-36.2z"/>
            <path transform="rotate(-38.459 168.377 469.176)" fill="#167b5b" d="M146.6 468.8h43.6v.9h-43.6z"/>
            <path transform="rotate(-39.286 182.85 361.686)" fill="#167b5b" d="M179.4 361.2h6.9v.9h-6.9z"/>
            <path transform="rotate(-49.498 191.16 382.634)" fill="#167b5b" d="M190.7 375.2h.9v14.9h-.9z"/>
            <path transform="rotate(-49.247 193.82 403.604)" fill="#167b5b" d="M193.4 392.6h.9v22.1h-.9z"/>
            <path transform="rotate(-53.028 196.44 424.067)" fill="#167b5b" d="M196 410.3h.9v27.4h-.9z"/>
            <path transform="rotate(-50.706 199.495 446.064)" fill="#167b5b" d="M199.1 427.9h.9v36.2h-.9z"/>
            <path transform="rotate(-51.529 202.563 469.218)" fill="#167b5b" d="M202.1 447.4h.9V491h-.9z"/>
            <path transform="rotate(-50.743 188.145 361.68)" fill="#167b5b" d="M187.7 358.2h.9v6.9h-.9z"/>
        </g>
        <g>
            <path fill="#147392" d="M41 393l23.3 96.7H44.2v6.4h-6.4v-6.4H17.6L40.9 393z"/>
            <path fill="#0a476c" d="M40.6 403.8h.7v92.3h-.7z"/>
            <path transform="rotate(-40.518 37.629 427.529)" fill="#0a476c" d="M33.2 427.1H42v.7h-8.8z"/>
            <path transform="rotate(-40.747 36.012 439.86)" fill="#0a476c" d="M29.5 439.5h13v.7h-13z"/>
            <path transform="rotate(-36.984 34.476 451.938)" fill="#0a476c" d="M26.4 451.6h16.2v.7H26.4z"/>
            <path transform="rotate(-39.31 32.683 464.998)" fill="#0a476c" d="M22 464.6h21.4v.7H22z"/>
            <path transform="rotate(-38.459 30.865 478.614)" fill="#0a476c" d="M18 478.3h25.8v.7H18z"/>
            <path transform="rotate(-39.286 39.416 415.13)" fill="#0a476c" d="M37.4 414.8h4.1v.7h-4.1z"/>
            <path transform="rotate(-49.498 44.333 427.5)" fill="#0a476c" d="M44 423.1h.7v8.8H44z"/>
            <path transform="rotate(-49.247 45.89 439.883)" fill="#0a476c" d="M45.6 433.4h.7v13h-.7z"/>
            <path transform="rotate(-53.028 47.44 451.978)" fill="#0a476c" d="M47.1 443.9h.7v16.2h-.7z"/>
            <path transform="rotate(-50.706 49.248 464.971)" fill="#0a476c" d="M48.9 454.3h.7v21.4h-.7z"/>
            <path transform="rotate(-51.529 51.06 478.66)" fill="#0a476c" d="M50.7 465.8h.7v25.8h-.7z"/>
            <path transform="rotate(-50.743 42.532 415.105)" fill="#0a476c" d="M42.2 413.1h.7v4.1h-.7z"/>
        </g>
    </g>
</svg>