<?xml version="1.0" encoding="utf-8"?>
<!-- Generator: Adobe Illustrator 19.2.0, SVG Export Plug-In . SVG Version: 6.00 Build 0)  -->
<svg version="1.1" id="Слой_1" xmlns="http://www.w3.org/2000/svg" xmlns:xlink="http://www.w3.org/1999/xlink" x="0px" y="0px"
	 viewBox="0 0 1182.8 458.1" style="enable-background:new 0 0 1182.8 458.1;" xml:space="preserve">
<style type="text/css">
	.st0{fill:#DFF2FD;}
	.st1{fill:#0073AA;}
	.st2{fill:#F6A31C;}
	.st3{fill:url(#SVGID_1_);}
	.st4{fill:url(#SVGID_2_);}
	.st5{fill:url(#SVGID_3_);}
	.st6{fill:#00517C;}
	.st7{fill:#15324B;}
	.st8{fill:#54A5D2;}
	.st9{fill:#6DB6E0;}
	.st10{fill:#114268;}
	.st11{fill:#0A7193;}
	.st12{fill:#1A8163;}
	.st13{fill:#1F9572;}
	.st14{fill:none;stroke:#5B585B;stroke-miterlimit:10;}
	.st15{fill:url(#SVGID_4_);}
	.st16{fill:#FFFFFF;}
	.st17{fill:#E6F5FE;}
	.st18{fill:#D97F10;}
	.st19{opacity:0.29;fill:#272220;}
	.st20{fill:#C9DFEC;}
	.st21{fill:url(#SVGID_5_);}
	.st22{fill:url(#SVGID_6_);}
	.st23{fill:url(#SVGID_7_);}
</style>
<g>
	<path class="st0" d="M93.8,292.3c0,12.2-9.8,22-22,22h0C32.2,314.4,0,346.5,0,386.2v0C0,425.8,32.2,458,71.8,458h269.6l493.9,0v0.1
		h221.8h53.9c39.7,0,71.9-32.2,71.9-71.9v0c0-39.7-32.2-71.9-71.9-71.9h0c-16.1,0-29.2-13.1-29.2-29.2v-62.3
		c0-22.8-18.5-41.4-41.4-41.4h-7c-25.4,0-46.1-20.6-46.1-46.1v0c0-25.4-20.6-46.1-46.1-46.1h-73.6h-44.2c-24.7,0-44.6-20-44.6-44.6
		v0c0-24.7-20-44.6-44.6-44.6l-294,0c-22.8,0-41.4,18.5-41.4,41.4v0c0,26.5-21.5,47.9-47.9,47.9h-28.2c-22.8,0-41.4,18.5-41.4,41.4
		v0c0,22.8-18.5,41.4-41.4,41.4h-63.8c-45.2,0-81.9,36.5-82.1,81.8L93.8,292.3z"/>
	<path class="st1" d="M1111,314.3L1111,314.3c-7.5,0-1032.6,0-1039.2,0h0C32.2,314.3,0,346.5,0,386.1v0c0,39.7,32.2,71.8,71.8,71.8
		h269.6l493.9,0v0.1H1111c39.7,0,71.9-32.2,71.9-71.9v0C1182.8,346.5,1150.7,314.3,1111,314.3z"/>
	<circle class="st2" cx="699.1" cy="201.1" r="42.7"/>
</g>
<linearGradient id="SVGID_1_" gradientUnits="userSpaceOnUse" x1="457.8811" y1="109.5891" x2="457.8811" y2="147.9293">
	<stop  offset="0" style="stop-color:#FFFFFF"/>
	<stop  offset="0.8587" style="stop-color:#FFFFFF;stop-opacity:0.1413"/>
	<stop  offset="1" style="stop-color:#FFFFFF;stop-opacity:0"/>
</linearGradient>
<path class="st3" d="M527.4,147.9H388.3l20.8-20.8c4.9-4.9,13-4.9,17.9,0v0c4.9,4.9,13,4.9,17.9,0l13.8-13.8
	c4.3-4.3,11.1-4.9,16.1-1.5L527.4,147.9z"/>
<linearGradient id="SVGID_2_" gradientUnits="userSpaceOnUse" x1="638.5693" y1="46.7119" x2="638.5693" y2="88.4965">
	<stop  offset="0" style="stop-color:#FFFFFF"/>
	<stop  offset="0.8587" style="stop-color:#FFFFFF;stop-opacity:0.1413"/>
	<stop  offset="1" style="stop-color:#FFFFFF;stop-opacity:0"/>
</linearGradient>
<path class="st4" d="M714.3,88.5H562.8l22.7-22.7c5.4-5.4,14.1-5.4,19.5,0l0,0c5.4,5.4,14.1,5.4,19.5,0l15-15
	c4.7-4.7,12.1-5.4,17.6-1.6L714.3,88.5z"/>
<linearGradient id="SVGID_3_" gradientUnits="userSpaceOnUse" x1="867.2647" y1="185.9901" x2="867.2647" y2="243.1714">
	<stop  offset="0" style="stop-color:#FFFFFF"/>
	<stop  offset="0.8587" style="stop-color:#FFFFFF;stop-opacity:0.1413"/>
	<stop  offset="1" style="stop-color:#FFFFFF;stop-opacity:0"/>
</linearGradient>
<path class="st5" d="M971,243.2H763.6l31.1-31.1c7.4-7.4,19.3-7.4,26.7,0v0c7.4,7.4,19.3,7.4,26.7,0l20.6-20.6
	c6.4-6.4,16.6-7.4,24.1-2.2L971,243.2z"/>
<g>
	<path class="st6" d="M698.7,458c0,0,48.7,0,60.8-0.1c12.1-0.1,40.5-1.8,41.5-24.2c1-22.3-26.5-39.1-50.1-49
		c-23.6-10-36.4-9.8-40.3-12.7c-3.9-3,4.5-4.7,12.1-7.3c7.6-2.6,14-7.2,19.7-13c5.7-5.8,10.1-22.2-6.1-27.1
		c-16.3-5-39.8-4.8-46.7-10.3c0,0,3.4,3.2,3,2.9c-2.7-1.5,2.8,5.9,20.7,8.5c8.8,1.3,17.7,4.9,17.7,11.5c0,6.6-2.4,12-46.4,20.5
		c-43.6,8.4-27.5,23.4-14.7,32.1c12.4,9.5,67.8,36.2,21.2,44.9c-35.3,5.4-97,4.3-97,4.3c-4.7,0-571.1-0.2-571.1-0.2s18.7,19,43.7,19
		s630.8,0.1,630.8,0.1"/>
	<path class="st7" d="M460,457.9C460,457.9,460,457.9,460,457.9H201.9C201.9,457.9,241.2,457.9,460,457.9z"/>
	<path class="st7" d="M794.6,427c-1.7-19.6-51.4-45.5-77.1-51.6c-9.1-1.9-17.7-5.1-5.5-8.7c0.7-0.2,36.1-8.1,34.4-29.1
		c-1.7-21-42.6-12.1-56.8-23.3h-0.8c8.3,13.6,44.6,6.6,43.2,23.8c-2,21.9-73.4,18.6-72.5,36c0.9,17.3,162.8,73.1-54.5,69.3
		c-38.6,0-83,14.6-145.1,14.6l280.7,0c0,0-14.8,0-14.8,0C751.1,457.6,797,454.3,794.6,427z"/>
	<path class="st7" d="M28.2,443.3c12,9.4,26.1,15,40.4,14.6l629.8,0c0.2-4.9,0.6-9.8,1.2-14.6L28.2,443.3z"/>
</g>
<g>
	<polygon class="st8" points="373.2,314.3 373.2,302.6 364.1,294.3 364.1,293 360.9,293 360.9,288.5 356.3,288.5 357.6,265.6 
		336.7,258.7 336.7,249.7 333.1,247.2 328.9,241 321.3,241 321.3,263.6 308,263.3 308,272.1 305.3,272.1 303.2,277.7 298.8,277.7 
		297.7,282.9 292.4,282.9 292.4,292.3 282.8,293.2 282.8,299.3 268.7,301 265.3,308.8 255.9,314.3 	"/>
	<polygon class="st9" points="168.1,314.3 168.1,305.9 176.3,305.9 179.3,300.4 188.7,300.4 190.3,295.4 194.2,295.4 194.2,268.3 
		199.3,264.8 197.4,257.5 204.3,226.6 208.4,226.6 210.5,229.4 217.4,226.6 217.4,215.7 222.9,215.7 222.9,224.4 240.8,226.6 
		242.2,250.3 260.8,250.8 264.3,241.4 277.4,241.2 280.8,246.4 296.6,246.7 314.6,265 314.6,314.3 	"/>
	<g>
		<path class="st1" d="M799.4,316.4l30-15.7l16.3,2.6l22.2,7.5l24.2-7.9h9.5L917,291l7.3,15c0,0,9.1,0.7,12,0.8
			c2.8,0.1,37.8-5,37.8-5l12.4,9l7.6,5.6H799.4z"/>
		<polygon class="st1" points="814,308.8 824.7,310 835.4,307 868,310.8 845.8,303.3 829.5,300.7 		"/>
		<polygon class="st1" points="917,291.1 913.2,301.7 913.2,305.8 892.2,303 901.7,303 		"/>
		<polygon class="st1" points="939.3,306.7 955.8,310.9 966.3,308.8 966.3,305.8 974,301.9 		"/>
	</g>
	<polygon class="st1" points="669.1,317.1 624.6,306.4 605.6,306.4 589.9,311.8 543.4,303.7 530.2,303.7 513.8,312.8 495.1,314.7 
		543.7,317.2 	"/>
	<g>
		<path class="st9" d="M693.3,314.3l26-19.5h19.2l13.8,6.7l41.2-25.7l14.3,12.5l34-12.5l24.4,13l23.9-3l30.1-19.6
			c0,0,79.1,19.1,80.6,19.6s16.3,15.6,16.3,15.6l29.2-10.4l44,23.3H690H693.3z"/>
		<polygon class="st9" points="342.9,270.7 407.6,293.2 428.6,283.3 446.4,289.8 476,283 504.3,291.2 543.5,238.4 555.5,229.7 
			574.9,242.3 591.5,238.4 610.1,261.9 638.6,293.2 662.3,300.6 688.9,314.3 285.7,314.4 		"/>
	</g>
	<polygon class="st6" points="361.7,345.2 365.5,339.7 368.8,339 371.9,334.6 376.8,333.8 380.1,330.1 381.1,287.6 384,285.4 
		386.2,295.8 389.9,295.8 391.8,280.8 399.3,280.8 399.3,293.2 405.9,293.2 410.1,305.3 420.8,306.7 422.1,321.9 426.9,319.1 
		427.6,288.1 440,283.8 444.7,271.9 451.4,275.2 451,305 462,299.9 467.8,302 476.8,311.8 485.2,314.8 485.6,329.7 490.6,334 
		490.6,337.1 495.3,339 502.3,345.3 	"/>
</g>
<g>
	<rect x="68" y="365.1" class="st10" width="454.6" height="73.9"/>
	<rect x="155.5" y="305.7" class="st10" width="279.6" height="59.3"/>
	<rect x="206.6" y="261.9" class="st10" width="177.4" height="46.1"/>
	<rect x="274.1" y="262" class="st11" width="42.8" height="176.8"/>
	<rect x="260.4" y="214.6" class="st10" width="69.9" height="47.3"/>
	<g>
		<rect x="274.1" y="419.7" class="st6" width="42.3" height="9.5"/>
		<rect x="274.1" y="400" class="st6" width="42.3" height="9.5"/>
		<rect x="274.1" y="380.3" class="st6" width="42.3" height="9.5"/>
		<rect x="274.1" y="360.6" class="st6" width="42.3" height="9.5"/>
		<rect x="274.1" y="340.8" class="st6" width="42.3" height="9.5"/>
		<rect x="274.1" y="321.1" class="st6" width="42.3" height="9.5"/>
		<rect x="274.1" y="301.4" class="st6" width="42.3" height="9.5"/>
		<rect x="274.1" y="281.7" class="st6" width="42.3" height="9.5"/>
		<rect x="274.1" y="262" class="st6" width="42.3" height="9.5"/>
	</g>
	<rect x="68" y="365.1" class="st6" width="192.4" height="12.1"/>
	<rect x="330.3" y="365.1" class="st6" width="192.4" height="12.1"/>
	<rect x="330.3" y="305.7" class="st6" width="104.9" height="12.1"/>
	<rect x="330.3" y="261.9" class="st6" width="53.8" height="12.1"/>
	<rect x="206.4" y="261.9" class="st6" width="53.8" height="12.1"/>
	<rect x="155.5" y="305.7" class="st6" width="104.9" height="12.1"/>
	<rect x="260.2" y="261.9" class="st11" width="14" height="176.9"/>
	<polygon class="st6" points="640.3,345.2 506.7,345.2 537.5,335.6 543.8,324 550,324 556.8,311.3 559.1,301.3 569.7,301.3 
		566.3,323.6 581.1,329 598,333.7 598,303.4 608.8,308.1 609.6,320.4 620.3,323.3 621,330.8 644.4,336.5 668.3,345.3 	"/>
	<polygon class="st6" points="592,345.3 608.9,331.4 611.7,325.7 623.9,325.7 625.2,291.4 631.3,291.4 632,270.6 643.8,266.2 
		647.9,282.8 660.2,287.6 660.2,325.7 672.3,333.8 676.1,345.2 	"/>
	<rect x="316.5" y="261.9" class="st11" width="14" height="176.9"/>
	<rect x="254.7" y="218.9" class="st12" width="81.5" height="6.2"/>
	<rect x="254.7" y="235.2" class="st12" width="81.5" height="6.2"/>
	<rect x="290" y="246.9" class="st2" width="10.7" height="15"/>
	<g>
		<polygon class="st6" points="384,298.8 360.8,298.8 360.8,286.9 335.7,286.9 335.7,262 336.7,262 336.7,285.9 361.8,285.9 
			361.8,297.8 384,297.8 		"/>
	</g>
	<g>
		<polygon class="st6" points="222.5,305.7 221.5,305.7 221.5,285.9 245.3,285.9 245.3,261.9 246.3,261.9 246.3,286.9 222.5,286.9 
					"/>
	</g>
	<g>
		<polygon class="st6" points="178.8,365.3 177.8,365.3 177.8,340.3 195.8,340.3 195.8,306.1 196.8,306.1 196.8,341.3 178.8,341.3 
					"/>
	</g>
	<g>
		<polygon class="st6" points="260.2,348 226.1,348 226.1,328 155.5,328 155.5,327 227.1,327 227.1,347 260.2,347 		"/>
	</g>
	<g>
		<polygon class="st6" points="157.1,438.8 156.1,438.8 156.1,417.4 130.1,417.4 130.1,402.4 104.4,402.4 104.4,377.2 105.4,377.2 
			105.4,401.4 131.1,401.4 131.1,416.4 157.1,416.4 		"/>
	</g>
	<g>
		<rect x="68" y="416.4" class="st6" width="65.8" height="1"/>
	</g>
	<g>
		<rect x="83.3" y="401.9" class="st6" width="1" height="15"/>
	</g>
	<g>
		<rect x="107.8" y="416.9" class="st6" width="1" height="22.1"/>
	</g>
	<g>
		<rect x="206.2" y="377.2" class="st6" width="1" height="61.5"/>
	</g>
	<g>
		<rect x="206.7" y="418.6" class="st6" width="53.5" height="1"/>
	</g>
	<g>
		<rect x="157.3" y="401.4" class="st6" width="49.3" height="1"/>
	</g>
	<g>
		<rect x="156.6" y="428.1" class="st6" width="50.1" height="1"/>
	</g>
	<g>
		<polygon class="st6" points="260.2,401.7 235,401.7 235,387.1 206.4,387.1 206.4,386.1 236,386.1 236,400.7 260.2,400.7 		"/>
	</g>
	<g>
		<polygon class="st6" points="435.1,339 373.8,339 373.8,328 330.3,328 330.3,327 374.8,327 374.8,338 435.1,338 		"/>
	</g>
	<g>
		<rect x="398.7" y="317.9" class="st6" width="1" height="47.2"/>
	</g>
	<g>
		<polygon class="st13" points="578.9,439.1 575.5,439.1 574.8,264.5 578.2,264.4 		"/>
		<g>
			<path class="st13" d="M543.4,285l33.1-25.9l-7.3,0.6c-13,1.1-23.5,10.9-25.5,23.8L543.4,285z"/>
			<path class="st13" d="M610,284.4l-33.5-25.3l7.3,0.5c13,0.8,23.7,10.5,25.9,23.3L610,284.4z"/>
		</g>
		<g>
			<path class="st13" d="M521,259.6l55.5-0.5l-8.2-5.3c-14.4-9.3-33.4-7.6-45.8,4.3L521,259.6z"/>
			<path class="st13" d="M576.5,259.1l55.5-0.5l-8.2-5.3c-14.4-9.3-33.4-7.6-45.8,4.3L576.5,259.1z"/>
		</g>
		<g>
			<path class="st13" d="M576.5,259.1l43.6-34.3l-9.7,0.8c-17.1,1.4-31.1,14.4-33.7,31.4L576.5,259.1z"/>
			<path class="st13" d="M576.5,259.1l-44.2-33.5l9.7,0.6c17.2,1.1,31.3,13.9,34.2,30.8L576.5,259.1z"/>
		</g>
		
			<ellipse transform="matrix(1 -8.593863e-003 8.593863e-003 1 -2.2418 4.9643)" class="st12" cx="576.5" cy="263.3" rx="7.4" ry="7.4"/>
	</g>
	<g>
		<polygon class="st13" points="454.2,439.1 450.8,439.1 450.1,264.5 453.5,264.4 		"/>
		<g>
			<path class="st13" d="M418.7,285l33.1-25.9l-7.3,0.6c-13,1.1-23.5,10.9-25.5,23.8L418.7,285z"/>
			<path class="st13" d="M485.3,284.4l-33.5-25.3l7.3,0.5c13,0.8,23.7,10.5,25.9,23.3L485.3,284.4z"/>
		</g>
		<g>
			<path class="st13" d="M396.3,259.6l55.5-0.5l-8.2-5.3c-14.4-9.3-33.4-7.6-45.8,4.3L396.3,259.6z"/>
			<path class="st13" d="M451.8,259.1l55.5-0.5l-8.2-5.3c-14.4-9.3-33.4-7.6-45.8,4.3L451.8,259.1z"/>
		</g>
		<g>
			<path class="st13" d="M451.8,259.1l43.6-34.3l-9.7,0.8c-17.1,1.4-31.1,14.4-33.7,31.4L451.8,259.1z"/>
			<path class="st13" d="M451.8,259.1l-44.2-33.5l9.7,0.6c17.2,1.1,31.3,13.9,34.2,30.8L451.8,259.1z"/>
		</g>
		
			<ellipse transform="matrix(1 -8.593863e-003 8.593863e-003 1 -2.2464 3.8926)" class="st12" cx="451.8" cy="263.3" rx="7.4" ry="7.4"/>
	</g>
</g>
<g>
	<path class="st14" d="M746.3,413.2"/>
</g>
<linearGradient id="SVGID_4_" gradientUnits="userSpaceOnUse" x1="316.9369" y1="182.6091" x2="316.9369" y2="202.038">
	<stop  offset="0" style="stop-color:#FFFFFF"/>
	<stop  offset="0.8587" style="stop-color:#FFFFFF;stop-opacity:0.1413"/>
	<stop  offset="1" style="stop-color:#FFFFFF;stop-opacity:0"/>
</linearGradient>
<path class="st15" d="M352.2,202h-70.5l10.6-10.6c2.5-2.5,6.6-2.5,9.1,0v0c2.5,2.5,6.6,2.5,9.1,0l7-7c2.2-2.2,5.6-2.5,8.2-0.7
	L352.2,202z"/>
<rect x="1017.1" y="328.7" class="st6" width="31.2" height="4.9"/>
<g>
	<rect x="804.2" y="329.8" class="st10" width="283.7" height="128.1"/>
	<g>
		<polygon class="st6" points="922,447.1 922.7,448.5 922,454.6 918.7,457.9 920.3,457.9 922.4,456.7 922.7,457.9 923.1,454.6 
			925.1,452.1 		"/>
		<polygon class="st13" points="936.4,397.6 936.4,394.4 938.9,395.9 939.4,397.7 		"/>
		<path class="st6" d="M940.2,416.8l12.2,11.9l9.2,25.3l-8.2,4h-23.9l-12.7-17c0,0,8-15.2,8.7-15.5c0.7-0.3,9.3-10.1,9.3-10.1
			L940.2,416.8z"/>
		<polygon class="st6" points="940.2,416.8 946.2,429.8 944.1,443 953.4,457.3 961.6,454 952.4,428.7 		"/>
		<polygon class="st2" points="958.9,446.6 952.2,448.8 932.1,448.8 919.5,435.8 918.7,437.4 931.3,449.6 952.4,450.2 959.5,448.2 
					"/>
		<polygon class="st2" points="960.2,450.2 953.4,452.7 931.3,452.2 917.5,439.7 916.8,440.9 930.8,453.5 953.4,454.6 960.6,451.2 
					"/>
		<polygon class="st2" points="942.9,419.4 940.1,421.6 933.6,420.5 931.7,418.9 933.5,416.8 934.6,418.4 939.2,420.8 941.5,418.4 
					"/>
		<polygon class="st13" points="936.8,402.2 922.2,397.3 919.5,382.4 920.6,381.2 922,383.6 921.1,385.3 925,395 936,397.8 		"/>
		<polygon class="st6" points="942.9,398.3 940.2,416.8 937.3,416.8 934.9,415.3 930.8,402.2 934.7,398.3 934.6,397.1 938.2,397.1 
					"/>
		<polygon class="st13" points="942.7,399.3 953.4,410.4 948.9,424.9 947.4,425.4 947.4,422.6 949,421.5 949.9,411.1 941.5,403.6 		
			"/>
		<polygon class="st6" points="942.9,398.3 947.4,404.2 944.6,404.2 944.2,406 941.8,406 940.7,403.7 		"/>
		<polygon class="st6" points="930.8,396.5 930.8,398.3 928.7,399.5 934.3,402.2 935.6,397 		"/>
		<polygon class="st2" points="942.9,398.3 939.2,401.2 935.8,400.6 934.5,396.9 935.6,397 936.8,399.3 939.1,400.1 941.5,398 		"/>
		<polygon class="st2" points="939.2,404.4 940,402.9 937.3,403.3 938.3,404.8 936.8,404.2 938,405.4 936.4,405.7 936.8,407.6 
			938.2,406.4 937.8,407.9 938.7,406.9 940,408.2 940,406.9 939.2,406.2 941.1,406.9 939.8,405.5 941.1,405 940.9,404.1 
			939.7,404.9 		"/>
		<path class="st13" d="M932.9,386.9l2.8,7.6l3.3,1.4l2.4-1.8c0,0,1.3-8.6,0.8-8.5c-0.5,0.1-7.3-0.2-7.3-0.2L932.9,386.9z"/>
		<polygon class="st6" points="933.9,381.4 930.8,386.1 940.3,389.7 941.3,394.2 948.8,400.1 944.6,392.3 942.9,381.3 935.5,379.3 
					"/>
	</g>
	<g>
		<polygon class="st6" points="879.5,386.2 885.2,388.1 903.8,402.2 906.4,404.7 902.7,406.4 897.3,404.7 883.8,390.2 		"/>
		<polygon class="st6" points="874.7,387.5 873.1,394.4 874.3,406.1 867.3,432.2 873.1,453 876,453 873.8,432.8 880,422.2 
			885.7,434.7 889.1,453 890.9,451.6 890.1,409.8 889.1,406.8 887.7,396 884.7,387.5 		"/>
		<g>
			<path class="st2" d="M881.3,415.8c2,0.7,4.1,0.1,5.5-1.5l3.6-4.3c0.8-0.9,1.8-1.5,3-1.7l0,0l0.1,0c2.5-0.4,4-3.1,2.9-5.5
				l-1.7-3.7c-1.1-2.4-4-3.1-6.1-1.5l0,0l0,0c-0.9,0.7-2.1,1.1-3.3,1.1l-5.6-0.2c-2.1-0.1-4,1.2-4.7,3.1c0,0-2.6,4.8-0.8,8.9
				C876,414.6,881.3,415.8,881.3,415.8z"/>
			<ellipse transform="matrix(0.9127 -0.4086 0.4086 0.9127 -88.7 396.745)" class="st10" cx="884.3" cy="406" rx="2.6" ry="2.6"/>
			
				<rect x="896.8" y="389.8" transform="matrix(0.4086 0.9127 -0.9127 0.4086 896.0017 -583.1872)" class="st2" width="2.4" height="20.1"/>
			<polygon class="st2" points="903.7,397.7 905.4,398.9 910.8,397 911.1,394.1 911,393.9 908.7,392.2 903.6,395 903.4,397 			"/>
		</g>
		<polygon class="st6" points="872.9,452.1 872.3,455 865.1,457.9 873.8,457.9 877.2,457.9 877.4,456.3 875.8,450.8 		"/>
		<polyline class="st6" points="888.8,451.7 887.8,457.9 900.8,457.9 892.6,454.8 890.9,450.8 		"/>
		<polygon class="st6" points="876.7,385.8 871.2,390.2 867.3,407.4 876.5,411.1 877.6,406.1 872.5,405 873.5,393.9 877.4,387.5 		
			"/>
		<polygon class="st2" points="877.6,387.3 875.5,391.1 876.3,393.5 878.9,390.9 878.9,387.8 880.2,388 880,391.6 883.5,392.8 
			882.4,389 879.5,387 		"/>
		<polygon class="st13" points="902.9,402.3 907.5,399.1 904.3,396.3 902.7,396.7 905.7,392.9 909.3,397.8 906.4,404.7 		"/>
		<path class="st2" d="M893.6,369c-0.9,0.2-1.6,0.7-2,1.4c-0.4,0.7-0.6,1.6-0.4,2.4l-4.6,1c-1.4,0.3-2.7-0.2-3.6-1.2l-7.9,1.7
			c-0.4,1.3-1.5,2.3-2.8,2.5l-4.6,1c-0.4-1.7-2.1-2.8-3.8-2.5l-0.9,0.2l0.8,3.6c0.3,1.5,1.8,2.4,3.2,2.1l10.9-2.3l4.5-1l10.9-2.3
			c1.5-0.3,2.4-1.8,2.1-3.2l-0.8-3.6L893.6,369z"/>
		<path class="st6" d="M882.3,371.8l-0.2-0.4l-6.9,1.5l0,0.5c0,0.3-0.1,0.7-0.2,1l7.9-1.7C882.7,372.4,882.5,372.1,882.3,371.8z"/>
		<polygon class="st2" points="881.6,370.4 875.3,371.8 875.2,372.9 882.1,371.4 		"/>
		<polygon class="st6" points="880.9,369.2 875.4,370.4 875.3,371.8 881.6,370.4 		"/>
		<path class="st2" d="M879.6,366.7c-0.2-0.4-0.5-0.6-0.8-0.8c-0.4-0.2-0.8-0.2-1.2-0.1l-0.7,0.1c-0.8,0.2-1.4,0.9-1.4,1.7l-0.2,2.8
			l5.6-1.2L879.6,366.7z"/>
		<polygon class="st13" points="877.4,407.2 880,407.2 881.6,404.7 882.8,406 886,407.2 886,409.9 882,410.6 876.8,409.7 		"/>
		<polygon class="st13" points="875.8,379.4 875.8,384 877.4,387.5 879.8,387.5 879.8,385.5 882.7,386.3 884.4,380.7 882.9,377.9 		
			"/>
	</g>
	<path class="st10" d="M804.2,322.6h10.5V309h11l0,0c0-12.8,10.4-23.1,23.1-23.1h1.8c12.8,0,23.1,10.4,23.1,23.1l0,0h11v13.6h8.7
		h1.8v7.6h-91.2V322.6z"/>
	<path class="st12" d="M849.6,301.4h-0.9c-3.9,0-7,3.2-7,7v16.2h14.9v-16.2C856.6,304.6,853.5,301.4,849.6,301.4z"/>
	<path class="st10" d="M901,322.6h10.5V309h11l0,0c0-12.8,10.4-23.1,23.1-23.1h1.8c12.8,0,23.1,10.4,23.1,23.1l0,0h11v13.6h8.7h1.8
		v7.6H901V322.6z"/>
	<path class="st12" d="M946.4,301.4h-0.9c-3.9,0-7,3.2-7,7v16.2h14.9v-16.2C953.5,304.6,950.3,301.4,946.4,301.4z"/>
	<path class="st10" d="M995.7,322.6h10.5V309h11l0,0c0-12.8,10.4-23.1,23.1-23.1h1.8c12.8,0,23.1,10.4,23.1,23.1l0,0h11v13.6h8.7
		h1.8v7.6h-91.2V322.6z"/>
	<path class="st2" d="M1041.2,301.4h-0.9c-3.9,0-7,3.2-7,7v16.2h14.9v-16.2C1048.2,304.6,1045,301.4,1041.2,301.4z"/>
	<path class="st6" d="M839.9,365.7L839.9,365.7c-8.7,0-15.9,7.2-15.9,15.9v34.1h15.9V365.7z"/>
	<path class="st6" d="M841.8,365.7L841.8,365.7c8.7,0,15.9,7.2,15.9,15.9v34.1h-15.9V365.7z"/>
	<rect x="824" y="417.6" class="st6" width="33.7" height="4.7"/>
	<path class="st6" d="M983.3,365.7L983.3,365.7c-8.7,0-15.9,7.2-15.9,15.9v34.1h15.9V365.7z"/>
	<path class="st6" d="M985.1,365.7L985.1,365.7c8.7,0,15.9,7.2,15.9,15.9v34.1h-15.9V365.7z"/>
	<rect x="967.4" y="417.6" class="st6" width="33.7" height="4.7"/>
	<rect x="797.7" y="332.5" class="st6" width="297.9" height="9.9"/>
	<g>
		<polygon class="st12" points="849.8,440.4 834,440.4 838,457.9 845.9,457.9 		"/>
		<polygon class="st13" points="836.6,440.4 831.4,426 836.6,435.8 835.9,422.6 836.6,411.1 839.1,429.5 841.9,402.2 842.5,427.9 
			845.2,422.6 844.3,435 848.4,420.2 846.8,440.4 		"/>
		<polygon class="st2" points="836.6,417.9 835.2,416.9 837.8,416 837.6,417.8 838.6,416.6 838.2,418.2 839.7,417.8 840.2,419.6 
			838.5,419.2 839.5,420.3 838.3,419.9 837.7,421.6 837.2,420.5 837.5,419.5 836.2,421 836.6,419.2 835.3,419.3 835,418.4 
			836.4,418.6 		"/>
		<polygon class="st2" points="830.9,426 829.6,425 832.1,424.1 832,425.9 832.9,424.7 832.5,426.3 834,425.8 834.5,427.6 
			832.8,427.3 833.8,428.4 832.6,428 832.1,429.7 831.5,428.6 831.8,427.6 830.5,429.1 831,427.3 829.6,427.4 829.3,426.5 
			830.7,426.7 		"/>
		<polygon class="st2" points="850.4,421.8 851.1,420.3 852.4,422.6 850.7,422.8 852,423.5 850.4,423.4 851.1,424.8 849.4,425.6 
			849.4,423.9 848.5,425.1 848.7,423.8 847,423.6 847.9,422.8 849,422.9 847.2,421.9 849.2,422 848.7,420.7 849.6,420.3 
			849.7,421.7 		"/>
		<polygon class="st2" points="842.1,428.5 842.8,427 844.1,429.3 842.4,429.5 843.7,430.2 842,430.1 842.8,431.5 841.1,432.3 
			841.1,430.6 840.2,431.8 840.4,430.5 838.7,430.3 839.6,429.5 840.7,429.6 838.9,428.6 840.8,428.8 840.4,427.4 841.3,427 
			841.3,428.4 		"/>
		<polygon class="st2" points="845.3,422.8 846,421.3 847.4,423.6 845.6,423.8 846.9,424.5 845.3,424.5 846,425.8 844.3,426.7 
			844.4,424.9 843.4,426.1 843.6,424.8 841.9,424.6 842.9,423.8 843.9,424 842.1,423 844.1,423.1 843.6,421.8 844.5,421.3 
			844.6,422.7 		"/>
		<polygon class="st2" points="840.9,403.7 841.6,402.2 842.9,404.5 841.2,404.7 842.5,405.4 840.9,405.3 841.6,406.7 839.9,407.5 
			839.9,405.8 839,407 839.2,405.7 837.5,405.5 838.4,404.7 839.5,404.9 837.7,403.9 839.6,404 839.2,402.6 840.1,402.2 
			840.2,403.6 		"/>
	</g>
	<g>
		<polygon class="st12" points="997.1,440.4 981.3,440.4 985.2,457.9 993.1,457.9 		"/>
		<polygon class="st13" points="983.8,440.4 978.6,426 983.8,435.8 983.2,422.6 983.8,411.1 986.4,429.5 989.2,402.2 989.8,427.9 
			992.5,422.6 991.5,435 995.7,420.2 994.1,440.4 		"/>
		<polygon class="st2" points="983.9,417.9 982.5,416.9 985.1,416 984.9,417.8 985.9,416.6 985.5,418.2 987,417.8 987.5,419.6 
			985.7,419.2 986.8,420.3 985.5,419.9 985,421.6 984.4,420.5 984.8,419.5 983.4,421 983.9,419.2 982.5,419.3 982.3,418.4 
			983.7,418.6 		"/>
		<polygon class="st2" points="978.2,426 976.8,425 979.4,424.1 979.2,425.9 980.2,424.7 979.8,426.3 981.3,425.8 981.8,427.6 
			980.1,427.3 981.1,428.4 979.8,428 979.3,429.7 978.7,428.6 979.1,427.6 977.8,429.1 978.2,427.3 976.9,427.4 976.6,426.5 
			978,426.7 		"/>
		<polygon class="st2" points="997.7,421.8 998.3,420.3 999.7,422.6 998,422.8 999.3,423.5 997.6,423.4 998.4,424.8 996.7,425.6 
			996.7,423.9 995.8,425.1 996,423.8 994.3,423.6 995.2,422.8 996.3,422.9 994.5,421.9 996.4,422 996,420.7 996.9,420.3 
			996.9,421.7 		"/>
		<polygon class="st2" points="989.4,428.5 990,427 991.4,429.3 989.6,429.5 991,430.2 989.3,430.1 990.1,431.5 988.4,432.3 
			988.4,430.6 987.5,431.8 987.7,430.5 985.9,430.3 986.9,429.5 987.9,429.6 986.2,428.6 988.1,428.8 987.7,427.4 988.5,427 
			988.6,428.4 		"/>
		<polygon class="st2" points="992.6,422.8 993.3,421.3 994.6,423.6 992.9,423.8 994.2,424.5 992.5,424.5 993.3,425.8 991.6,426.7 
			991.6,424.9 990.7,426.1 990.9,424.8 989.2,424.6 990.1,423.8 991.2,424 989.4,423 991.3,423.1 990.9,421.8 991.8,421.3 
			991.8,422.7 		"/>
		<polygon class="st2" points="988.2,403.7 988.8,402.2 990.2,404.5 988.4,404.7 989.8,405.4 988.1,405.3 988.9,406.7 987.2,407.5 
			987.2,405.8 986.3,407 986.5,405.7 984.8,405.5 985.7,404.7 986.7,404.9 985,403.9 986.9,404 986.5,402.6 987.3,402.2 
			987.4,403.6 		"/>
	</g>
	<path class="st12" d="M1041.4,365.7L1041.4,365.7c-8.5,0-15.4,6.9-15.4,15.4v76.1h30.9v-76.1C1056.9,372.6,1050,365.7,1041.4,365.7
		z"/>
	<rect x="797.7" y="347.1" class="st6" width="297.9" height="4"/>
	<path class="st13" d="M1092.8,458v-30.8c0,0,7.5-1.1,9-9c1.5-7.9,4.5-19.4,3-21.3c-1.5-1.9-5.8,10.9-5.8,10.9s3.6-26,1-27.8
		c-2.5-1.8-6,39.3-7.3,40.4c-1.3,1.1-1.8-0.6-1.8-0.6v-27.4c0,0,4.1-4.3,3.3-7c-0.8-2.7-3.3,1.7-3.3,1.7v-20.2c0-1-0.9-1.7-2-1.7
		l0,0c-1.1,0-1.9,0.7-2,1.7l-1.2,21.4l-1.2,0.1l-2.2-8.4c-0.2-0.8-1.1-1.2-1.9-0.8l0,0c-0.5,0.2-0.8,0.7-0.7,1.2l1.1,6.4
		c0.4,2.2,1.5,4.3,3.3,5.9l0.9,0.8L1085,427c0,0.6-0.5,1.1-1.2,1.1l0,0c-0.6,0-1.2-0.4-1.3-0.9l-1.1-13.6c-0.2-1.1-1.4-1.8-2.6-1.5
		l0,0c-1,0.2-1.7,1-1.6,1.9l1.4,15.9c0.2,2.3,1.7,4.4,3.9,5.5l1.8,0.9l0.3,21.6H1092.8z"/>
</g>
<path class="st13" d="M116.5,438.9v-46.6c0,0-10-1.7-12-13.7s-6-29.4-4-32.2c2-2.8,7.7,16.5,7.7,16.5s-4.7-39.3-1.4-42
	c3.3-2.7,8,59.3,9.7,61c1.7,1.7,2.4-0.8,2.4-0.8v-41.4c0,0-5.5-6.5-4.4-10.6s4.4,2.6,4.4,2.6v-30.5c0-1.5,1.2-2.6,2.6-2.6h0
	c1.4,0,2.6,1.1,2.6,2.5l1.6,32.4l1.6,0.1l2.9-12.7c0.3-1.2,1.5-1.8,2.6-1.2l0,0c0.7,0.4,1.1,1.1,1,1.9l-1.4,9.6
	c-0.5,3.4-2,6.5-4.4,8.9l-1.2,1.3l0.1,50.7c0,0.9,0.7,1.7,1.6,1.7l0,0c0.9,0,1.6-0.6,1.7-1.4l1.5-20.6c0.3-1.6,1.9-2.7,3.5-2.3l0,0
	c1.3,0.3,2.2,1.6,2.1,2.9l-1.9,24c-0.3,3.5-2.2,6.6-5.2,8.4l-2.4,1.4l-0.4,32.6H116.5z"/>
<path class="st13" d="M229.7,438.9v-31.1c0,0,6.7-1.1,8-9.1c1.3-8,4-19.6,2.7-21.5c-1.3-1.9-5.2,11-5.2,11s3.2-26.2,0.9-28
	c-2.2-1.8-5.3,39.6-6.4,40.7c-1.1,1.1-1.6-0.6-1.6-0.6v-27.6c0,0,3.7-4.3,2.9-7.1c-0.7-2.7-2.9,1.7-2.9,1.7v-20.3
	c0-1-0.8-1.8-1.8-1.8l0,0c-0.9,0-1.7,0.7-1.7,1.7l-1.1,21.6l-1.1,0.1l-1.9-8.5c-0.2-0.8-1-1.2-1.7-0.8l0,0c-0.5,0.2-0.7,0.7-0.7,1.3
	l0.9,6.4c0.3,2.2,1.4,4.3,2.9,5.9l0.8,0.8l-0.1,33.8c0,0.6-0.5,1.1-1.1,1.1l0,0c-0.6,0-1.1-0.4-1.2-0.9l-1-13.7
	c-0.2-1.1-1.3-1.8-2.3-1.5l0,0c-0.9,0.2-1.5,1.1-1.4,2l1.3,16c0.2,2.3,1.5,4.4,3.5,5.6l1.6,1l0.2,21.8H229.7z"/>
<path class="st13" d="M622.2,439.1v-40.5c0,0,9.9-1.4,11.8-11.9c2-10.4,5.9-25.5,3.9-28s-7.6,14.4-7.6,14.4s4.7-34.2,1.4-36.5
	s-7.9,51.6-9.5,53s-2.3-0.7-2.3-0.7v-36c0,0,5.4-5.6,4.3-9.2s-4.3,2.3-4.3,2.3v-26.5c0-1.3-1.2-2.3-2.6-2.3l0,0
	c-1.4,0-2.5,1-2.6,2.2l-1.6,28.1l-1.6,0.1l-2.8-11.1c-0.3-1-1.5-1.5-2.5-1.1l0,0c-0.7,0.3-1.1,1-1,1.6l1.4,8.4
	c0.5,2.9,2,5.6,4.4,7.8l1.2,1.1l-0.1,44.1c0,0.8-0.7,1.4-1.6,1.5l0,0c-0.8,0-1.6-0.5-1.7-1.2l-1.5-17.9c-0.3-1.4-1.9-2.3-3.4-2l0,0
	c-1.3,0.3-2.2,1.4-2.1,2.6l1.9,20.8c0.3,3,2.2,5.7,5.2,7.3l2.4,1.2l0.4,28.4H622.2z"/>
<path class="st13" d="M764.8,371.9v-27.8c0,0,6.8-1,8.1-8.1c1.4-7.2,4.1-17.5,2.7-19.2c-1.4-1.7-5.2,9.8-5.2,9.8s3.2-23.4,0.9-25
	s-5.4,35.4-6.5,36.4c-1.1,1-1.6-0.5-1.6-0.5v-24.7c0,0,3.7-3.9,3-6.3c-0.8-2.5-3,1.6-3,1.6v-18.2c0-0.9-0.8-1.6-1.8-1.6l0,0
	c-0.9,0-1.7,0.7-1.8,1.5l-1.1,19.3l-1.1,0.1l-1.9-7.6c-0.2-0.7-1-1-1.7-0.7l0,0c-0.5,0.2-0.7,0.7-0.7,1.1l1,5.7c0.3,2,1.4,3.9,3,5.3
	l0.8,0.7l-0.1,30.2c0,0.5-0.5,1-1.1,1l0,0c-0.6,0-1.1-0.3-1.2-0.8l-1-12.3c-0.2-1-1.3-1.6-2.4-1.3l0,0c-0.9,0.2-1.5,0.9-1.4,1.8
	l1.3,14.3c0.2,2.1,1.5,3.9,3.5,5l1.7,0.9l0.3,19.4H764.8z"/>
<g>
	<path class="st16" d="M459.9,377.5h15.7c0.6,0,1.2,0,1.8,0.1c5,0.6,9.7,2.8,13.5,6.2l22.6,20.2c1.2,1.1,2.7,1.9,4.2,2.3l22.6,5.2
		c1.8,0.3,3.1,1.8,3.1,3.6v15.7v4.7v9.1h-6l-17.7-4.8l-18.2,4.8h-41.7L459.9,377.5z"/>
	<path class="st16" d="M459.9,444.6H390l-19.9-11.7l-18.4,11.7h-61.4v-96.8h160.4c5,0,9.1,4.1,9.1,9.1V444.6z"/>
	<polygon class="st7" points="351.8,444.6 357.8,430 383.5,430 390,444.6 	"/>
	<g>
		<ellipse class="st17" cx="416.9" cy="426.8" rx="3.8" ry="3.7"/>
		<circle class="st10" cx="416.9" cy="426.8" r="3"/>
		
			<rect x="414.8" y="426.4" transform="matrix(0.7071 -0.7071 0.7071 0.7071 -179.6993 419.8058)" class="st1" width="4.3" height="0.8"/>
	</g>
	<g>
		<circle class="st6" cx="370.9" cy="444.6" r="13.4"/>
		<circle class="st18" cx="370.9" cy="444.6" r="8.3"/>
		<circle class="st19" cx="370.9" cy="444.6" r="1.8"/>
		<path class="st19" d="M370.9,449.6c-0.9,0-1.6,0.6-1.8,1.5c0.6,0.2,1.2,0.2,1.8,0.2s1.2-0.1,1.8-0.2
			C372.5,450.2,371.7,449.6,370.9,449.6z"/>
		<path class="st19" d="M366.8,446.8c0-1-0.8-1.8-1.8-1.8c-0.3,0-0.6,0.1-0.9,0.2c0.1,1.2,0.6,2.4,1.3,3.3
			C366.2,448.4,366.8,447.7,366.8,446.8z"/>
		<path class="st19" d="M376.7,445c-1,0-1.8,0.8-1.8,1.8c0,0.8,0.6,1.6,1.4,1.7c0.7-0.9,1.2-2.1,1.3-3.3
			C377.3,445.1,377,445,376.7,445z"/>
		<path class="st19" d="M374.7,441.2c0.6,0,1.1-0.3,1.5-0.8c-0.7-1-1.7-1.7-2.9-2.1c-0.2,0.3-0.4,0.7-0.4,1.1
			C372.9,440.4,373.7,441.2,374.7,441.2z"/>
		<path class="st19" d="M367,441.2c1,0,1.8-0.8,1.8-1.8c0-0.4-0.1-0.8-0.4-1.1c-1.1,0.4-2.1,1.2-2.9,2.1
			C365.9,440.9,366.4,441.2,367,441.2z"/>
	</g>
	<path class="st20" d="M456.9,412.7H303.1c-0.8,0-1.5-0.7-1.5-1.5v0c0-0.8,0.7-1.5,1.5-1.5h153.8c0.8,0,1.5,0.7,1.5,1.5v0
		C458.4,412,457.7,412.7,456.9,412.7z"/>
	<path class="st20" d="M346.6,435.9h-42.8c-0.8,0-1.4-0.6-1.4-1.4l0,0c0-0.8,0.6-1.4,1.4-1.4h42.8c0.8,0,1.4,0.6,1.4,1.4l0,0
		C347.9,435.3,347.3,435.9,346.6,435.9z"/>
	<path class="st20" d="M457.2,436h-63.1c-0.8,0-1.5-0.7-1.5-1.5l0,0c0-0.8,0.7-1.5,1.5-1.5h63.1c0.8,0,1.5,0.7,1.5,1.5l0,0
		C458.7,435.4,458,436,457.2,436z"/>
	<path class="st20" d="M528.5,423.8h-63.1c-0.8,0-1.5-0.7-1.5-1.5l0,0c0-0.8,0.7-1.5,1.5-1.5h63.1c0.8,0,1.5,0.7,1.5,1.5l0,0
		C530,423.1,529.3,423.8,528.5,423.8z"/>
	<path class="st10" d="M465.1,416.5h-0.3c-0.7,0-1.3-0.6-1.3-1.3v-4.3c0-0.7,0.6-1.3,1.3-1.3h0.3c0.7,0,1.3,0.6,1.3,1.3v4.3
		C466.4,415.9,465.8,416.5,465.1,416.5z"/>
	<g>
		<polygon class="st7" points="496.9,406.5 509.7,406.5 496.9,395 		"/>
		<path class="st10" d="M497.9,399.6l2.7-6.4h3c0.9,0,1.5,0.7,1.5,1.5v9.5h-7.3V399.6z"/>
		<path class="st7" d="M500.6,393.3c0,0,1.6-0.4,1.6,4.6s0,6.4,0,6.4h3v-9.5c0-0.9-0.7-1.5-1.5-1.5H500.6z"/>
		<path class="st2" d="M463.4,381.2v25.3h33.5V395l-8.1-7.8c-4.1-3.9-9.5-6.1-15.1-6.1H463.4z"/>
		<g>
			<path class="st10" d="M488.8,387.3c-4.1-3.9-9.5-6.1-15.1-6.1h-10.3v2.3h10.4c5.1,0,10,2,13.7,5.5l7.3,7v10.4h2.2v-11.3
				L488.8,387.3z"/>
		</g>
		<rect x="463.4" y="400.1" class="st18" width="31.4" height="6.4"/>
		<linearGradient id="SVGID_5_" gradientUnits="userSpaceOnUse" x1="471.964" y1="388.1807" x2="471.964" y2="396.7028">
			<stop  offset="0" style="stop-color:#FFFFFF"/>
			<stop  offset="1" style="stop-color:#FFFFFF;stop-opacity:0"/>
		</linearGradient>
		<polygon class="st21" points="479.4,388.2 470.8,396.7 464.6,396.7 473.3,388.2 		"/>
		<linearGradient id="SVGID_6_" gradientUnits="userSpaceOnUse" x1="473.7356" y1="386.5885" x2="473.7356" y2="399.5539">
			<stop  offset="0" style="stop-color:#FFFFFF"/>
			<stop  offset="1" style="stop-color:#FFFFFF;stop-opacity:0"/>
		</linearGradient>
		<polygon class="st22" points="482.7,386.6 469.7,399.6 464.8,399.6 478,386.6 		"/>
		<linearGradient id="SVGID_7_" gradientUnits="userSpaceOnUse" x1="474.5258" y1="390.4839" x2="474.5258" y2="403.4493">
			<stop  offset="0" style="stop-color:#FFFFFF"/>
			<stop  offset="1" style="stop-color:#FFFFFF;stop-opacity:0"/>
		</linearGradient>
		<polygon class="st23" points="483.5,390.5 470.5,403.4 465.6,403.4 478.8,390.5 		"/>
	</g>
	<g>
		<g>
			<path class="st10" d="M329.9,395.5h-3.2c0,0-0.1,0-0.1,0.1v0.4c0,0,0,0.1,0.1,0.1h1.3v3.6c0,0,0,0.1,0.1,0.1h0.5
				c0,0,0.1,0,0.1-0.1V396h1.3c0,0,0.1,0,0.1-0.1L329.9,395.5C330,395.5,330,395.5,329.9,395.5z"/>
			<path class="st10" d="M386.6,395.5h-3.2c0,0-0.1,0-0.1,0.1v0.4c0,0,0,0.1,0.1,0.1h1.3v3.6c0,0,0,0.1,0.1,0.1h0.5
				c0,0,0.1,0,0.1-0.1V396h1.3c0,0,0.1,0,0.1-0.1L386.6,395.5C386.7,395.5,386.7,395.5,386.6,395.5z"/>
			<path class="st10" d="M376.3,395.5h-3.2c0,0-0.1,0-0.1,0.1v0.4c0,0,0,0.1,0.1,0.1h1.3v3.6c0,0,0,0.1,0.1,0.1h0.5
				c0,0,0.1,0,0.1-0.1V396h1.3c0,0,0.1,0,0.1-0.1L376.3,395.5C376.4,395.5,376.3,395.5,376.3,395.5z"/>
			<path class="st10" d="M334.4,398c0.7-0.2,1.1-0.6,1.1-1.2c0-0.3-0.1-0.6-0.3-0.9c-0.3-0.3-0.7-0.4-1.2-0.4h-1.8
				c0,0-0.1,0-0.1,0.1v4c0,0,0,0.1,0.1,0.1h0.5c0,0,0.1,0,0.1-0.1v-1.5h1.1l1.1,1.5c0,0,0,0,0,0h0.6c0,0,0,0,0,0s0,0,0-0.1
				L334.4,398z M332.7,396h1.2c0.6,0,1,0.3,1,0.8c0,0.5-0.4,0.8-1,0.8h-1.2V396z"/>
			<path class="st10" d="M370,398c0.7-0.2,1.1-0.6,1.1-1.2c0-0.3-0.1-0.6-0.3-0.9c-0.3-0.3-0.7-0.4-1.2-0.4h-1.8c0,0-0.1,0-0.1,0.1
				v4c0,0,0,0.1,0.1,0.1h0.5c0,0,0.1,0,0.1-0.1v-1.5h1.1l1.1,1.5c0,0,0,0,0,0h0.6c0,0,0,0,0,0s0,0,0-0.1L370,398z M368.3,396h1.2
				c0.6,0,1,0.3,1,0.8c0,0.5-0.4,0.8-1,0.8h-1.2V396z"/>
			<path class="st10" d="M340.1,395.5h-0.4c0,0,0,0,0,0l-1.8,4c0,0,0,0,0,0c0,0,0,0,0,0h0.5c0,0,0,0,0,0l0.4-1h2.2l0.4,1
				c0,0,0,0,0,0h0.5c0,0,0,0,0,0c0,0,0,0,0,0L340.1,395.5C340.1,395.5,340.1,395.5,340.1,395.5z M340.7,398.1H339l0.9-1.9
				L340.7,398.1z"/>
			<path class="st10" d="M380.1,395.5h-0.4c0,0,0,0,0,0l-1.8,4c0,0,0,0,0,0c0,0,0,0,0,0h0.5c0,0,0,0,0,0l0.4-1h2.2l0.4,1
				c0,0,0,0,0,0h0.5c0,0,0,0,0,0c0,0,0,0,0,0L380.1,395.5C380.1,395.5,380.1,395.5,380.1,395.5z M380.7,398.1H379l0.9-1.9
				L380.7,398.1z"/>
			<path class="st10" d="M347.7,395.5h-0.4c0,0-0.1,0-0.1,0.1v3.1l-2.5-3.2c0,0,0,0,0,0h-0.4c0,0-0.1,0-0.1,0.1v4c0,0,0,0.1,0.1,0.1
				h0.4c0,0,0.1,0,0.1-0.1v-3.2l2.5,3.2c0,0,0,0,0,0h0.4c0,0,0.1,0,0.1-0.1L347.7,395.5C347.8,395.5,347.8,395.5,347.7,395.5z"/>
			<path class="st10" d="M414.8,395.5h-0.4c0,0-0.1,0-0.1,0.1v3.1l-2.5-3.2c0,0,0,0,0,0h-0.4c0,0-0.1,0-0.1,0.1v4c0,0,0,0.1,0.1,0.1
				h0.4c0,0,0.1,0,0.1-0.1v-3.2l2.5,3.2c0,0,0,0,0,0h0.4c0,0,0.1,0,0.1-0.1L414.8,395.5C414.9,395.5,414.9,395.5,414.8,395.5z"/>
			<path class="st10" d="M402.2,395.5h-0.4c0,0-0.1,0-0.1,0.1v3.1l-2.5-3.2c0,0,0,0,0,0h-0.4c0,0-0.1,0-0.1,0.1v4c0,0,0,0.1,0.1,0.1
				h0.4c0,0,0.1,0,0.1-0.1v-3.2l2.5,3.2c0,0,0,0,0,0h0.4c0,0,0.1,0,0.1-0.1L402.2,395.5C402.2,395.5,402.2,395.5,402.2,395.5z"/>
			<path class="st10" d="M351.9,397.3c-0.9-0.2-1.1-0.4-1.1-0.7c0-0.4,0.3-0.6,0.8-0.6c0.4,0,0.8,0.1,1.1,0.4c0,0,0,0,0,0
				c0,0,0,0,0,0l0.3-0.4c0,0,0-0.1,0-0.1c-0.4-0.4-0.9-0.5-1.5-0.5c-0.8,0-1.4,0.5-1.4,1.2c0,0.8,0.6,1.1,1.4,1.2
				c0.9,0.2,1,0.4,1,0.7c0,0.4-0.3,0.7-0.9,0.7c-0.5,0-0.9-0.2-1.4-0.6c0,0,0,0,0,0c0,0,0,0,0,0l-0.3,0.3c0,0,0,0.1,0,0.1
				c0.5,0.5,1.1,0.7,1.7,0.7c0.9,0,1.4-0.5,1.4-1.2C353.3,397.9,352.9,397.5,351.9,397.3z"/>
			<path class="st10" d="M357.3,395.5h-1.5c0,0-0.1,0-0.1,0.1v4c0,0,0,0.1,0.1,0.1h0.5c0,0,0.1,0,0.1-0.1v-1.3h0.9
				c0.8,0,1.7-0.4,1.7-1.4C358.9,396,358.2,395.5,357.3,395.5z M357.2,397.7h-1V396h1c0.7,0,1,0.3,1,0.8
				C358.3,397.4,357.9,397.7,357.2,397.7z"/>
			<path class="st10" d="M363.1,395.4c-1.2,0-2.1,1-2.1,2.2c0,1.2,0.9,2.2,2.1,2.2c1.2,0,2.1-1,2.1-2.2
				C365.2,396.3,364.3,395.4,363.1,395.4z M363.1,399.2c-0.9,0-1.6-0.7-1.6-1.6c0-0.9,0.7-1.6,1.5-1.6c0.9,0,1.6,0.7,1.6,1.6
				C364.7,398.5,364,399.2,363.1,399.2z"/>
			<path class="st10" d="M389.5,395.5H389c0,0-0.1,0-0.1,0.1v4c0,0,0,0.1,0.1,0.1h0.5c0,0,0.1,0,0.1-0.1L389.5,395.5
				C389.5,395.5,389.5,395.5,389.5,395.5z"/>
			<path class="st10" d="M394.1,395.4c-1.2,0-2.1,1-2.1,2.2c0,1.2,0.9,2.2,2.1,2.2c1.2,0,2.1-1,2.1-2.2
				C396.2,396.3,395.3,395.4,394.1,395.4z M394.1,399.2c-0.9,0-1.6-0.7-1.6-1.6c0-0.9,0.7-1.6,1.5-1.6c0.9,0,1.6,0.7,1.6,1.6
				C395.6,398.5,395,399.2,394.1,399.2z"/>
			<path class="st10" d="M408.6,395.5h-0.5c0,0-0.1,0-0.1,0.1v4c0,0,0,0.1,0.1,0.1h0.5c0,0,0.1,0,0.1-0.1L408.6,395.5
				C408.7,395.5,408.7,395.5,408.6,395.5z"/>
			<path class="st10" d="M421.1,399l-0.3-0.3c0,0,0,0,0,0c0,0,0,0,0,0c-0.4,0.3-0.7,0.6-1.3,0.6c-0.9,0-1.5-0.7-1.5-1.7
				c0-0.9,0.7-1.6,1.6-1.6c0.5,0,0.8,0.2,1.2,0.6c0,0,0,0,0,0c0,0,0,0,0,0l0.3-0.3c0,0,0-0.1,0-0.1c-0.4-0.4-0.9-0.7-1.6-0.7
				c-1.2,0-2.1,0.9-2.1,2.1c0,1.2,0.9,2.2,2.1,2.2C420.1,399.7,420.6,399.5,421.1,399C421.1,399,421.1,399,421.1,399z"/>
		</g>
		<g>
			<path class="st10" d="M367.1,377.1h-1.8c-0.3,0-0.5,0.2-0.5,0.5v14.6c0,0.3,0.2,0.5,0.5,0.5h1.8c0.3,0,0.5-0.2,0.5-0.5v-14.6
				C367.6,377.3,367.3,377.1,367.1,377.1z"/>
			<path class="st10" d="M390.5,377.1h-1.8c-0.3,0-0.5,0.2-0.5,0.5v14.6c0,0.3,0.2,0.5,0.5,0.5h1.8c0.3,0,0.5-0.2,0.5-0.5v-14.6
				C391,377.3,390.8,377.1,390.5,377.1z"/>
			<path class="st10" d="M405.2,377.1l-10,0c-0.3,0-0.5,0.2-0.5,0.5v14.6c0,0.3,0.2,0.5,0.5,0.5h10c0.3,0,0.5-0.2,0.5-0.5v-1.8
				c0-0.3-0.2-0.5-0.5-0.5h-7.8v-3.9h5c0.3,0,0.5-0.2,0.5-0.5v-1.8c0-0.3-0.2-0.5-0.5-0.5h-5v-3.4h7.8c0.3,0,0.5-0.2,0.5-0.5v-1.8
				C405.7,377.3,405.5,377.1,405.2,377.1z"/>
			<path class="st10" d="M384.1,377.1h-1.8c-0.3,0-0.5,0.2-0.5,0.5v10.2l-7.8-10.4c-0.1-0.1-0.1-0.1-0.2-0.2
				c-0.1-0.1-0.2-0.1-0.3-0.1h-1.8c-0.3,0-0.5,0.2-0.5,0.5v14.6c0,0.3,0.2,0.5,0.5,0.5h1.8c0.3,0,0.5-0.2,0.5-0.5v-10.2l7.9,10.5
				c0.1,0.1,0.1,0.1,0.2,0.2c0.1,0,0.1,0.1,0.2,0.1h1.8c0.3,0,0.5-0.2,0.5-0.5v-14.6C384.5,377.3,384.3,377.1,384.1,377.1z"/>
			<path class="st18" d="M361.5,379.3c-0.1-0.2-0.4-0.3-0.7-0.2l-5,3.1l-2.8-4.8c-0.1-0.2-0.4-0.3-0.6-0.3h-0.8
				c-0.2,0-0.5,0.2-0.6,0.3l-8.9,14.9c-0.1,0.2,0,0.4,0.2,0.4h2.2c0.3,0,0.6-0.2,0.7-0.4l6.7-11.1l1.5,2.5l-2.5,1.5
				c0,0-0.2,0.2-0.3,0.2c-0.2,0.1-0.4,0.4-0.6,0.6l-0.8,1.4c-0.1,0.2-0.1,0.5,0.2,0.6l9.6,4.6c0,0,0.3,0.1,0.6,0.1l0,0l0,0
				c0,0,0.3,0,0.3,0h1.6c0.3,0,0.4-0.2,0.2-0.4c0,0-3.9-6.5-4-6.6c-0.1-0.2-0.4-0.2-0.6-0.1l-1.5,0.9c-0.2,0.1-0.3,0.4-0.2,0.6
				c0.1,0.1,0.6,1,0.6,1l-2.6-1.3l8.7-5.4c0.2-0.1,0.3-0.4,0.2-0.7L361.5,379.3z"/>
			<path class="st10" d="M423.8,382.8c0-3.1-2.8-5.6-6.1-5.6H411c-0.3,0-0.5,0.2-0.5,0.5v6.6c0,0.3,0.2,0.5,0.5,0.5h1.8
				c0.3,0,0.5-0.2,0.5-0.5v-4.3h4.5c1.8,0,3.3,1.3,3.3,2.9c0,1.6-1.5,2.9-3.3,2.9h-9.5c-0.3,0-0.5,0.2-0.5,0.5v1.8
				c0,0.3,0.2,0.5,0.5,0.5h2.3v3.9c0,0.3,0.2,0.5,0.5,0.5h1.8c0.3,0,0.5-0.2,0.5-0.5v-3.9h5l2.3,3.9c0.1,0.2,0.5,0.4,0.7,0.4h2.2
				c0.2,0,0.4-0.2,0.2-0.4l-2.8-4.8c0,0,0.2-0.1,0.3-0.2C422.8,386.3,423.8,384.6,423.8,382.8z"/>
			<path class="st10" d="M340,382.8c0-3.1-2.8-5.6-6.1-5.6h-6.8c-0.3,0-0.5,0.2-0.5,0.5v6.6c0,0.3,0.2,0.5,0.5,0.5h1.8
				c0.3,0,0.5-0.2,0.5-0.5v-4.3h4.5c1.8,0,3.3,1.3,3.3,2.9c0,1.6-1.5,2.9-3.3,2.9h-9.5c-0.3,0-0.5,0.2-0.5,0.5v1.8
				c0,0.3,0.2,0.5,0.5,0.5h2.3v3.9c0,0.3,0.2,0.5,0.5,0.5h1.8c0.3,0,0.5-0.2,0.5-0.5v-3.9h5l2.3,3.9c0.1,0.2,0.5,0.4,0.7,0.4h2.2
				c0.2,0,0.4-0.2,0.2-0.4l-2.8-4.8c0,0,0.2-0.1,0.3-0.2C338.9,386.3,340,384.6,340,382.8z"/>
		</g>
	</g>
	<path class="st10" d="M543.5,415.1l-4,1.6c-1.1,0.5-1.9,1.6-1.9,2.8v15.7h5.9v-3h-3.7v-11c0-1.2,0.7-2.2,1.7-2.7l2-0.9V415.1z"/>
	<polygon class="st2" points="539.8,432.2 543.5,432.2 543.5,425.1 539.8,425.5 	"/>
	<g>
		<path class="st7" d="M501.6,444.6c0-9.4,7.7-17.1,17.1-17.1c9.4,0,17.1,7.7,17.1,17.1H501.6z"/>
		<g>
			<circle class="st6" cx="518.7" cy="444.6" r="13.4"/>
			<circle class="st18" cx="518.7" cy="444.6" r="8.3"/>
			<circle class="st19" cx="518.7" cy="444.6" r="1.8"/>
			<path class="st19" d="M518.7,449.6c-0.9,0-1.6,0.6-1.8,1.5c0.6,0.2,1.2,0.2,1.8,0.2c0.6,0,1.2-0.1,1.8-0.2
				C520.3,450.2,519.6,449.6,518.7,449.6z"/>
			<path class="st19" d="M514.7,446.8c0-1-0.8-1.8-1.8-1.8c-0.3,0-0.6,0.1-0.9,0.2c0.1,1.2,0.6,2.4,1.3,3.3
				C514.1,448.4,514.7,447.7,514.7,446.8z"/>
			<path class="st19" d="M524.6,445c-1,0-1.8,0.8-1.8,1.8c0,0.8,0.6,1.6,1.4,1.7c0.7-0.9,1.2-2.1,1.3-3.3
				C525.2,445.1,524.9,445,524.6,445z"/>
			<path class="st19" d="M522.6,441.2c0.6,0,1.1-0.3,1.5-0.8c-0.7-1-1.7-1.7-2.9-2.1c-0.2,0.3-0.4,0.7-0.4,1.1
				C520.8,440.4,521.6,441.2,522.6,441.2z"/>
			<path class="st19" d="M514.9,441.2c1,0,1.8-0.8,1.8-1.8c0-0.4-0.1-0.8-0.4-1.1c-1.1,0.4-2.1,1.2-2.9,2.1
				C513.8,440.9,514.3,441.2,514.9,441.2z"/>
		</g>
	</g>
	<path class="st10" d="M532.9,434.7"/>
	<path class="st7" d="M466.4,410.5h-1c-0.3,0-0.5,0.2-0.5,0.5v3.8c0,0.3,0.2,0.5,0.5,0.5h1V410.5z"/>
	<path class="st20" d="M290.4,350.7h3h157.4c3.4,0,6.1,2.7,6.1,6.1v84.8v3.1l3-0.1v-87.8c0-5-4.1-9.1-9.1-9.1H290.4V350.7z"/>
	<g>
		<path class="st20" d="M290.4,352.9h160.3c2.2,0,4.1,1.8,4.1,4.1v87.7h5.1v-85.3c0-7.4-4.1-11.5-9.2-11.5H290.4V352.9z"/>
	</g>
</g>
</svg>
