<?xml version="1.0" encoding="utf-8"?>
<!-- Generator: Adobe Illustrator 19.2.0, SVG Export Plug-In . SVG Version: 6.00 Build 0)  -->
<svg version="1.1" id="Слой_1" xmlns="http://www.w3.org/2000/svg" xmlns:xlink="http://www.w3.org/1999/xlink" x="0px" y="0px"
	 viewBox="0 0 1186.2 464.2" style="enable-background:new 0 0 1186.2 464.2;" xml:space="preserve">
<style type="text/css">
	.st4{fill:url(#SVGID_1_);}
	.st5{fill:url(#SVGID_2_);}
	.st6{fill:#00517C;}
	.st7{fill:#15324B;}
	.st8{fill:#114268;}
	.st9{fill:#1F9572;}
	.st10{fill:none;stroke:#127754;stroke-miterlimit:10;}
	.st11{fill:url(#SVGID_3_);}
	.st12{fill:#FFFFFF;}
	.st13{fill:#E6F5FE;}
	.st14{fill:#D97F10;}
	.st15{opacity:0.29;fill:#272220;}
	.st16{fill:#C9DFEC;}
	.st17{fill:url(#SVGID_4_);}
	.st18{fill:url(#SVGID_5_);}
	.st19{fill:url(#SVGID_6_);}
</style>
<path fill="#DFF2FD" d="M1114.3,320.4L1114.3,320.4c-15.8,0-30-9.7-35.8-24.4l-21.9-55.2c-9.2-13.9-24.7-22.2-41.4-22.3l-14.7,0
	c-27.5,0-49.7-22.3-49.7-49.8v0c0-27.5-22.2-49.7-49.7-49.8l-4.7,0l-87.7-0.1c-32.7-0.1-59.2-26.6-59.2-59.3v0
	c0-32.7-26.5-59.3-59.2-59.3L512.5-0.1C476-0.1,441,14.3,415.1,40.1v0c-25.9,25.8-60.9,40.2-97.4,40.2l-71.3-0.1
	c-30.5,0-55.2,24.6-55.2,55.1v0c0,14.6-5.8,28.6-16.2,38.9l-24.5,24.4c-16.3,16.3-25.5,38.4-25.5,61.5v0
	c-0.1,32.7-17.5,59.5-50.2,59.5l0,0l-0.6,0.8h-2.4C32.2,320.4,0,352.5,0,392.2v0c0,39.7,32.2,71.9,71.9,71.9h1042.4
	c39.7,0,71.9-32.2,71.9-71.9v0C1186.2,352.5,1154,320.4,1114.3,320.4z"/>
<g>
	<circle fill="#F6A31C" cx="599.8" cy="185.6" r="42.7"/>
	<path fill="#0073AA" d="M1075.9,464.1c-3.5-2.7-7-5.4-10.5-8.1c-16-16.1-27-35-33.2-56.9c-1.5-11.4-3.1-22.8-4.6-34.3
		c-0.6-15.8,2.3-30.6,8.6-44.5l-727.5,1.7L74.7,464h269.6l493.9,0v0.1H1075.9z"/>
	<path fill="#54A5D2" d="M1035.5,322.1c0-3.3,0-5.7,0-5.7H866.8v30.8h11.4l10.5-10.5l5.7,5.7h11.5v-10.5h13.6v6h8v8.3l4.1,4.1v6.2h18
		v-17.3h10.2v7.9h9.7l9.3,9.3l6.3-6.3v-20.6h7.4v8.4h4.8v-6h9v26.9h11.6v-19.6h7.6c0,0,2.3-0.7,4.6-1.2
		C1031.5,332.6,1033.2,327.3,1035.5,322.1z"/>
	<polygon fill="#0073AA" points="216.9,377.2 216.9,345.2 224.7,337.4 224.7,321.6 235,321.6 246,299.3 261.4,299.3 261.4,320.4 
		273.3,320.4 286.4,320.4 313.4,320.4 313.4,361 292.6,381.9 	"/>
</g>
<polygon fill="#54A5D2" points="1011.1,295.7 998.8,303.1 990.6,303.1 987.6,300 976.8,300 965.4,300 962.3,303.1 904.4,303.1 
	902.1,300.7 895.1,300.7 895.1,291.8 887.6,291.8 887.6,303.1 880.3,303.1 880.3,298.9 872.6,298.9 868.4,303.1 863.5,303.1 
	858.5,284.6 858.5,258.2 843.5,258.2 843.5,239 836.1,231.7 823.8,244.1 823.8,296.6 796.6,296.6 788.8,288.7 770.2,288.7 
	770.2,277 744.8,277 744.8,288.7 734.1,288.7 734.1,280.8 722.8,280.8 722.8,299.5 707.4,299.5 700.5,306.4 694,299.8 686.5,307.3 
	686.5,322 1046.8,322.2 1016,303.9 "/>
<polygon fill="#54A5D2" points="318,287 325.9,294.8 353,294.8 353,242.4 365.4,230 372.7,237.3 372.7,256.5 387.7,256.5 387.7,282.8 
	410,282.8 410,295.5 421,293.9 421,271.7 434.7,271.7 434.7,251.6 445.3,251.6 445.3,264.1 459.3,271.7 459.3,287 493.7,287 
	506.3,274.3 513,274.3 513,282.8 526.5,282.8 526.5,293.9 540.3,293.9 577,293.9 577,261 594.4,261 603.5,270.1 603.5,284.9 
	608.3,289.7 608.3,297.4 613.2,302.3 619.5,308.6 628.4,308.6 634.3,314.5 634.3,336.5 "/>
<g>
	<polygon fill="#0073AA" points="583,310.1 619.6,310.1 627.3,302.4 637.6,312.7 642.1,308.1 647.8,313.8 662,313.8 668.7,320.5 
		674,320.5 680.5,317.6 686.5,317.6 686.5,322.1 658.4,323.3 583,322.1 	"/>
</g>
<linearGradient id="SVGID_1_" gradientUnits="userSpaceOnUse" x1="745.0345" y1="161.1424" x2="745.0345" y2="188.496">
	<stop  offset="0" style="stop-color:#FFFFFF"/>
	<stop  offset="0.8587" style="stop-color:#FFFFFF;stop-opacity:0.1413"/>
	<stop  offset="1" style="stop-color:#FFFFFF;stop-opacity:0"/>
</linearGradient>
<path class="st4" d="M794.6,188.5h-99.2l14.9-14.9c3.5-3.5,9.3-3.5,12.8,0v0c3.5,3.5,9.3,3.5,12.8,0l9.8-9.8
	c3.1-3.1,7.9-3.5,11.5-1.1L794.6,188.5z"/>
<linearGradient id="SVGID_2_" gradientUnits="userSpaceOnUse" x1="622.0308" y1="61.4137" x2="622.0308" y2="103.7415">
	<stop  offset="0" style="stop-color:#FFFFFF"/>
	<stop  offset="0.8587" style="stop-color:#FFFFFF;stop-opacity:0.1413"/>
	<stop  offset="1" style="stop-color:#FFFFFF;stop-opacity:0"/>
</linearGradient>
<path class="st5" d="M698.8,103.7H545.3l23-23c5.5-5.5,14.3-5.5,19.8,0l0,0c5.5,5.5,14.3,5.5,19.8,0l15.2-15.2
	c4.8-4.8,12.3-5.5,17.8-1.6L698.8,103.7z"/>
<g>
	<path class="st6" d="M696.8,464.1c0,0,48.7,0,60.8-0.1c12.1-0.1,40.5-1.8,41.5-24.2s-26.5-39.1-50.1-49
		c-23.6-10-36.4-9.8-40.3-12.7c-3.9-3,4.5-4.7,12.1-7.3s14-7.2,19.7-13c5.7-5.8,10.1-22.2-6.1-27.1c-16.3-5-39.7-4.8-46.5-10.3h-0.7
		c0.9,0.9,3.8,3.1,3.5,2.9c-2.7-1.5,2.8,5.9,20.7,8.5c8.8,1.3,17.7,4.9,17.7,11.5c0,6.6-2.4,12-46.4,20.5
		c-43.6,8.4-27.5,23.4-14.7,32.1c12.4,9.5,67.8,36.2,21.2,44.9c-35.3,5.4-97,4.3-97,4.3c0.2,0,1.6,0-569.3-0.2c0,0,17.7,19,47.2,19
		s625.5,0.1,625.5,0.1"/>
	<path class="st7" d="M457.4,464.1C457.4,464.1,457.4,464.1,457.4,464.1H199.2C199.2,464.1,238.6,464.1,457.4,464.1z"/>
	<path class="st7" d="M792,433.2c-1.7-19.6-51.4-45.5-77.1-51.6c-9.1-1.9-17.7-5.1-5.5-8.7c0.7-0.2,36.1-8.1,34.4-29.1
		s-42.4-12.1-56.6-23.3h-0.9c8.3,13.6,44.6,6.6,43.2,23.8c-2,21.9-73.4,18.6-72.5,36s162.8,73.1-54.5,69.3
		c-38.6,0-83,14.6-145.1,14.6l280.7,0c0,0-14.8,0-14.8,0C748.5,463.8,794.3,460.4,792,433.2z"/>
	<path class="st7" d="M28,449.5c12,9.4,26.4,14.6,43,14.6l624.8,0c0.2-4.9,0.6-9.8,1.2-14.6L28,449.5z"/>
</g>
<g>
	<polygon class="st6" points="301.9,394.4 166,394.4 166,348.5 234,348.5 242.3,357.9 270.5,358.3 285.2,338.8 301.9,338.9 	"/>
	<g>
		<polygon class="st8" points="116.5,391.6 218.7,391.6 256.6,353.7 290.4,387.6 319.5,387.6 319.5,345.3 360,345.3 360,316.3 
			379.3,335.6 379.3,445 99,445 104.7,427.5 109,427.5 112.7,415.5 108.6,415.5 		"/>
		<polygon class="st6" points="322.7,445 322.7,400.4 280.4,400.4 270.7,390.7 264.1,384 247,384 230.1,400.9 207.8,400.9 
			207.8,424.2 183.5,445 		"/>
		
			<rect x="236.8" y="427.5" transform="matrix(-1 -2.732138e-011 2.732138e-011 -1 547.9421 872.4883)" class="st9" width="74.3" height="17.6"/>
		
			<rect x="124.4" y="427.5" transform="matrix(-1 -4.342272e-011 4.342272e-011 -1 295.4676 872.4883)" class="st6" width="46.7" height="17.6"/>
		<rect x="124.4" y="401.6" fill="#F6A31C" width="8.6" height="18.2"/>
		<rect x="136.9" y="401.6" fill="#F6A31C" width="8.6" height="18.2"/>
		<rect x="149.4" y="401.6" class="st6" width="8.6" height="18.2"/>
		<rect x="161.9" y="401.6" class="st6" width="8.6" height="18.2"/>
		<rect x="174.5" y="401.6" class="st6" width="8.6" height="18.2"/>
		<rect x="187" y="401.6" class="st6" width="8.6" height="18.2"/>
	</g>
	<rect x="250.9" y="438.4" class="st9" width="4.4" height="6.7"/>
	<g>
		<rect x="171.1" y="355.3" class="st8" width="10" height="19.6"/>
		<rect x="185.8" y="355.3" class="st8" width="10" height="19.6"/>
		<rect x="201.3" y="355.3" class="st8" width="10" height="19.6"/>
		<polygon class="st8" points="211.3,388.5 154.6,388.5 159.3,379.6 211.3,379.6 		"/>
		<polygon class="st8" points="204,346 175.6,346 177.9,337.2 204,337.2 		"/>
	</g>
	<rect x="242.3" y="434.7" class="st8" width="15.5" height="10.3"/>
	<rect x="148.7" y="434.7" class="st9" width="15.5" height="10.3"/>
	<rect x="212.7" y="406.2" fill="#F6A31C" width="19.4" height="5"/>
	<rect x="212.7" y="414.5" class="st9" width="19.4" height="5"/>
	<rect x="237.1" y="406.2" class="st8" width="19.4" height="5"/>
	<rect x="237.1" y="414.5" fill="#F6A31C" width="19.4" height="5"/>
	<rect x="262.3" y="406.2" class="st8" width="19.4" height="5"/>
	<rect x="262.3" y="414.5" class="st8" width="19.4" height="5"/>
	<rect x="288" y="406.2" class="st8" width="19.4" height="5"/>
	<rect x="288" y="414.5" class="st8" width="19.4" height="5"/>
	<rect x="212.7" y="427.5" class="st8" width="19.4" height="17.8"/>
</g>
<g>
	<polygon class="st6" points="696.9,350.9 644.3,350.9 603.7,396 610.7,405.3 610.7,445.2 570.4,445.2 570.4,318.6 594.8,309.4 
		600.6,315.3 600.6,299.2 628.1,299.2 628.1,312.3 637.8,316.2 637.8,328.3 648.5,328.3 658.1,338.7 676.9,338.7 676.9,331.9 
		685.6,331.9 699.1,331.9 699.1,340.8 705.3,340.8 710.1,336 715.1,341 715.1,351.1 	"/>
	<polygon class="st8" points="600.6,290.3 620.7,290.3 620.7,445.3 601.6,445.2 	"/>
	<g>
		<g>
			<polygon class="st6" points="470.8,321.1 470.8,255.1 444.6,255.1 444.6,245.2 436.6,245.2 426.2,255 402.6,213.6 385.2,213.6 
				385.2,309 385.2,449.5 485.3,449.5 			"/>
			<polyline class="st8" points="442.3,326.1 430.9,326.1 430.9,257.4 442.3,257.4 			"/>
			<rect x="430.9" y="336.1" class="st8" width="11.4" height="68.7"/>
		</g>
		<polygon class="st6" points="528.6,234.4 506.6,215.3 473.9,215.3 456,233.2 		"/>
		
			<rect x="449.6" y="232.2" transform="matrix(-1 -4.487578e-011 4.487578e-011 -1 995.0154 681.6745)" class="st8" width="95.8" height="217.2"/>
		<g>
			<rect x="464.7" y="242.9" class="st9" width="6.6" height="182.3"/>
		</g>
		<g>
			<rect x="479.7" y="242.9" class="st9" width="6.6" height="182.3"/>
		</g>
		<g>
			<rect x="494.9" y="242.9" class="st6" width="6.6" height="182.3"/>
		</g>
		<g>
			<g>
				
					<rect x="517.2" y="240.1" transform="matrix(-1 -5.332635e-011 5.332635e-011 -1 1062.6182 485.0721)" class="st6" width="28.3" height="4.9"/>
				
					<rect x="517.2" y="251.7" transform="matrix(-1 -5.332635e-011 5.332635e-011 -1 1062.6182 508.2476)" class="st6" width="28.3" height="4.9"/>
			</g>
			<g>
				<rect x="517.2" y="262.4" class="st6" width="28.3" height="4.9"/>
				<rect x="517.2" y="274" class="st6" width="28.3" height="4.9"/>
			</g>
			<g>
				<rect x="517.2" y="284.8" class="st6" width="28.3" height="4.9"/>
				<rect x="517.2" y="296.4" class="st9" width="28.3" height="4.9"/>
			</g>
			<g>
				<rect x="517.2" y="314.1" class="st6" width="28.3" height="4.9"/>
				<rect x="517.2" y="325.7" class="st6" width="28.3" height="4.9"/>
			</g>
			<g>
				<rect x="517.2" y="358.8" class="st9" width="28.3" height="4.9"/>
				<rect x="517.2" y="370.4" class="st9" width="28.3" height="4.9"/>
			</g>
			<g>
				<rect x="517.2" y="381.2" class="st6" width="28.3" height="4.9"/>
				<rect x="517.2" y="392.8" class="st6" width="28.3" height="4.9"/>
			</g>
			<g>
				<rect x="517.2" y="403.5" class="st6" width="28.3" height="4.9"/>
				<rect x="517.2" y="415.1" class="st6" width="28.3" height="4.9"/>
			</g>
			<g>
				<rect x="517.2" y="425.9" class="st6" width="28.3" height="4.9"/>
				<rect x="517.2" y="437.5" class="st6" width="28.3" height="4.9"/>
			</g>
		</g>
		<g>
			<path class="st6" d="M371.5,246.1c3.2,0,3.2-5,0-5C368.2,241.1,368.2,246.1,371.5,246.1L371.5,246.1z"/>
		</g>
		<g>
			<polygon class="st8" points="366.6,140.5 361,102.4 355.4,140.5 361,143.6 			"/>
			<g>
				<path class="st8" d="M361.3,137L361.3,137c5.4,0,10.1,3.2,11.4,7.8l1.2,12.9h-25.8l1.8-12.9C351.2,140.2,355.9,137,361.3,137z"
					/>
				<g>
					<polygon class="st6" points="356.5,149.8 355.6,140.5 358.6,147.9 358.6,149.8 					"/>
					<polyline class="st6" points="363.7,147.9 363.7,149.8 365.8,149.8 366.7,140.5 					"/>
					<polygon class="st6" points="361.3,139.1 362.4,148.1 360.3,148.1 					"/>
				</g>
			</g>
			<g>
				<path class="st8" d="M361.6,149.8L361.6,149.8c9.2,0,17.2,5.5,19.4,13.3l2,22H339l3.1-22C344.4,155.3,352.4,149.8,361.6,149.8z"
					/>
				<g>
					<polygon class="st6" points="353.4,171.6 351.9,155.9 357,168.3 357,171.6 					"/>
					<polyline class="st6" points="365.8,168.3 365.8,171.6 369.3,171.6 370.9,155.9 					"/>
					<polygon class="st6" points="361.3,153.4 363.1,168.8 359.6,168.8 					"/>
				</g>
			</g>
			<g>
				<path class="st8" d="M361.8,167.4L361.8,167.4c13.2,0,24.8,7.9,28,19.2l2.9,19.2h-63.3l4.5-19.2
					C337,175.3,348.6,167.4,361.8,167.4z"/>
				<g>
					<polygon class="st6" points="382,192.1 384.2,180.8 376.9,187.3 376.9,192.1 					"/>
					<polygon class="st6" points="341.3,192.1 339.1,180.8 346.4,187.3 346.4,192.1 					"/>
					<polygon class="st6" points="350.2,187.4 348,176.2 355.3,182.7 355.3,187.4 					"/>
					<polygon class="st6" points="372.7,187.4 374.9,176.2 367.6,182.7 367.6,187.4 					"/>
					<polygon class="st6" points="361.3,172.7 363.9,183.4 358.8,183.4 					"/>
				</g>
			</g>
			<g>
				<path class="st8" d="M362.1,184.3L362.1,184.3c17.8,0,33.2,10.6,37.5,25.7l3.9,25.7h-85l6.1-25.7
					C328.8,194.9,344.3,184.3,362.1,184.3z"/>
				<g>
					<polygon class="st6" points="389.3,217.4 392.2,202.3 382.4,211 382.4,217.4 					"/>
					<polygon class="st6" points="334.6,217.4 331.6,202.3 341.5,211 341.5,217.4 					"/>
					<polygon class="st6" points="346.5,211.2 343.6,196.1 353.4,204.8 353.4,211.2 					"/>
					<polygon class="st6" points="376.9,211.2 379.9,196.1 370,204.8 370,211.2 					"/>
					<polygon class="st6" points="361.3,191.3 364.8,205.7 357.9,205.7 					"/>
				</g>
			</g>
			
				<rect x="301.9" y="267.6" transform="matrix(-1 -1.224647e-016 1.224647e-016 -1 721.9794 717.0453)" class="st8" width="118.1" height="181.9"/>
			<path class="st8" d="M308.7,268.7h104.6l-0.6-13.8c-1.2-27.7-24-49.6-51.7-49.6h0c-27.7,0-50.6,21.9-51.7,49.6L308.7,268.7z"/>
			<g>
				<path class="st6" d="M318.2,434.8h85.2V271.4c0-23.5-19.1-42.6-42.6-42.6h0c-23.5,0-42.6,19.1-42.6,42.6V434.8z"/>
				<path class="st8" d="M351.9,427.8h17.7V270.6c0-4.9-4-8.9-8.9-8.9l0,0c-4.9,0-8.9,4-8.9,8.9V427.8z"/>
			</g>
			<g>
				<polygon class="st6" points="394.5,246.1 398.2,227.5 386,238.2 386,246.1 				"/>
				<polygon class="st6" points="327.1,246.1 323.5,227.5 335.6,238.2 335.6,246.1 				"/>
				<polygon class="st6" points="341.9,238.4 338.2,219.8 350.4,230.5 350.4,238.4 				"/>
				<polygon class="st6" points="361.3,213.9 365.5,231.7 357.1,231.7 				"/>
			</g>
			<g>
				<g>
					
						<rect x="324.5" y="276.5" transform="matrix(-1 -4.461643e-011 4.461643e-011 -1 656.2904 569.1613)" class="st8" width="7.3" height="16.1"/>
					
						<rect x="324.5" y="303.6" transform="matrix(-1 -4.511470e-011 4.511470e-011 -1 656.2904 623.407)" class="st9" width="7.3" height="16.1"/>
					
						<rect x="324.5" y="330.8" transform="matrix(-1 -4.461643e-011 4.461643e-011 -1 656.2904 677.6526)" class="st8" width="7.3" height="16.1"/>
					
						<rect x="324.5" y="357.9" transform="matrix(-1 -4.486557e-011 4.486557e-011 -1 656.2904 731.8983)" class="st8" width="7.3" height="16.1"/>
				</g>
				<g>
					
						<rect x="324.5" y="381.8" transform="matrix(-1 -4.486557e-011 4.486557e-011 -1 656.2904 779.7943)" class="st8" width="7.3" height="16.1"/>
					
						<rect x="324.5" y="409" transform="matrix(-1 -4.486557e-011 4.486557e-011 -1 656.2904 834.04)" class="st8" width="7.3" height="16.1"/>
				</g>
				<g>
					
						<rect x="338.9" y="276.5" transform="matrix(-1 -4.461643e-011 4.461643e-011 -1 685.1196 569.1613)" fill="#F6A31C" width="7.3" height="16.1"/>
					
						<rect x="338.9" y="303.6" transform="matrix(-1 -4.486557e-011 4.486557e-011 -1 685.1196 623.407)" class="st8" width="7.3" height="16.1"/>
					
						<rect x="338.9" y="330.8" transform="matrix(-1 -4.486557e-011 4.486557e-011 -1 685.1196 677.6526)" class="st8" width="7.3" height="16.1"/>
					
						<rect x="338.9" y="357.9" transform="matrix(-1 -4.436685e-011 4.436685e-011 -1 685.1196 731.8983)" class="st9" width="7.3" height="16.1"/>
				</g>
				<g>
					
						<rect x="338.9" y="381.8" transform="matrix(-1 -4.511470e-011 4.511470e-011 -1 685.1196 779.7943)" class="st8" width="7.3" height="16.1"/>
					
						<rect x="338.9" y="409" transform="matrix(-1 -4.511470e-011 4.511470e-011 -1 685.1196 834.04)" class="st8" width="7.3" height="16.1"/>
				</g>
				<g>
					
						<rect x="375.4" y="276.5" transform="matrix(-1 -4.486557e-011 4.486557e-011 -1 758.1616 569.1613)" class="st9" width="7.3" height="16.1"/>
					
						<rect x="375.4" y="303.6" transform="matrix(-1 -4.461643e-011 4.461643e-011 -1 758.1616 623.407)" class="st8" width="7.3" height="16.1"/>
					
						<rect x="375.4" y="330.8" transform="matrix(-1 -4.461643e-011 4.461643e-011 -1 758.1616 677.6526)" class="st9" width="7.3" height="16.1"/>
					
						<rect x="375.4" y="357.9" transform="matrix(-1 -4.486557e-011 4.486557e-011 -1 758.1616 731.8983)" class="st8" width="7.3" height="16.1"/>
				</g>
				<g>
					
						<rect x="375.4" y="381.8" transform="matrix(-1 -4.436685e-011 4.436685e-011 -1 758.1616 779.7943)" class="st8" width="7.3" height="16.1"/>
					
						<rect x="375.4" y="409" transform="matrix(-1 -4.461643e-011 4.461643e-011 -1 758.1616 834.04)" class="st8" width="7.3" height="16.1"/>
				</g>
				<g>
					
						<rect x="389.8" y="276.5" transform="matrix(-1 -4.486557e-011 4.486557e-011 -1 786.9908 569.1613)" class="st9" width="7.3" height="16.1"/>
					
						<rect x="389.8" y="303.6" transform="matrix(-1 -4.486557e-011 4.486557e-011 -1 786.9908 623.407)" class="st8" width="7.3" height="16.1"/>
					
						<rect x="389.8" y="330.8" transform="matrix(-1 -4.486557e-011 4.486557e-011 -1 786.9908 677.6526)" fill="#F6A31C" width="7.3" height="16.1"/>
					
						<rect x="389.8" y="357.9" transform="matrix(-1 -4.486557e-011 4.486557e-011 -1 786.9908 731.8983)" class="st8" width="7.3" height="16.1"/>
				</g>
				<g>
					
						<rect x="389.8" y="381.8" transform="matrix(-1 -4.486557e-011 4.486557e-011 -1 786.9908 779.7943)" class="st8" width="7.3" height="16.1"/>
					
						<rect x="389.8" y="409" transform="matrix(-1 -4.536383e-011 4.536383e-011 -1 786.9908 834.04)" class="st8" width="7.3" height="16.1"/>
				</g>
			</g>
			<polygon class="st6" points="380.4,238.4 384.1,219.8 371.9,230.5 371.9,238.4 			"/>
		</g>
	</g>
	<polygon class="st8" points="533.5,305.1 568.6,288 568.6,305.1 533.5,308.9 	"/>
	<rect x="515" y="305.1" class="st6" width="95.7" height="140.1"/>
	<g>
		<rect x="524.1" y="314.2" class="st8" width="3.5" height="120.6"/>
		<rect x="534.7" y="314.2" class="st8" width="3.5" height="120.6"/>
		<rect x="545.3" y="314.2" class="st8" width="3.5" height="120.6"/>
		<rect x="555.8" y="314.2" class="st8" width="3.5" height="120.6"/>
		<rect x="566.4" y="314.2" class="st8" width="3.5" height="120.6"/>
		<rect x="577" y="314.2" class="st8" width="3.5" height="120.6"/>
		<rect x="587.5" y="314.2" class="st9" width="3.5" height="120.6"/>
		<rect x="598.1" y="314.2" class="st9" width="3.5" height="120.6"/>
	</g>
</g>
<polygon fill="#0073AA" points="860.6,319.9 860.6,314 855.2,308.6 855.2,301.4 847.6,301.4 847.6,307 842.7,307.1 838.6,304.5 
	835.4,307.7 829,307.7 829,294.4 821.1,294.4 821.1,305.8 815.7,305.8 813.1,303.1 809.9,306.3 804.4,306.3 799.9,301.8 
	795.9,305.8 795.9,312.1 790.4,317.6 786.4,313.6 786.4,293.8 782.9,290.3 777.4,295.8 777.4,303.7 775.6,301.9 763.5,301.9 
	757.7,307.8 757.7,312.3 746.8,312.3 746.8,333.3 860.6,333.3 "/>
<polygon fill="#0073AA" points="750.6,318 739.1,318 733.7,312.6 725.8,312.6 722.1,316.3 712.1,316.3 706.6,310.8 702.6,314.8 
	693.4,314.8 688.4,322.1 722.9,323.3 752.9,322.1 "/>
<g>
	<polygon class="st8" points="941.1,372.7 941.1,357.9 946.1,353 959.1,353 959.1,360.3 966.3,360.3 966.3,389.4 941.1,389.4 	"/>
	<polygon class="st6" points="876.6,362.6 895.2,362.6 901.9,356 914,356 914,378.5 926.6,378.5 935.6,369.5 941.1,375 941.1,389.4 
		876.6,389.4 	"/>
	<g>
		<polygon class="st6" points="860.2,345.6 780.2,317.8 763.1,317.8 763.1,345.6 730.9,345.6 730.9,372.7 860.2,372.7 		"/>
		<polygon class="st6" points="754.3,345.6 749.5,340.9 742.7,340.9 738,345.5 744.2,365.4 		"/>
	</g>
	<g>
		<g>
			<g>
				<path fill="#0073AA" d="M1015.5,305h-66.7v-8.1v-26.1v-2.4v-6.7h-9v6.7h-22.6v-6.7h-9v6.7h0V305h-66.8v7.1h66.8v12.6h6.9V312h10
					v12.6h6.9V312h10.1v12.6h6.9V312h66.7V305z M932.3,280.7l3.2-5.6c0.7-1.2,2.4-1.2,3.1,0l3.2,5.6c0.2,0.3,0.2,0.6,0.2,0.9V305
					H932v-23.4C932,281.2,932.1,280.9,932.3,280.7z M915.2,305v-23.4c0-0.3,0.1-0.6,0.2-0.9l3.1-5.5c0.7-1.2,2.4-1.2,3.1,0l3.1,5.5
					c0.1,0.3,0.2,0.6,0.2,0.9V305H915.2z"/>
			</g>
			<g>
				<g>
					<g>
						<rect x="950.4" y="263.9" fill="#0073AA" width="1" height="41.8"/>
					</g>
					<g>
						<rect x="954.1" y="266.3" fill="#0073AA" width="1" height="39.4"/>
					</g>
					<g>
						<rect x="957.8" y="268.8" fill="#0073AA" width="1" height="37"/>
					</g>
					<g>
						<rect x="961.5" y="271.2" fill="#0073AA" width="1" height="34.5"/>
					</g>
					<g>
						<rect x="965.2" y="273.6" fill="#0073AA" width="1" height="32.1"/>
					</g>
					<g>
						<rect x="968.9" y="276.1" fill="#0073AA" width="1" height="29.6"/>
					</g>
					<g>
						<rect x="972.6" y="278.5" fill="#0073AA" width="1" height="27.2"/>
					</g>
					<g>
						<rect x="976.2" y="281" fill="#0073AA" width="1" height="24.8"/>
					</g>
					<g>
						<rect x="979.9" y="283.4" fill="#0073AA" width="1" height="22.3"/>
					</g>
					<g>
						<rect x="983.6" y="285.8" fill="#0073AA" width="1" height="19.9"/>
					</g>
					<g>
						<rect x="987.3" y="288.3" fill="#0073AA" width="1" height="17.4"/>
					</g>
					<g>
						<rect x="991" y="290.7" fill="#0073AA" width="1" height="15"/>
					</g>
					<g>
						<rect x="994.7" y="293.2" fill="#0073AA" width="1" height="12.6"/>
					</g>
					<g>
						<rect x="998.4" y="295.6" fill="#0073AA" width="1" height="10.1"/>
					</g>
					<g>
						<rect x="1002.1" y="298.1" fill="#0073AA" width="1" height="7.7"/>
					</g>
				</g>
			</g>
			<g>
				<g>
					<g>
						<rect x="905.4" y="263.9" fill="#0073AA" width="1" height="41.8"/>
					</g>
					<g>
						<rect x="901.7" y="266.3" fill="#0073AA" width="1" height="39.4"/>
					</g>
					<g>
						<rect x="898" y="268.8" fill="#0073AA" width="1" height="37"/>
					</g>
					<g>
						<rect x="894.3" y="271.2" fill="#0073AA" width="1" height="34.5"/>
					</g>
					<g>
						<rect x="890.6" y="273.6" fill="#0073AA" width="1" height="32.1"/>
					</g>
					<g>
						<rect x="886.9" y="276.1" fill="#0073AA" width="1" height="29.6"/>
					</g>
					<g>
						<rect x="883.2" y="278.5" fill="#0073AA" width="1" height="27.2"/>
					</g>
					<g>
						<rect x="879.5" y="281" fill="#0073AA" width="1" height="24.8"/>
					</g>
					<g>
						<rect x="875.8" y="283.4" fill="#0073AA" width="1" height="22.3"/>
					</g>
					<g>
						<rect x="872.1" y="285.8" fill="#0073AA" width="1" height="19.9"/>
					</g>
					<g>
						<rect x="868.4" y="288.3" fill="#0073AA" width="1" height="17.4"/>
					</g>
					<g>
						<polygon fill="#0073AA" points="865.7,305.7 864.7,305.4 864.7,290.4 865.7,290.7 						"/>
					</g>
					<g>
						<rect x="861" y="292.9" fill="#0073AA" width="1" height="12.6"/>
					</g>
					<g>
						<rect x="857.4" y="295.1" fill="#0073AA" width="1" height="10.1"/>
					</g>
					<g>
						<rect x="853.7" y="297.7" fill="#0073AA" width="1" height="7.7"/>
					</g>
				</g>
			</g>
			<g>
				<polyline fill="#0073AA" points="1015.7,305.5 1015.2,306.4 948.3,262.7 948.8,261.8 				"/>
			</g>
			<g>
				<polyline fill="#0073AA" points="908.1,261.8 908.6,262.7 841.7,306.4 841.1,305.5 				"/>
			</g>
		</g>
	</g>
	<g>
		<polygon class="st8" points="1072.4,464.1 772,464.1 772,389.3 1047.8,389.3 		"/>
		<g>
			<g>
				<g>
					<rect x="846.7" y="397.4" class="st6" width="11" height="16.5"/>
					<rect x="846.7" y="416.4" class="st6" width="11" height="2.9"/>
				</g>
				<g>
					<rect x="884.9" y="397.4" fill="#F6A31C" width="11" height="16.5"/>
					<rect x="884.9" y="416.4" fill="#F6A31C" width="11" height="2.9"/>
				</g>
				<g>
					<rect x="903.9" y="397.4" class="st6" width="11" height="16.5"/>
					<rect x="903.9" y="416.4" class="st6" width="11" height="2.9"/>
				</g>
				<g>
					<rect x="942.2" y="397.4" class="st9" width="11" height="16.5"/>
					<rect x="942.2" y="416.4" class="st9" width="11" height="2.9"/>
				</g>
				<g>
					<rect x="961.3" y="397.4" class="st6" width="11" height="16.5"/>
					<rect x="961.3" y="416.4" class="st6" width="11" height="2.9"/>
				</g>
				<g>
					<rect x="980.4" y="397.4" class="st6" width="11" height="16.5"/>
					<rect x="980.4" y="416.4" class="st6" width="11" height="2.9"/>
				</g>
				<g>
					<rect x="999.4" y="397.4" class="st9" width="11" height="16.5"/>
					<rect x="999.4" y="416.4" class="st9" width="11" height="2.9"/>
				</g>
			</g>
			<g>
				<g>
					<rect x="846.7" y="430.7" class="st6" width="11" height="16.5"/>
					<rect x="846.7" y="449.7" class="st6" width="11" height="2.9"/>
				</g>
				<g>
					<rect x="884.9" y="430.7" class="st6" width="11" height="16.5"/>
					<rect x="884.9" y="449.7" class="st6" width="11" height="2.9"/>
				</g>
				<g>
					<rect x="903.9" y="430.7" class="st6" width="11" height="16.5"/>
					<rect x="903.9" y="449.7" class="st6" width="11" height="2.9"/>
				</g>
				<g>
					<rect x="942.2" y="430.7" class="st9" width="11" height="16.5"/>
					<rect x="942.2" y="449.7" class="st9" width="11" height="2.9"/>
				</g>
				<g>
					<rect x="961.3" y="430.7" class="st6" width="11" height="16.5"/>
					<rect x="961.3" y="449.7" class="st6" width="11" height="2.9"/>
				</g>
				<g>
					<rect x="980.4" y="430.7" class="st6" width="11" height="16.5"/>
					<rect x="980.4" y="449.7" class="st6" width="11" height="2.9"/>
				</g>
				<g>
					<rect x="999.4" y="430.7" class="st6" width="11" height="16.5"/>
					<rect x="999.4" y="449.7" class="st6" width="11" height="2.9"/>
				</g>
				<g>
					<rect x="1018.2" y="397.4" class="st6" width="11" height="16.5"/>
					<rect x="1018.2" y="416.4" class="st6" width="11" height="2.9"/>
				</g>
				<g>
					<rect x="1037.3" y="397.4" class="st9" width="11" height="16.5"/>
					<rect x="1037.3" y="416.4" class="st9" width="11" height="2.9"/>
				</g>
				<g>
					<rect x="1018.2" y="430.7" class="st6" width="11" height="16.5"/>
					<rect x="1018.2" y="449.7" class="st6" width="11" height="2.9"/>
				</g>
				<g>
					<rect x="1037.3" y="430.7" class="st6" width="11" height="16.5"/>
					<rect x="1037.3" y="449.7" class="st6" width="11" height="2.9"/>
				</g>
			</g>
			<rect x="920.5" y="397.4" class="st9" width="16.1" height="8.7"/>
			<rect x="920.5" y="410.6" class="st9" width="16.1" height="8.7"/>
			<rect x="920.5" y="430.7" class="st6" width="16.1" height="8.7"/>
			<rect x="920.5" y="443.9" class="st6" width="16.1" height="8.7"/>
		</g>
		<g>
			<path class="st10" d="M803.2,432.6"/>
		</g>
		<g>
			<polygon class="st6" points="877.2,290 875.2,254.1 875.2,235.1 861.5,235.1 861.5,191.7 823.7,191.7 823.7,214.2 815.1,214.2 
				815.1,191.7 777.2,191.7 777.2,235.1 763.5,235.1 763.5,254.1 761.5,290 			"/>
			<g>
				<rect x="760.7" y="290" class="st6" width="117.3" height="174"/>
				<g>
					<rect x="758.3" y="225.1" class="st8" width="9.7" height="239"/>
					<rect x="869.4" y="225.1" class="st8" width="9.7" height="239"/>
					<g>
						<rect x="781.3" y="179.6" class="st8" width="9.7" height="284.5"/>
						<rect x="798.6" y="179.6" class="st8" width="9.7" height="284.5"/>
						<rect x="828.8" y="179.6" class="st8" width="9.7" height="284.5"/>
						<rect x="846.1" y="179.6" class="st8" width="9.7" height="284.5"/>
					</g>
					<rect x="815.1" y="234.8" class="st8" width="8.6" height="11.2"/>
					<rect x="815.1" y="251.9" class="st8" width="8.6" height="11.2"/>
					<rect x="815.1" y="269" fill="#F6A31C" width="8.6" height="11.2"/>
					<rect x="815.1" y="289.7" class="st8" width="8.6" height="11.2"/>
					<rect x="815.1" y="308.7" class="st9" width="8.6" height="11.2"/>
					<rect x="815.1" y="327.8" class="st8" width="8.6" height="11.2"/>
					<rect x="815.1" y="346.9" fill="#F6A31C" width="8.6" height="11.2"/>
					<rect x="815.1" y="365.9" class="st8" width="8.6" height="11.2"/>
					<rect x="815.1" y="385" class="st8" width="8.6" height="11.2"/>
					<rect x="815.1" y="404.1" fill="#F6A31C" width="8.6" height="11.2"/>
					<rect x="815.1" y="423.1" class="st8" width="8.6" height="11.2"/>
					<rect x="815.1" y="442.2" class="st9" width="8.6" height="11.2"/>
				</g>
			</g>
		</g>
	</g>
	<rect x="901.1" y="361.6" fill="#F6A31C" width="12.9" height="3.8"/>
	<rect x="901.1" y="367.6" class="st8" width="12.9" height="3.8"/>
	<rect x="901.1" y="374.3" class="st8" width="12.9" height="3.8"/>
	<rect x="901.1" y="381.6" class="st8" width="17.7" height="3.8"/>
	<rect x="923.4" y="381.6" class="st8" width="14.3" height="3.8"/>
</g>
<polygon class="st6" points="682.3,331.9 682.3,311.2 688.2,311.2 694.3,317.3 694.3,325.9 694.3,333 "/>
<linearGradient id="SVGID_3_" gradientUnits="userSpaceOnUse" x1="464.7491" y1="103.5966" x2="464.7491" y2="127.5597">
	<stop  offset="0" style="stop-color:#FFFFFF"/>
	<stop  offset="0.8587" style="stop-color:#FFFFFF;stop-opacity:0.1413"/>
	<stop  offset="1" style="stop-color:#FFFFFF;stop-opacity:0"/>
</linearGradient>
<path class="st11" d="M508.2,127.6h-86.9l13-13c3.1-3.1,8.1-3.1,11.2,0v0c3.1,3.1,8.1,3.1,11.2,0l8.6-8.6c2.7-2.7,6.9-3.1,10.1-0.9
	L508.2,127.6z"/>
<g>
	<g>
		<polygon class="st6" points="1029.4,358.3 1064.3,393.2 1086.8,393.2 1086.8,421.6 1086.8,464.1 1036.1,464.1 1036.1,397.7 
			1004.1,397.7 		"/>
		<rect x="1063.3" y="399" fill="#F6A31C" width="18.8" height="6.9"/>
		<rect x="1063.3" y="412.7" class="st8" width="18.8" height="6.9"/>
		<rect x="1063.3" y="425.7" fill="#F6A31C" width="18.8" height="6.9"/>
		<rect x="1063.3" y="439.4" class="st8" width="18.8" height="6.9"/>
		<rect x="1063.3" y="453.1" class="st8" width="18.8" height="6.9"/>
	</g>
	<polygon class="st8" points="1056.2,336.3 1056.2,305.4 1044.9,293.9 1044.9,282.4 1030.6,282.4 1030.6,297.3 989.2,277.7 
		989.2,331.8 982.9,338.2 975.8,345.5 975.8,464.1 1056.2,464.1 	"/>
	<g>
		<polygon class="st6" points="1056.2,345.8 989.2,312.2 989.2,305.2 1056.2,338.8 		"/>
		<polygon fill="#F6A31C" points="1056.2,327.9 989.2,294.4 989.2,287.4 1056.2,321 		"/>
		<polygon fill="#F6A31C" points="1056.2,363.6 989.2,330 989.2,323.1 1056.2,356.6 		"/>
		<polygon class="st6" points="1056.2,399.3 989.2,365.7 989.2,358.7 1056.2,392.3 		"/>
		<polygon class="st6" points="1056.2,381.4 989.2,347.9 989.2,340.9 1056.2,374.5 		"/>
		<polygon class="st6" points="1056.2,417.1 989.2,383.5 989.2,376.6 1056.2,410.1 		"/>
		<polygon class="st9" points="1056.2,452.8 989.2,419.2 989.2,412.2 1056.2,445.8 		"/>
		<polygon class="st6" points="1056.2,434.9 989.2,401.4 989.2,394.4 1056.2,428 		"/>
		<polygon class="st6" points="1043.9,464.1 989.2,437 989.2,430.1 1056.4,464.1 		"/>
		<polygon class="st6" points="1014.8,464.1 1006.1,464.1 989.2,454.7 989.2,447.7 1023.1,464.1 		"/>
	</g>
	<polygon class="st6" points="979.3,464.1 985,464.1 985,340.9 979.3,347.2 	"/>
</g>
<g>
	<path class="st12" d="M457.3,383.7H473c0.6,0,1.2,0,1.8,0.1c5,0.6,9.7,2.8,13.5,6.2l22.6,20.2c1.2,1.1,2.7,1.9,4.2,2.3l22.6,5.2
		c1.8,0.3,3.1,1.8,3.1,3.6v15.7v4.7v9.1h-6l-17.7-4.8l-18.2,4.8h-41.7L457.3,383.7z"/>
	<path class="st12" d="M457.3,450.7h-69.9L367.5,439l-18.4,11.7h-61.4v-96.8h160.4c5,0,9.1,4.1,9.1,9.1V450.7z"/>
	<polygon class="st7" points="349.1,450.7 355.1,436.2 380.9,436.2 387.4,450.7 	"/>
	<g>
		<ellipse class="st13" cx="414.3" cy="433" rx="3.8" ry="3.7"/>
		<circle class="st8" cx="414.3" cy="433" r="3"/>
		
			<rect x="412.1" y="432.5" transform="matrix(0.7071 -0.7071 0.7071 0.7071 -184.8097 419.737)" fill="#0073AA" width="4.3" height="0.8"/>
	</g>
	<g>
		<circle class="st6" cx="368.2" cy="450.7" r="13.4"/>
		<circle class="st14" cx="368.2" cy="450.7" r="8.3"/>
		<circle class="st15" cx="368.2" cy="450.7" r="1.8"/>
		<path class="st15" d="M368.2,455.7c-0.9,0-1.6,0.6-1.8,1.5c0.6,0.2,1.2,0.2,1.8,0.2c0.6,0,1.2-0.1,1.8-0.2
			C369.8,456.4,369.1,455.7,368.2,455.7z"/>
		<path class="st15" d="M364.2,452.9c0-1-0.8-1.8-1.8-1.8c-0.3,0-0.6,0.1-0.9,0.2c0.1,1.2,0.6,2.4,1.3,3.3
			C363.6,454.5,364.2,453.8,364.2,452.9z"/>
		<path class="st15" d="M374.1,451.1c-1,0-1.8,0.8-1.8,1.8c0,0.8,0.6,1.6,1.4,1.7c0.7-0.9,1.2-2.1,1.3-3.3
			C374.7,451.2,374.4,451.1,374.1,451.1z"/>
		<path class="st15" d="M372,447.3c0.6,0,1.1-0.3,1.5-0.8c-0.7-1-1.7-1.7-2.9-2.1c-0.2,0.3-0.4,0.7-0.4,1.1
			C370.2,446.5,371.1,447.3,372,447.3z"/>
		<path class="st15" d="M364.4,447.3c1,0,1.8-0.8,1.8-1.8c0-0.4-0.1-0.8-0.4-1.1c-1.1,0.4-2.1,1.2-2.9,2.1
			C363.2,447,363.8,447.3,364.4,447.3z"/>
	</g>
	<path class="st16" d="M454.2,418.8H300.5c-0.8,0-1.5-0.7-1.5-1.5l0,0c0-0.8,0.7-1.5,1.5-1.5h153.8c0.8,0,1.5,0.7,1.5,1.5l0,0
		C455.7,418.1,455.1,418.8,454.2,418.8z"/>
	<path class="st16" d="M343.9,442.1h-42.8c-0.8,0-1.4-0.6-1.4-1.4l0,0c0-0.8,0.6-1.4,1.4-1.4h42.8c0.8,0,1.4,0.6,1.4,1.4l0,0
		C345.3,441.4,344.7,442.1,343.9,442.1z"/>
	<path class="st16" d="M454.6,442.2h-63.1c-0.8,0-1.5-0.7-1.5-1.5l0,0c0-0.8,0.7-1.5,1.5-1.5h63.1c0.8,0,1.5,0.7,1.5,1.5l0,0
		C456.1,441.5,455.4,442.2,454.6,442.2z"/>
	<path class="st16" d="M525.8,429.9h-63.1c-0.8,0-1.5-0.7-1.5-1.5l0,0c0-0.8,0.7-1.5,1.5-1.5h63.1c0.8,0,1.5,0.7,1.5,1.5l0,0
		C527.3,429.2,526.7,429.9,525.8,429.9z"/>
	<path class="st8" d="M462.4,422.6h-0.3c-0.7,0-1.3-0.6-1.3-1.3V417c0-0.7,0.6-1.3,1.3-1.3h0.3c0.7,0,1.3,0.6,1.3,1.3v4.3
		C463.7,422,463.1,422.6,462.4,422.6z"/>
	<g>
		<polygon class="st7" points="494.3,412.7 507.1,412.7 494.3,401.2 		"/>
		<path class="st8" d="M495.3,405.8l2.7-6.4h3c0.9,0,1.5,0.7,1.5,1.5v9.5h-7.3V405.8z"/>
		<path class="st7" d="M498,399.4c0,0,1.6-0.4,1.6,4.6s0,6.4,0,6.4h3v-9.5c0-0.9-0.7-1.5-1.5-1.5H498z"/>
		<path fill="#F6A31C" d="M460.8,387.3v25.3h33.5v-11.5l-8.1-7.8c-4.1-3.9-9.5-6.1-15.1-6.1H460.8z"/>
		<g>
			<path class="st8" d="M486.2,393.4c-4.1-3.9-9.5-6.1-15.1-6.1h-10.3v2.3h10.4c5.1,0,10,2,13.7,5.5l7.3,7v10.4h2.2v-11.3
				L486.2,393.4z"/>
		</g>
		<rect x="460.8" y="406.3" class="st14" width="31.4" height="6.4"/>
		<linearGradient id="SVGID_4_" gradientUnits="userSpaceOnUse" x1="469.3257" y1="394.3149" x2="469.3257" y2="402.8371">
			<stop  offset="0" style="stop-color:#FFFFFF"/>
			<stop  offset="1" style="stop-color:#FFFFFF;stop-opacity:0"/>
		</linearGradient>
		<polygon class="st17" points="476.7,394.3 468.2,402.8 461.9,402.8 470.6,394.3 		"/>
		<linearGradient id="SVGID_5_" gradientUnits="userSpaceOnUse" x1="471.0973" y1="392.7228" x2="471.0973" y2="405.6882">
			<stop  offset="0" style="stop-color:#FFFFFF"/>
			<stop  offset="1" style="stop-color:#FFFFFF;stop-opacity:0"/>
		</linearGradient>
		<polygon class="st18" points="480.1,392.7 467.1,405.7 462.1,405.7 475.3,392.7 		"/>
		<linearGradient id="SVGID_6_" gradientUnits="userSpaceOnUse" x1="471.8876" y1="396.6182" x2="471.8876" y2="409.5836">
			<stop  offset="0" style="stop-color:#FFFFFF"/>
			<stop  offset="1" style="stop-color:#FFFFFF;stop-opacity:0"/>
		</linearGradient>
		<polygon class="st19" points="480.9,396.6 467.9,409.6 462.9,409.6 476.1,396.6 		"/>
	</g>
	<g>
		<g>
			<path class="st8" d="M327.3,401.6h-3.2c0,0-0.1,0-0.1,0.1v0.4c0,0,0,0.1,0.1,0.1h1.3v3.6c0,0,0,0.1,0.1,0.1h0.5
				c0,0,0.1,0,0.1-0.1v-3.6h1.3c0,0,0.1,0,0.1-0.1L327.3,401.6C327.3,401.7,327.3,401.6,327.3,401.6z"/>
			<path class="st8" d="M384,401.6h-3.2c0,0-0.1,0-0.1,0.1v0.4c0,0,0,0.1,0.1,0.1h1.3v3.6c0,0,0,0.1,0.1,0.1h0.5c0,0,0.1,0,0.1-0.1
				v-3.6h1.3c0,0,0.1,0,0.1-0.1L384,401.6C384,401.7,384,401.6,384,401.6z"/>
			<path class="st8" d="M373.7,401.6h-3.2c0,0-0.1,0-0.1,0.1v0.4c0,0,0,0.1,0.1,0.1h1.3v3.6c0,0,0,0.1,0.1,0.1h0.5
				c0,0,0.1,0,0.1-0.1v-3.6h1.3c0,0,0.1,0,0.1-0.1L373.7,401.6C373.7,401.7,373.7,401.6,373.7,401.6z"/>
			<path class="st8" d="M331.8,404.1c0.7-0.2,1.1-0.6,1.1-1.2c0-0.3-0.1-0.6-0.3-0.9c-0.3-0.3-0.7-0.4-1.2-0.4h-1.8
				c0,0-0.1,0-0.1,0.1v4c0,0,0,0.1,0.1,0.1h0.5c0,0,0.1,0,0.1-0.1v-1.5h1.1l1.1,1.5c0,0,0,0,0,0h0.6c0,0,0,0,0,0c0,0,0,0,0-0.1
				L331.8,404.1z M330.1,402.2h1.2c0.6,0,1,0.3,1,0.8c0,0.5-0.4,0.8-1,0.8h-1.2V402.2z"/>
			<path class="st8" d="M367.3,404.1c0.7-0.2,1.1-0.6,1.1-1.2c0-0.3-0.1-0.6-0.3-0.9c-0.3-0.3-0.7-0.4-1.2-0.4h-1.8
				c0,0-0.1,0-0.1,0.1v4c0,0,0,0.1,0.1,0.1h0.5c0,0,0.1,0,0.1-0.1v-1.5h1.1l1.1,1.5c0,0,0,0,0,0h0.6c0,0,0,0,0,0c0,0,0,0,0-0.1
				L367.3,404.1z M365.6,402.2h1.2c0.6,0,1,0.3,1,0.8c0,0.5-0.4,0.8-1,0.8h-1.2V402.2z"/>
			<path class="st8" d="M337.5,401.6H337c0,0,0,0,0,0l-1.8,4c0,0,0,0,0,0c0,0,0,0,0,0h0.5c0,0,0,0,0,0l0.4-1h2.2l0.4,1c0,0,0,0,0,0
				h0.5c0,0,0,0,0,0c0,0,0,0,0,0L337.5,401.6C337.5,401.6,337.5,401.6,337.5,401.6z M338.1,404.2h-1.7l0.9-1.9L338.1,404.2z"/>
			<path class="st8" d="M377.4,401.6H377c0,0,0,0,0,0l-1.8,4c0,0,0,0,0,0c0,0,0,0,0,0h0.5c0,0,0,0,0,0l0.4-1h2.2l0.4,1c0,0,0,0,0,0
				h0.5c0,0,0,0,0,0c0,0,0,0,0,0L377.4,401.6C377.5,401.6,377.5,401.6,377.4,401.6z M378.1,404.2h-1.7l0.9-1.9L378.1,404.2z"/>
			<path class="st8" d="M345.1,401.6h-0.4c0,0-0.1,0-0.1,0.1v3.1l-2.5-3.2c0,0,0,0,0,0h-0.4c0,0-0.1,0-0.1,0.1v4c0,0,0,0.1,0.1,0.1
				h0.4c0,0,0.1,0,0.1-0.1v-3.2l2.5,3.2c0,0,0,0,0,0h0.4c0,0,0.1,0,0.1-0.1L345.1,401.6C345.2,401.6,345.1,401.6,345.1,401.6z"/>
			<path class="st8" d="M412.2,401.6h-0.4c0,0-0.1,0-0.1,0.1v3.1l-2.5-3.2c0,0,0,0,0,0h-0.4c0,0-0.1,0-0.1,0.1v4c0,0,0,0.1,0.1,0.1
				h0.4c0,0,0.1,0,0.1-0.1v-3.2l2.5,3.2c0,0,0,0,0,0h0.4c0,0,0.1,0,0.1-0.1L412.2,401.6C412.2,401.6,412.2,401.6,412.2,401.6z"/>
			<path class="st8" d="M399.5,401.6h-0.4c0,0-0.1,0-0.1,0.1v3.1l-2.5-3.2c0,0,0,0,0,0h-0.4c0,0-0.1,0-0.1,0.1v4c0,0,0,0.1,0.1,0.1
				h0.4c0,0,0.1,0,0.1-0.1v-3.2l2.5,3.2c0,0,0,0,0,0h0.4c0,0,0.1,0,0.1-0.1L399.5,401.6C399.6,401.6,399.5,401.6,399.5,401.6z"/>
			<path class="st8" d="M349.3,403.4c-0.9-0.2-1.1-0.4-1.1-0.7c0-0.4,0.3-0.6,0.8-0.6c0.4,0,0.8,0.1,1.1,0.4c0,0,0,0,0,0
				c0,0,0,0,0,0l0.3-0.4c0,0,0-0.1,0-0.1c-0.4-0.4-0.9-0.5-1.5-0.5c-0.8,0-1.4,0.5-1.4,1.2c0,0.8,0.6,1.1,1.4,1.2
				c0.9,0.2,1,0.4,1,0.7c0,0.4-0.3,0.7-0.9,0.7c-0.5,0-0.9-0.2-1.4-0.6c0,0,0,0,0,0c0,0,0,0,0,0l-0.3,0.3c0,0,0,0.1,0,0.1
				c0.5,0.5,1.1,0.7,1.7,0.7c0.9,0,1.4-0.5,1.4-1.2C350.7,404,350.3,403.6,349.3,403.4z"/>
			<path class="st8" d="M354.6,401.6h-1.5c0,0-0.1,0-0.1,0.1v4c0,0,0,0.1,0.1,0.1h0.5c0,0,0.1,0,0.1-0.1v-1.3h0.9
				c0.8,0,1.7-0.4,1.7-1.4C356.2,402.2,355.6,401.6,354.6,401.6z M354.6,403.8h-1v-1.7h1c0.7,0,1,0.3,1,0.8
				C355.6,403.5,355.2,403.8,354.6,403.8z"/>
			<path class="st8" d="M360.5,401.5c-1.2,0-2.1,1-2.1,2.2c0,1.2,0.9,2.2,2.1,2.2c1.2,0,2.1-1,2.1-2.2
				C362.6,402.5,361.7,401.5,360.5,401.5z M360.5,405.3c-0.9,0-1.6-0.7-1.6-1.6c0-0.9,0.7-1.6,1.5-1.6c0.9,0,1.6,0.7,1.6,1.6
				C362,404.6,361.4,405.3,360.5,405.3z"/>
			<path class="st8" d="M386.8,401.6h-0.5c0,0-0.1,0-0.1,0.1v4c0,0,0,0.1,0.1,0.1h0.5c0,0,0.1,0,0.1-0.1L386.8,401.6
				C386.9,401.6,386.8,401.6,386.8,401.6z"/>
			<path class="st8" d="M391.4,401.5c-1.2,0-2.1,1-2.1,2.2c0,1.2,0.9,2.2,2.1,2.2c1.2,0,2.1-1,2.1-2.2
				C393.6,402.5,392.7,401.5,391.4,401.5z M391.4,405.3c-0.9,0-1.6-0.7-1.6-1.6c0-0.9,0.7-1.6,1.5-1.6c0.9,0,1.6,0.7,1.6,1.6
				C393,404.6,392.3,405.3,391.4,405.3z"/>
			<path class="st8" d="M406,401.6h-0.5c0,0-0.1,0-0.1,0.1v4c0,0,0,0.1,0.1,0.1h0.5c0,0,0.1,0,0.1-0.1L406,401.6
				C406,401.6,406,401.6,406,401.6z"/>
			<path class="st8" d="M418.4,405.1l-0.3-0.3c0,0,0,0,0,0c0,0,0,0,0,0c-0.4,0.3-0.7,0.6-1.3,0.6c-0.9,0-1.5-0.7-1.5-1.7
				c0-0.9,0.7-1.6,1.6-1.6c0.5,0,0.8,0.2,1.2,0.6c0,0,0,0,0,0c0,0,0,0,0,0l0.3-0.3c0,0,0-0.1,0-0.1c-0.4-0.4-0.9-0.7-1.6-0.7
				c-1.2,0-2.1,0.9-2.1,2.1c0,1.2,0.9,2.2,2.1,2.2C417.4,405.9,417.9,405.7,418.4,405.1C418.4,405.2,418.4,405.1,418.4,405.1z"/>
		</g>
		<g>
			<path class="st8" d="M364.4,383.3h-1.8c-0.3,0-0.5,0.2-0.5,0.5v14.6c0,0.3,0.2,0.5,0.5,0.5h1.8c0.3,0,0.5-0.2,0.5-0.5v-14.6
				C364.9,383.5,364.7,383.3,364.4,383.3z"/>
			<path class="st8" d="M387.9,383.3h-1.8c-0.3,0-0.5,0.2-0.5,0.5v14.6c0,0.3,0.2,0.5,0.5,0.5h1.8c0.3,0,0.5-0.2,0.5-0.5v-14.6
				C388.3,383.5,388.1,383.3,387.9,383.3z"/>
			<path class="st8" d="M402.6,383.3l-10,0c-0.3,0-0.5,0.2-0.5,0.5v14.6c0,0.3,0.2,0.5,0.5,0.5h10c0.3,0,0.5-0.2,0.5-0.5v-1.8
				c0-0.3-0.2-0.5-0.5-0.5h-7.8v-3.9h5c0.3,0,0.5-0.2,0.5-0.5V390c0-0.3-0.2-0.5-0.5-0.5h-5V386h7.8c0.3,0,0.5-0.2,0.5-0.5v-1.8
				C403,383.5,402.8,383.3,402.6,383.3z"/>
			<path class="st8" d="M381.4,383.3h-1.8c-0.3,0-0.5,0.2-0.5,0.5V394l-7.8-10.4c-0.1-0.1-0.1-0.1-0.2-0.2c-0.1-0.1-0.2-0.1-0.3-0.1
				h-1.8c-0.3,0-0.5,0.2-0.5,0.5v14.6c0,0.3,0.2,0.5,0.5,0.5h1.8c0.3,0,0.5-0.2,0.5-0.5v-10.2l7.9,10.5c0.1,0.1,0.1,0.1,0.2,0.2
				c0.1,0,0.1,0.1,0.2,0.1h1.8c0.3,0,0.5-0.2,0.5-0.5v-14.6C381.9,383.5,381.7,383.3,381.4,383.3z"/>
			<path class="st14" d="M358.9,385.4c-0.1-0.2-0.4-0.3-0.7-0.2l-5,3.1l-2.8-4.8c-0.1-0.2-0.4-0.3-0.6-0.3H349
				c-0.2,0-0.5,0.2-0.6,0.3l-8.9,14.9c-0.1,0.2,0,0.4,0.2,0.4h2.2c0.3,0,0.6-0.2,0.7-0.4l6.7-11.1l1.5,2.5l-2.5,1.5
				c0,0-0.2,0.2-0.3,0.2c-0.2,0.1-0.4,0.4-0.6,0.6l-0.8,1.4c-0.1,0.2-0.1,0.5,0.2,0.6l9.6,4.6c0,0,0.3,0.1,0.6,0.1l0,0l0,0
				c0,0,0.3,0,0.3,0h1.6c0.3,0,0.4-0.2,0.2-0.4c0,0-3.9-6.5-4-6.6c-0.1-0.2-0.4-0.2-0.6-0.1l-1.5,0.9c-0.2,0.1-0.3,0.4-0.2,0.6
				c0.1,0.1,0.6,1,0.6,1L351,393l8.7-5.4c0.2-0.1,0.3-0.4,0.2-0.7L358.9,385.4z"/>
			<path class="st8" d="M421.2,388.9c0-3.1-2.8-5.6-6.1-5.6h-6.8c-0.3,0-0.5,0.2-0.5,0.5v6.6c0,0.3,0.2,0.5,0.5,0.5h1.8
				c0.3,0,0.5-0.2,0.5-0.5V386h4.5c1.8,0,3.3,1.3,3.3,2.9c0,1.6-1.5,2.9-3.3,2.9h-9.5c-0.3,0-0.5,0.2-0.5,0.5v1.8
				c0,0.3,0.2,0.5,0.5,0.5h2.3v3.9c0,0.3,0.2,0.5,0.5,0.5h1.8c0.3,0,0.5-0.2,0.5-0.5v-3.9h5l2.3,3.9c0.1,0.2,0.5,0.4,0.7,0.4h2.2
				c0.2,0,0.4-0.2,0.2-0.4l-2.8-4.8c0,0,0.2-0.1,0.3-0.2C420.1,392.5,421.2,390.8,421.2,388.9z"/>
			<path class="st8" d="M337.3,388.9c0-3.1-2.8-5.6-6.1-5.6h-6.8c-0.3,0-0.5,0.2-0.5,0.5v6.6c0,0.3,0.2,0.5,0.5,0.5h1.8
				c0.3,0,0.5-0.2,0.5-0.5V386h4.5c1.8,0,3.3,1.3,3.3,2.9c0,1.6-1.5,2.9-3.3,2.9h-9.5c-0.3,0-0.5,0.2-0.5,0.5v1.8
				c0,0.3,0.2,0.5,0.5,0.5h2.3v3.9c0,0.3,0.2,0.5,0.5,0.5h1.8c0.3,0,0.5-0.2,0.5-0.5v-3.9h5l2.3,3.9c0.1,0.2,0.5,0.4,0.7,0.4h2.2
				c0.2,0,0.4-0.2,0.2-0.4l-2.8-4.8c0,0,0.2-0.1,0.3-0.2C336.3,392.5,337.3,390.8,337.3,388.9z"/>
		</g>
	</g>
	<path class="st8" d="M540.9,421.2l-4,1.6c-1.1,0.5-1.9,1.6-1.9,2.8v15.7h5.9v-3h-3.7v-11c0-1.2,0.7-2.2,1.7-2.7l2-0.9V421.2z"/>
	<polygon fill="#F6A31C" points="537.2,438.3 540.9,438.3 540.9,431.2 537.2,431.7 	"/>
	<g>
		<path class="st7" d="M499,450.7c0-9.4,7.7-17.1,17.1-17.1c9.4,0,17.1,7.7,17.1,17.1H499z"/>
		<g>
			<circle class="st6" cx="516.1" cy="450.7" r="13.4"/>
			<circle class="st14" cx="516.1" cy="450.7" r="8.3"/>
			<circle class="st15" cx="516.1" cy="450.7" r="1.8"/>
			<path class="st15" d="M516.1,455.7c-0.9,0-1.6,0.6-1.8,1.5c0.6,0.2,1.2,0.2,1.8,0.2c0.6,0,1.2-0.1,1.8-0.2
				C517.7,456.4,517,455.7,516.1,455.7z"/>
			<path class="st15" d="M512.1,452.9c0-1-0.8-1.8-1.8-1.8c-0.3,0-0.6,0.1-0.9,0.2c0.1,1.2,0.6,2.4,1.3,3.3
				C511.5,454.5,512.1,453.8,512.1,452.9z"/>
			<path class="st15" d="M521.9,451.1c-1,0-1.8,0.8-1.8,1.8c0,0.8,0.6,1.6,1.4,1.7c0.7-0.9,1.2-2.1,1.3-3.3
				C522.5,451.2,522.3,451.1,521.9,451.1z"/>
			<path class="st15" d="M519.9,447.3c0.6,0,1.1-0.3,1.5-0.8c-0.7-1-1.7-1.7-2.9-2.1c-0.2,0.3-0.4,0.7-0.4,1.1
				C518.1,446.5,518.9,447.3,519.9,447.3z"/>
			<path class="st15" d="M512.3,447.3c1,0,1.8-0.8,1.8-1.8c0-0.4-0.1-0.8-0.4-1.1c-1.1,0.4-2.1,1.2-2.9,2.1
				C511.1,447,511.7,447.3,512.3,447.3z"/>
		</g>
	</g>
	<path class="st8" d="M530.2,440.9"/>
	<path class="st7" d="M463.7,416.6h-1c-0.3,0-0.5,0.2-0.5,0.5v3.8c0,0.3,0.2,0.5,0.5,0.5h1V416.6z"/>
	<path class="st16" d="M287.7,356.9h3h157.4c3.4,0,6.1,2.7,6.1,6.1v84.8v3.1l3-0.1v-87.8c0-5-4.1-9.1-9.1-9.1H287.7V356.9z"/>
	<g>
		<path class="st16" d="M287.7,359h160.3c2.2,0,4.1,1.8,4.1,4.1v87.7h5.1v-85.3c0-7.4-4.1-11.5-9.2-11.5H287.7V359z"/>
	</g>
</g>
</svg>
